<svg viewBox="0 0 1675 350" xmlns="http://www.w3.org/2000/svg">
 <g transform="translate(0 782.46)">
  <g transform="translate(-93.415,-253.64)" fill="#bd222e">
   <g transform="translate(-66.283,96.217)" stroke="#000" stroke-opacity=".99111">
    <path d="m717.35-602.77c-6.529 0.0237-13.139 0.16308-19.819 0.41064-71.256 2.6403-150.57 17.495-226.81 32.97-76.237 15.475-149.4 31.57-208.4 36.67-14.083 1.2174-27.349 1.8004-39.672 1.6058v-0.0721a52.744 45.39 0 0 1-6.3316 0.38461 52.744 45.39 0 0 1-52.606-42.128v31.053c-0.0386-0.0178-0.0789-0.0341-0.1175-0.0522v200.33a52.744 45.39 0 0 0-0.37391 5.1607 52.744 45.39 0 0 0 52.744 45.39 52.744 45.39 0 0 0 1.8286-0.0552c13.623 0.46034 28.503-0.10259 44.438-1.4802 58.888-5.0907 132.03-21.176 208.28-36.653 76.248-15.477 155.6-30.348 226.97-32.993 6.6913-0.24788 13.312-0.38875 19.855-0.41218 35.773-0.12779 69.18 3.2497 98.719 11.699v-240.07c-29.492-8.4765-62.891-11.88-98.716-11.752z" stroke-width="3.4264"/>
    <path d="m208.86-621.34a45.39 45.39 0 0 0-45.39 45.39 45.39 45.39 0 0 0 45.39 45.39 45.39 45.39 0 0 0 12.643-1.8219v-87.128a45.39 45.39 0 0 0-12.643-1.831z" opacity=".814" stroke-width="3.1786"/>
   </g>
   <g transform="translate(-14.766,630.76)" stroke="#000" stroke-opacity=".99111">
    <path d="m1226.8-1137.3c6.5289 0.024 13.139 0.1631 19.819 0.4106 71.256 2.6403 150.57 17.494 226.81 32.97 76.237 15.475 149.4 31.57 208.4 36.67 14.083 1.2175 27.349 1.8004 39.672 1.6059v-0.072a52.744 45.39 0 0 0 6.3316 0.3846 52.744 45.39 0 0 0 52.606-42.128v31.053c0.039-0.018 0.079-0.034 0.1175-0.052v200.33a52.744 45.39 0 0 1 0.3739 5.1607 52.744 45.39 0 0 1-52.744 45.39 52.744 45.39 0 0 1-1.8286-0.0552c-13.623 0.46034-28.503-0.10259-44.438-1.4802-58.888-5.0907-132.03-21.176-208.28-36.653-76.248-15.477-155.6-30.348-226.97-32.993-6.6913-0.24788-13.312-0.38875-19.855-0.41218-35.773-0.12779-69.18 3.2497-98.72 11.699v-240.07c29.492-8.4765 62.891-11.88 98.716-11.752z" stroke-width="3.4264"/>
    <path d="m1735.2-1155.9a45.39 45.39 0 0 1 45.39 45.39 45.39 45.39 0 0 1-45.39 45.39 45.39 45.39 0 0 1-12.643-1.8219v-87.128a45.39 45.39 0 0 1 12.643-1.831z" opacity=".814" stroke-width="3.1786"/>
   </g>
   <path d="m749.78-494.29v239.56a181.74 74.835 0 0 0 181.74 74.835 181.74 74.835 0 0 0 181.74-74.835v-239.56a181.74 74.835 0 0 1-181.74 74.835 181.74 74.835 0 0 1-181.74-74.835z" stroke="#010000" stroke-width="3.272"/>
  </g>
  <g fill="#95783c" stroke="#010100" stroke-width="5">
   <path d="m130.11-511.34-41.623-70.463v69.343q0 2.5652 1.1585 3.7223 1.1585 1.157 4.1374 1.5554v2.648l-33.182 4.7808v-2.648q2.979-1.2567 4.1374-2.7476 1.1585-1.4909 1.1585-4.0561v-95.658q0-2.4825-1.1585-3.6396-1.1584-1.1571-4.1374-1.5553v-2.648l43.526-6.2711v2.648q-3.8893 1.5533-3.8893 5.1116 0 1.655 1.1585 3.6395l30.782 52.331 31.196-60.267q2.0686-4.1045 2.0686-5.8422 0-3.3927-4.1374-3.2103v-2.648l42.698-6.1519v2.648q-2.9789 1.2567-4.1374 2.7476t-1.1585 3.9734v95.658q0 2.5652 1.1585 3.7223t4.1374 1.5554v2.648l-35.251 5.0788v-2.6479q2.8962-1.162 4.0547-2.6529 1.2412-1.5856 1.2412-4.1508v-69.343z"/>
   <path d="m286.51-652.19q29.541-6.09 46.836 6.3152 18.287 12.945 18.287 39.425 0 16.219-8.7714 32.094-17.129 31.004-56.186 39.055-29.293 6.0388-46.588-6.3664-9.2679-6.6125-14.067-17.539-4.2201-9.6391-4.2201-21.224 0-16.963 8.6885-32.822 16.633-30.322 56.021-38.939zm0.083 19.098q-16.136 3.3265-26.893 15.143-12.743 13.964-12.743 32.334t12.743 27.08q10.757 7.3812 27.059 4.0206t26.976-15.16q6.3717-7.0232 9.7644-15.997 2.9789-7.9788 2.9789-15.84 0-19.198-12.743-27.576-10.84-7.1986-27.141-4.0036z"/>
   <path d="m399.38-601.76v37.485q0 2.4825 1.1585 3.6771 1.2411 1.0968 4.1374 1.3112v2.648l-35.251 6.454v-2.648q2.979-1.3729 4.1375-2.909 1.1584-1.5361 1.1584-4.0185v-95.658q0-2.5652-1.1584-3.6771-1.1585-1.1119-4.1375-1.3939v-2.648l70.668-12.938q12.909-2.3634 20.439-2.2526 7.6129 0.0957 13.24 2.7891 6.5372 3.1061 9.7644 9.8798 3.0617 6.5558 3.0617 14.665 0 27.638-30.7 37.976l21.929 27.181q5.7924 7.1316 8.4404 9.0465 2.7306 1.817 6.6199 1.3532v2.648l-40.878 7.4842v-2.648q4.2201-1.4346 4.2201-3.7516 0-1.4895-3.8891-6.4871l-22.839-29.084zm0-18.618 38.064-6.9691q8.4404-1.5453 11.916-2.6781 3.4755-1.1328 6.3716-3.2353 6.2889-4.5441 6.2889-13.398 0-8.8541-6.2889-11.095-2.9789-1.1096-6.3716-0.90215-3.3099 0.10951-11.916 1.6852l-38.064 6.9692z"/>
   <path d="m536.41-627.78v30.948l72.653-4.0101q2.4825-0.13701 3.8064-1.3686 1.324-1.2316 2.1515-4.2562l2.648-0.14617v29.21l-2.648 0.14616q-0.82751-2.9333-2.1515-4.0187-1.3239-1.0854-3.8064-0.9484l-102.61 5.6635v-2.648q2.979-0.99191 4.1375-2.3798 1.1585-1.3879 1.1585-3.9531v-95.575q0-2.5652-1.1585-3.8252t-4.1375-1.9231v-2.648l100.62-5.5539q2.4825-0.13702 3.8065-1.3686 1.3239-1.3143 2.1514-4.3389l2.648-0.14616v29.21l-2.648 0.14616q-0.82751-2.8505-2.1514-3.936-1.324-1.0854-3.8065-0.94838l-70.667 3.9005v26.811l45.843-2.5303q2.4825-0.13702 3.8064-1.3686 1.324-1.2316 2.1515-4.2562l2.648-0.14615v28.548l-2.648 0.14616q-0.82749-2.8505-2.1515-3.9359-1.3239-1.1682-3.8064-1.0311z"/>
   <path d="m769.01-617.45q29.541 5.3873 46.836 24.512 18.287 20.05 18.287 46.53 0 16.219-8.7713 28.686-17.129 24.349-56.186 17.226-29.293-5.342-46.588-24.466-9.2678-10.213-14.067-23.004-4.2201-11.279-4.2201-22.864 0-16.964 8.6886-29.446 16.632-23.86 56.021-17.174zm0.083 19.13q-16.136-2.9426-26.893 4.6945-12.743 9.0126-12.743 27.383 0 18.37 12.743 32.031 10.757 11.561 27.059 14.533 16.302 2.9728 26.976-4.6794 6.3717-4.5477 9.7643-12.204 2.979-6.8214 2.979-14.683 0-19.198-12.743-32.527-10.84-11.41-27.142-14.549z"/>
   <path d="m881.88-543.81v37.485q0 2.4824 1.1585 3.7156 1.2412 1.138 4.1374 1.4489v2.648l-35.251 5.2806v-2.648q2.9789-1.2737 4.1374-2.7712t1.1585-3.98v-95.658q0-2.5652-1.1585-3.7156t-4.1374-1.5317v-2.648l70.667-10.586q12.909-1.9337 20.439-1.5723 7.6129 0.34907 13.24 3.2298 6.5372 3.3237 9.7644 10.205 3.0617 6.6578 3.0617 14.767 0 27.638-30.7 36.954l21.928 27.911q5.7925 7.3244 8.4404 9.3275 2.7307 1.9079 6.6199 1.5736v2.648l-40.878 6.1235v-2.648q4.2202-1.2942 4.2202-3.6111 0-1.4895-3.8892-6.6166l-22.839-29.844zm0-18.618 38.064-5.702q8.4404-1.2644 11.916-2.2815 3.4754-1.0171 6.3716-3.0232 6.2889-4.3348 6.2889-13.189 0-8.8541-6.2889-11.305-2.979-1.2087-6.3716-1.1143-3.31-5.3e-4 -11.916 1.2885l-38.064 5.702z"/>
   <path d="m1130.1-598.05 69.426 3.9385q2.5653 0.14554 3.8893-0.93784 1.324-1.0834 2.1514-4.0154l2.648 0.15022v29.21l-2.648-0.15022q-0.8274-3.0259-2.1514-4.2595t-3.8893-1.3791l-99.381-5.6379v-2.648q2.979-0.65849 4.1375-1.9168t1.1585-3.8235v-95.575q0-2.5652-1.1585-3.9549t-4.1375-2.3862v-2.648l35.251 1.9998v2.648q-2.9789 0.57574-4.1374 1.9168-1.1585 1.2583-1.1585 3.8235z"/>
   <path d="m1249.9-618.04v30.948l72.653 12.03q2.4824 0.41104 3.8064-0.5282t2.1515-3.7812l2.6479 0.43844v29.21l-2.6479-0.43844q-0.8275-3.116-2.1515-4.4937t-3.8064-1.7888l-102.61-16.99v-2.648q2.979-0.3342 4.1375-1.4664t1.1585-3.6974v-95.575q0-2.5652-1.1585-4.081t-4.1375-2.8366v-2.648l100.62 16.662q2.4825 0.41107 3.8064-0.5282 1.324-1.022 2.1515-3.8639l2.648 0.43847v29.21l-2.648-0.43847q-0.8275-3.0332-2.1515-4.4109-1.3239-1.3777-3.8064-1.7888l-70.667-11.702v26.811l45.843 7.5909q2.4824 0.41104 3.8064-0.52822 1.324-0.93924 2.1515-3.7812l2.648 0.43847v28.548l-2.648-0.43847q-0.8275-3.0332-2.1515-4.411-1.324-1.4605-3.8064-1.8715z"/>
   <path d="m1453.8-633.78-13.488 23.68-2.317-1.8192q0.083-0.80975 0.083-1.3062 0-2.8135-4.7994-7.0663-14.729-13.409-34.589-17.653-8.7713-1.8745-15.474-1.1555-4.8822 0.6116-7.9439 3.2672-2.979 2.6733-2.979 6.5625 0 6.3717 7.6957 10.333 3.9719 2.0073 17.046 6.1254l12.992 4.1004q11.585 3.717 18.701 7.3893 7.1992 3.69 12.743 8.764 5.6269 5.2572 8.8541 12.567 3.31 7.3273 3.31 14.857 0 11.916-7.6957 19.539-6.9509 6.9549-21.597 7.8795-10.923 0.72739-23.418-1.9429-22.425-4.7924-44.27-20.218-4.634-3.1418-5.5442-3.3363-1.0757-0.2299-3.3927 1.0954l-2.3998-1.7541 12.247-25.104 2.3997 1.6713q0 0.74473 0 1.0757 0 3.7237 3.5582 7.6286 5.3787 5.9489 16.632 11.829t21.349 8.038q11.006 2.352 18.784 0.29061 4.3029-1.1491 6.8682-3.9936 2.5652-2.9272 2.5652-6.6509 0-5.6269-6.0407-9.3176-4.2202-2.5569-17.046-6.7046l-12.743-4.0474q-12.826-4.065-18.122-6.3553-5.2959-2.373-10.592-6.1528-7.5301-5.333-11.833-13.7-3.8892-7.5338-3.8892-16.222 0-14.316 9.8471-21.562 12.909-9.5708 38.726-4.0533 10.84 2.3166 20.191 6.5492 9.3506 4.1498 23.335 13.014 4.7994 2.9289 5.8751 3.1588 1.7378 0.37138 4.0547-1.0367z"/>
   <path d="m1575.9-601.23-13.488 23.554-2.3169-1.8406q0.083-0.80899 0.083-1.3055 0-2.8135-4.7995-7.111-14.729-13.546-34.589-17.974-8.7714-1.956-15.474-1.2993-4.8821 0.56627-7.9439 3.1934-2.9789 2.6456-2.9789 6.5348 0 6.3716 7.6957 10.405 3.9719 2.0442 17.046 6.2838l12.992 4.2211q11.585 3.8247 18.701 7.5631 7.1992 3.7569 12.743 8.8824 5.6269 5.3095 8.8542 12.649 3.3099 7.358 3.3099 14.888 0 11.916-7.6956 19.468-6.9509 6.8903-21.597 7.6788-10.923 0.62587-23.418-2.1606-22.425-5.0008-44.27-20.63-4.6339-3.1848-5.5442-3.3878-1.0757-0.23989-3.3927 1.0639l-2.3997-1.7764 12.247-24.99 2.3998 1.6936q0 0.74475 0 1.0757 0 3.7237 3.5581 7.6616 5.3787 5.9989 16.633 11.984 11.254 5.9851 21.349 8.2364 11.006 2.4543 18.784 0.46516 4.303-1.1091 6.8682-3.9298 2.5652-2.9034 2.5652-6.6271 0-5.6269-6.0406-9.3737-4.2202-2.5961-17.046-6.863l-12.743-4.1658q-12.826-4.1842-18.122-6.5237-5.2959-2.4222-10.592-6.2512-7.5301-5.4029-11.833-13.81-3.8893-7.57-3.8893-16.259 0-14.316 9.8472-21.47 12.909-9.4509 38.726-3.6935 10.84 2.4173 20.191 6.7368 9.3505 4.2366 23.335 13.23 4.7994 2.9735 5.8751 3.2134 1.7378 0.38753 4.0548-0.99899z"/>
  </g>
 </g>
</svg>