<?xml version="1.0" encoding="UTF-8" standalone="no"?>
<!-- Created with Inkscape (http://www.inkscape.org/) -->

<svg
   xmlns:dc="http://purl.org/dc/elements/1.1/"
   xmlns:cc="http://creativecommons.org/ns#"
   xmlns:rdf="http://www.w3.org/1999/02/22-rdf-syntax-ns#"
   xmlns:svg="http://www.w3.org/2000/svg"
   xmlns="http://www.w3.org/2000/svg"
   xmlns:sodipodi="http://sodipodi.sourceforge.net/DTD/sodipodi-0.dtd"
   xmlns:inkscape="http://www.inkscape.org/namespaces/inkscape"
   width="152mm"
   height="102mm"
   viewBox="0 0 152 102"
   version="1.1"
   id="svg8"
   inkscape:version="0.92.4 (5da689c313, 2019-01-14)"
   sodipodi:docname="4R152x102mmTestRuler.svg">
  <defs
     id="defs2">
    <inkscape:path-effect
       effect="ruler"
       id="path-effect866"
       is_visible="true"
       unit="mm"
       mark_distance="1"
       mark_length="5"
       minor_mark_length="2"
       major_mark_steps="10"
       shift="1"
       offset="0"
       mark_dir="left"
       border_marks="both" />
    <inkscape:path-effect
       effect="ruler"
       id="path-effect845"
       is_visible="true"
       unit="mm"
       mark_distance="1"
       mark_length="5"
       minor_mark_length="2"
       major_mark_steps="11"
       shift="9"
       offset="1"
       mark_dir="left"
       border_marks="both" />
    <inkscape:path-effect
       effect="ruler"
       id="path-effect2539"
       is_visible="true"
       unit="mm"
       mark_distance="10"
       mark_length="10"
       minor_mark_length="5"
       major_mark_steps="5"
       shift="0"
       offset="0"
       mark_dir="both"
       border_marks="both" />
    <inkscape:path-effect
       effect="ruler"
       id="path-effect2535"
       is_visible="true"
       unit="mm"
       mark_distance="10"
       mark_length="10"
       minor_mark_length="5"
       major_mark_steps="5"
       shift="7"
       offset="6"
       mark_dir="both"
       border_marks="both" />
    <inkscape:path-effect
       effect="ruler"
       id="path-effect2539-8"
       is_visible="true"
       unit="mm"
       mark_distance="10"
       mark_length="10"
       minor_mark_length="5"
       major_mark_steps="5"
       shift="0"
       offset="0"
       mark_dir="left"
       border_marks="both" />
    <inkscape:path-effect
       effect="ruler"
       id="path-effect2535-1"
       is_visible="true"
       unit="mm"
       mark_distance="10"
       mark_length="10"
       minor_mark_length="5"
       major_mark_steps="5"
       shift="7"
       offset="6"
       mark_dir="both"
       border_marks="both" />
    <inkscape:path-effect
       effect="ruler"
       id="path-effect845-4"
       is_visible="true"
       unit="mm"
       mark_distance="1"
       mark_length="5"
       minor_mark_length="2"
       major_mark_steps="11"
       shift="9"
       offset="1"
       mark_dir="left"
       border_marks="both" />
  </defs>
  <sodipodi:namedview
     id="base"
     pagecolor="#ffffff"
     bordercolor="#666666"
     borderopacity="1.0"
     inkscape:pageopacity="0.0"
     inkscape:pageshadow="2"
     inkscape:zoom="1.4"
     inkscape:cx="170.79513"
     inkscape:cy="184.49414"
     inkscape:document-units="mm"
     inkscape:current-layer="layer1"
     showgrid="false"
     inkscape:window-width="1920"
     inkscape:window-height="1018"
     inkscape:window-x="-8"
     inkscape:window-y="-8"
     inkscape:window-maximized="1"
     inkscape:snap-grids="true" />
  <metadata
     id="metadata5">
    <rdf:RDF>
      <cc:Work
         rdf:about="">
        <dc:format>image/svg+xml</dc:format>
        <dc:type
           rdf:resource="http://purl.org/dc/dcmitype/StillImage" />
        <dc:title />
      </cc:Work>
    </rdf:RDF>
  </metadata>
  <g
     inkscape:label="Layer 1"
     inkscape:groupmode="layer"
     id="layer1"
     transform="translate(0,-195)">
    <path
       style="opacity:1;vector-effect:none;fill:none;fill-opacity:1;stroke:#000000;stroke-width:0.1;stroke-linecap:butt;stroke-linejoin:miter;stroke-miterlimit:4;stroke-dasharray:none;stroke-dashoffset:0;stroke-opacity:1"
       d="m 0,286.86771 h 152 m -146,2.5 v -5 m 10,5 v -5 m 10,7.5 v -10 m 10,7.5 v -5 m 10,5 v -5 m 10,5 v -5 m 10,5 v -5 m 10,7.5 v -10 m 10,7.5 v -5 m 10,5 v -5 m 10,5 v -5 m 10,5 v -5 m 10,7.5 v -10 m 10,7.5 v -5 m 10,5 v -5 m -146,7.5 v -10 m 152,10 v -10"
       id="path2533"
       inkscape:connector-curvature="0"
       inkscape:path-effect="#path-effect2535"
       inkscape:original-d="M 0,286.86771 H 152"
       transform="translate(0.05,-40.91771)" />
    <path
       style="fill:none;stroke:#000000;stroke-width:0.09913771;stroke-linecap:butt;stroke-linejoin:miter;stroke-miterlimit:4;stroke-dasharray:none;stroke-opacity:1"
       d="m -15.875,195.51339 v 99.97471 m -5,-99.97471 h 10 m -7.5,10 h 5 m -5,10 h 5 m -5,10 h 5 m -5,10 h 5 m -7.5,10 h 10 m -7.5,10 h 5 m -5,10 h 5 m -5,10 h 5 m -5,10 h 5 m -7.5,9.97471 h 10"
       id="path2537"
       inkscape:connector-curvature="0"
       inkscape:path-effect="#path-effect2539"
       inkscape:original-d="M -15.875,195.51339 V 295.4881"
       transform="matrix(0.99988493,0,0,1.0175885,91.922736,-3.7357331)" />
    <path
       style="opacity:1;vector-effect:none;fill:none;fill-opacity:1;stroke:#000000;stroke-width:0.10287214;stroke-linecap:butt;stroke-linejoin:miter;stroke-miterlimit:4;stroke-dasharray:none;stroke-dashoffset:0;stroke-opacity:1"
       d="m 0,232.93303 h 152 m -151,0 v -2 m 1,2 v -2 m 1,2 v -2 m 1,2 v -2 m 1,2 v -2 m 1,2 v -2 m 1,2 v -2 m 1,2 v -2 m 1,2 v -2 m 1,2 v -5 m 1,5 v -2 m 1,2 v -2 m 1,2 v -2 m 1,2 v -2 m 1,2 v -2 m 1,2 v -2 m 1,2 v -2 m 1,2 v -2 m 1,2 v -2 m 1,2 v -2 m 1,2 v -5 m 1,5 v -2 m 1,2 v -2 m 1,2 v -2 m 1,2 v -2 m 1,2 v -2 m 1,2 v -2 m 1,2 v -2 m 1,2 v -2 m 1,2 v -2 m 1,2 v -2 m 1,2 v -5 m 1,5 v -2 m 1,2 v -2 m 1,2 v -2 m 1,2 v -2 m 1,2 v -2 m 1,2 v -2 m 1,2 v -2 m 1,2 v -2 m 1,2 v -2 m 1,2 v -2 m 1,2 v -5 m 1,5 v -2 m 1,2 v -2 m 1,2 v -2 m 1,2 v -2 m 1,2 v -2 m 1,2 v -2 m 1,2 v -2 m 1,2 v -2 m 1,2 v -2 m 1,2 v -2 m 1,2 v -5 m 1,5 v -2 m 1,2 v -2 m 1,2 v -2 m 1,2 v -2 m 1,2 v -2 m 1,2 v -2 m 1,2 v -2 m 1,2 v -2 m 1,2 v -2 m 1,2 v -2 m 1,2 v -5 m 1,5 v -2 m 1,2 v -2 m 1,2 v -2 m 1,2 v -2 m 1,2 v -2 m 1,2 v -2 m 1,2 v -2 m 1,2 v -2 m 1,2 v -2 m 1,2 v -2 m 1,2 v -5 m 1,5 v -2 m 1,2 v -2 m 1,2 v -2 m 1,2 v -2 m 1,2 v -2 m 1,2 v -2 m 1,2 v -2 m 1,2 v -2 m 1,2 v -2 m 1,2 v -2 m 1,2 v -5 m 1,5 v -2 m 1,2 v -2 m 1,2 v -2 m 1,2 v -2 m 1,2 v -2 m 1,2 v -2 m 1,2 v -2 m 1,2 v -2 m 1,2 v -2 m 1,2 v -2 m 1,2 v -5 m 1,5 v -2 m 1,2 v -2 m 1,2 v -2 m 1,2 v -2 m 1,2 v -2 m 1,2 v -2 m 1,2 v -2 m 1,2 v -2 m 1,2 v -2 m 1,2 v -2 m 1,2 v -5 m 1,5 v -2 m 1,2 v -2 m 1,2 v -2 m 1,2 v -2 m 1,2 v -2 m 1,2 v -2 m 1,2 v -2 m 1,2 v -2 m 1,2 v -2 m 1,2 v -2 m 1,2 v -5 m 1,5 v -2 m 1,2 v -2 m 1,2 v -2 m 1,2 v -2 m 1,2 v -2 m 1,2 v -2 m 1,2 v -2 m 1,2 v -2 m 1,2 v -2 m 1,2 v -2 m 1,2 v -5 m 1,5 v -2 m 1,2 v -2 m 1,2 v -2 m 1,2 v -2 m 1,2 v -2 m 1,2 v -2 m 1,2 v -2 m 1,2 v -2 m 1,2 v -2 m 1,2 v -2 m 1,2 v -5 m 1,5 v -2 m 1,2 v -2 m 1,2 v -2 m 1,2 v -2 m 1,2 v -2 m 1,2 v -2 m 1,2 v -2 m 1,2 v -2 m 1,2 v -2 m -151,2 v -5 m 152,5 v -5"
       id="path826"
       inkscape:connector-curvature="0"
       inkscape:path-effect="#path-effect845"
       inkscape:original-d="M 0,232.93303 H 152" />
    <path
       style="opacity:1;vector-effect:none;fill:none;fill-opacity:1;stroke:#000000;stroke-width:0.10572318;stroke-linecap:butt;stroke-linejoin:miter;stroke-miterlimit:4;stroke-dasharray:none;stroke-dashoffset:0;stroke-opacity:1"
       d="m 40.051436,195 v 102 m 0,-102 h 2 m -2,1 h 5 m -5,1 h 2 m -2,1 h 2 m -2,1 h 2 m -2,1 h 2 m -2,1 h 2 m -2,1 h 2 m -2,1 h 2 m -2,1 h 2 m -2,1 h 2 m -2,1 h 5 m -5,1 h 2 m -2,1 h 2 m -2,1 h 2 m -2,1 h 2 m -2,1 h 2 m -2,1 h 2 m -2,1 h 2 m -2,1 h 2 m -2,1 h 2 m -2,1 h 5 m -5,1 h 2 m -2,1 h 2 m -2,1 h 2 m -2,1 h 2 m -2,1 h 2 m -2,1 h 2 m -2,1 h 2 m -2,1 h 2 m -2,1 h 2 m -2,1 h 5 m -5,1 h 2 m -2,1 h 2 m -2,1 h 2 m -2,1 h 2 m -2,1 h 2 m -2,1 h 2 m -2,1 h 2 m -2,1 h 2 m -2,1 h 2 m -2,1 h 5 m -5,1 h 2 m -2,1 h 2 m -2,1 h 2 m -2,1 h 2 m -2,1 h 2 m -2,1 h 2 m -2,1 h 2 m -2,1 h 2 m -2,1 h 2 m -2,1 h 5 m -5,1 h 2 m -2,1 h 2 m -2,1 h 2 m -2,1 h 2 m -2,1 h 2 m -2,1 h 2 m -2,1 h 2 m -2,1 h 2 m -2,1 h 2 m -2,1 h 5 m -5,1 h 2 m -2,1 h 2 m -2,1 h 2 m -2,1 h 2 m -2,1 h 2 m -2,1 h 2 m -2,1 h 2 m -2,1 h 2 m -2,1 h 2 m -2,1 h 5 m -5,1 h 2 m -2,1 h 2 m -2,1 h 2 m -2,1 h 2 m -2,1 h 2 m -2,1 h 2 m -2,1 h 2 m -2,1 h 2 m -2,1 h 2 m -2,1 h 5 m -5,1 h 2 m -2,1 h 2 m -2,1 h 2 m -2,1 h 2 m -2,1 h 2 m -2,1 h 2 m -2,1 h 2 m -2,1 h 2 m -2,1 h 2 m -2,1 h 5 m -5,1 h 2 m -2,1 h 2 m -2,1 h 2 m -2,1 h 2 m -2,1 h 2 m -2,1 h 2 m -2,1 h 2 m -2,1 h 2 m -2,1 h 2 m -2,1 h 5 m -5,-101 h 5 m -5,102 h 5"
       id="path847"
       inkscape:connector-curvature="0"
       inkscape:path-effect="#path-effect866"
       inkscape:original-d="M 40.051436,195 V 297" />
  </g>
</svg>
