<?xml version="1.0" encoding="UTF-8" standalone="no"?>
<!-- Created with Inkscape (http://www.inkscape.org/) -->

<svg
   xmlns:dc="http://purl.org/dc/elements/1.1/"
   xmlns:cc="http://creativecommons.org/ns#"
   xmlns:rdf="http://www.w3.org/1999/02/22-rdf-syntax-ns#"
   xmlns:svg="http://www.w3.org/2000/svg"
   xmlns="http://www.w3.org/2000/svg"
   xmlns:sodipodi="http://sodipodi.sourceforge.net/DTD/sodipodi-0.dtd"
   xmlns:inkscape="http://www.inkscape.org/namespaces/inkscape"
   width="203mm"
   height="152mm"
   viewBox="0 0 203 152"
   version="1.1"
   id="svg8"
   inkscape:version="0.92.4 (5da689c313, 2019-01-14)"
   sodipodi:docname="6R203x152mmTestRuler.svg">
  <defs
     id="defs2">
    <inkscape:path-effect
       border_marks="both"
       mark_dir="both"
       offset="1.5"
       shift="0"
       major_mark_steps="10"
       minor_mark_length="5"
       mark_length="10"
       mark_distance="1"
       unit="mm"
       is_visible="true"
       id="path-effect1435"
       effect="ruler" />
    <inkscape:path-effect
       border_marks="both"
       mark_dir="both"
       offset="6"
       shift="0"
       major_mark_steps="10"
       minor_mark_length="5"
       mark_length="10"
       mark_distance="1"
       unit="mm"
       is_visible="true"
       id="path-effect1431"
       effect="ruler" />
    <inkscape:path-effect
       border_marks="both"
       mark_dir="left"
       offset="0"
       shift="0"
       major_mark_steps="5"
       minor_mark_length="2"
       mark_length="5"
       mark_distance="10"
       unit="mm"
       is_visible="true"
       id="path-effect836"
       effect="ruler" />
    <inkscape:path-effect
       border_marks="both"
       mark_dir="left"
       offset="0"
       shift="0"
       major_mark_steps="5"
       minor_mark_length="3"
       mark_length="5"
       mark_distance="10"
       unit="mm"
       is_visible="true"
       id="path-effect832"
       effect="ruler" />
    <inkscape:path-effect
       effect="ruler"
       id="path-effect828"
       is_visible="true"
       unit="mm"
       mark_distance="10"
       mark_length="10"
       minor_mark_length="5"
       major_mark_steps="5"
       shift="2"
       offset="6"
       mark_dir="both"
       border_marks="both" />
    <inkscape:path-effect
       effect="ruler"
       id="path-effect824"
       is_visible="true"
       unit="mm"
       mark_distance="10"
       mark_length="10"
       minor_mark_length="5"
       major_mark_steps="5"
       shift="0"
       offset="1.5"
       mark_dir="both"
       border_marks="both" />
    <inkscape:path-effect
       effect="ruler"
       id="path-effect818"
       is_visible="true"
       unit="px"
       mark_distance="20"
       mark_length="14"
       minor_mark_length="7"
       major_mark_steps="5"
       shift="0"
       offset="0"
       mark_dir="left"
       border_marks="both" />
    <inkscape:path-effect
       effect="ruler"
       id="path-effect828-4"
       is_visible="true"
       unit="mm"
       mark_distance="10"
       mark_length="5"
       minor_mark_length="3"
       major_mark_steps="5"
       shift="0"
       offset="0"
       mark_dir="left"
       border_marks="both" />
    <inkscape:path-effect
       effect="ruler"
       id="path-effect828-2"
       is_visible="true"
       unit="mm"
       mark_distance="10"
       mark_length="5"
       minor_mark_length="3"
       major_mark_steps="5"
       shift="0"
       offset="0"
       mark_dir="left"
       border_marks="both" />
    <inkscape:path-effect
       effect="ruler"
       id="path-effect828-0"
       is_visible="true"
       unit="mm"
       mark_distance="10"
       mark_length="5"
       minor_mark_length="3"
       major_mark_steps="5"
       shift="0"
       offset="0"
       mark_dir="left"
       border_marks="both" />
  </defs>
  <sodipodi:namedview
     id="base"
     pagecolor="#ffffff"
     bordercolor="#666666"
     borderopacity="1.0"
     inkscape:pageopacity="0.0"
     inkscape:pageshadow="2"
     inkscape:zoom="0.98994949"
     inkscape:cx="256.75657"
     inkscape:cy="278.61174"
     inkscape:document-units="mm"
     inkscape:current-layer="layer1"
     showgrid="false"
     inkscape:window-width="1920"
     inkscape:window-height="1018"
     inkscape:window-x="-8"
     inkscape:window-y="-8"
     inkscape:window-maximized="1" />
  <metadata
     id="metadata5">
    <rdf:RDF>
      <cc:Work
         rdf:about="">
        <dc:format>image/svg+xml</dc:format>
        <dc:type
           rdf:resource="http://purl.org/dc/dcmitype/StillImage" />
        <dc:title />
      </cc:Work>
    </rdf:RDF>
  </metadata>
  <g
     inkscape:label="Layer 1"
     inkscape:groupmode="layer"
     id="layer1"
     transform="translate(0,-145)">
    <rect
       style="opacity:0.475;vector-effect:none;fill:#ffffff;fill-opacity:1;fill-rule:nonzero;stroke:#000000;stroke-width:0.17007941;stroke-linecap:round;stroke-linejoin:miter;stroke-miterlimit:4;stroke-dasharray:none;stroke-dashoffset:0;stroke-opacity:1"
       id="rect820"
       width="9.8299208"
       height="9.8299208"
       x="96.585037"
       y="216.08504" />
    <path
       style="opacity:1;vector-effect:none;fill:none;fill-opacity:1;stroke:#000000;stroke-width:0.1;stroke-linecap:butt;stroke-linejoin:miter;stroke-miterlimit:4;stroke-dasharray:none;stroke-dashoffset:0;stroke-opacity:1"
       d="m 0,154.8675 h 203 m -201.5,5 v -10 m 10,7.5 v -5 m 10,5 v -5 m 10,5 v -5 m 10,5 v -5 m 10,7.5 v -10 m 10,7.5 v -5 m 10,5 v -5 m 10,5 v -5 m 10,5 v -5 m 10,7.5 v -10 m 10,7.5 v -5 m 10,5 v -5 m 10,5 v -5 m 10,5 v -5 m 10,7.5 v -10 m 10,7.5 v -5 m 10,5 v -5 m 10,5 v -5 m 10,5 v -5 m 10,7.5 v -10 m -201.5,10 v -10 m 203,10 v -10"
       id="path822"
       inkscape:connector-curvature="0"
       inkscape:path-effect="#path-effect824"
       inkscape:original-d="M 0,154.8675 H 203"
       transform="translate(0.05,66.0825)" />
    <path
       style="fill:none;stroke:#000000;stroke-width:0.1;stroke-linecap:butt;stroke-linejoin:miter;stroke-miterlimit:4;stroke-dasharray:none;stroke-opacity:1"
       d="m 10.2,145.00001 v 152 m -2.5,-146 h 5 m -5,10 h 5 m -7.5,10 h 10 m -7.5,10 h 5 m -5,10 h 5 m -5,10 h 5 m -5,10 h 5 m -7.5,10 h 10 m -7.5,10 h 5 m -5,10 h 5 m -5,10 h 5 m -5,10 h 5 m -7.5,10 h 10 m -7.5,10 h 5 m -5,10 h 5 m -7.5,-146 h 10 m -10,152 h 10"
       id="path826"
       inkscape:connector-curvature="0"
       inkscape:path-effect="#path-effect828"
       inkscape:original-d="m 10.2,145.00001 v 152"
       transform="matrix(1,0,0,-1,91.35,441.95001)" />
    <path
       transform="matrix(1,0,0,-1,161.37462,441.95001)"
       inkscape:original-d="m 10.2,145.00001 v 152"
       inkscape:path-effect="#path-effect1431"
       inkscape:connector-curvature="0"
       id="path1429"
       d="m 10.2,145.00001 v 152 m -5,-146 h 10 m -7.5,1 h 5 m -5,1 h 5 m -5,1 h 5 m -5,1 h 5 m -5,1 h 5 m -5,1 h 5 m -5,1 h 5 m -5,1 h 5 m -5,1 h 5 m -7.5,1 h 10 m -7.5,1 h 5 m -5,1 h 5 m -5,1 h 5 m -5,1 h 5 m -5,1 h 5 m -5,1 h 5 m -5,1 h 5 m -5,1 h 5 m -5,1 h 5 m -7.5,1 h 10 m -7.5,1 h 5 m -5,1 h 5 m -5,1 h 5 m -5,1 h 5 m -5,1 h 5 m -5,1 h 5 m -5,1 h 5 m -5,1 h 5 m -5,1 h 5 m -7.5,1 h 10 m -7.5,1 h 5 m -5,1 h 5 m -5,1 h 5 m -5,1 h 5 m -5,1 h 5 m -5,1 h 5 m -5,1 h 5 m -5,1 h 5 m -5,1 h 5 m -7.5,1 h 10 m -7.5,1 h 5 m -5,1 h 5 m -5,1 h 5 m -5,1 h 5 m -5,1 h 5 m -5,1 h 5 m -5,1 h 5 m -5,1 h 5 m -5,1 h 5 m -7.5,1 h 10 m -7.5,1 h 5 m -5,1 h 5 m -5,1 h 5 m -5,1 h 5 m -5,1 h 5 m -5,1 h 5 m -5,1 h 5 m -5,1 h 5 m -5,1 h 5 m -7.5,1 h 10 m -7.5,1 h 5 m -5,1 h 5 m -5,1 h 5 m -5,1 h 5 m -5,1 h 5 m -5,1 h 5 m -5,1 h 5 m -5,1 h 5 m -5,1 h 5 m -7.5,1 h 10 m -7.5,1 h 5 m -5,1 h 5 m -5,1 h 5 m -5,1 h 5 m -5,1 h 5 m -5,1 h 5 m -5,1 h 5 m -5,1 h 5 m -5,1 h 5 m -7.5,1 h 10 m -7.5,1 h 5 m -5,1 h 5 m -5,1 h 5 m -5,1 h 5 m -5,1 h 5 m -5,1 h 5 m -5,1 h 5 m -5,1 h 5 m -5,1 h 5 m -7.5,1 h 10 m -7.5,1 h 5 m -5,1 h 5 m -5,1 h 5 m -5,1 h 5 m -5,1 h 5 m -5,1 h 5 m -5,1 h 5 m -5,1 h 5 m -5,1 h 5 m -7.5,1 h 10 m -7.5,1 h 5 m -5,1 h 5 m -5,1 h 5 m -5,1 h 5 m -5,1 h 5 m -5,1 h 5 m -5,1 h 5 m -5,1 h 5 m -5,1 h 5 m -7.5,1 h 10 m -7.5,1 h 5 m -5,1 h 5 m -5,1 h 5 m -5,1 h 5 m -5,1 h 5 m -5,1 h 5 m -5,1 h 5 m -5,1 h 5 m -5,1 h 5 m -7.5,1 h 10 m -7.5,1 h 5 m -5,1 h 5 m -5,1 h 5 m -5,1 h 5 m -5,1 h 5 m -5,1 h 5 m -5,1 h 5 m -5,1 h 5 m -5,1 h 5 m -7.5,1 h 10 m -7.5,1 h 5 m -5,1 h 5 m -5,1 h 5 m -5,1 h 5 m -5,1 h 5 m -5,1 h 5 m -5,1 h 5 m -5,1 h 5 m -5,1 h 5 m -7.5,1 h 10 m -7.5,1 h 5 m -5,1 h 5 m -5,1 h 5 m -5,1 h 5 m -5,1 h 5 m -7.5,-151 h 10 m -10,152 h 10"
       style="fill:none;stroke:#000000;stroke-width:0.1;stroke-linecap:butt;stroke-linejoin:miter;stroke-miterlimit:4;stroke-dasharray:none;stroke-opacity:1" />
    <path
       transform="translate(0.05,121.94183)"
       inkscape:original-d="M 0,154.8675 H 203"
       inkscape:path-effect="#path-effect1435"
       inkscape:connector-curvature="0"
       id="path1433"
       d="m 0,154.8675 h 203 m -201.5,5 v -10 m 1,7.5 v -5 m 1,5 v -5 m 1,5 v -5 m 1,5 v -5 m 1,5 v -5 m 1,5 v -5 m 1,5 v -5 m 1,5 v -5 m 1,5 v -5 m 1,7.5 v -10 m 1,7.5 v -5 m 1,5 v -5 m 1,5 v -5 m 1,5 v -5 m 1,5 v -5 m 1,5 v -5 m 1,5 v -5 m 1,5 v -5 m 1,5 v -5 m 1,7.5 v -10 m 1,7.5 v -5 m 1,5 v -5 m 1,5 v -5 m 1,5 v -5 m 1,5 v -5 m 1,5 v -5 m 1,5 v -5 m 1,5 v -5 m 1,5 v -5 m 1,7.5 v -10 m 1,7.5 v -5 m 1,5 v -5 m 1,5 v -5 m 1,5 v -5 m 1,5 v -5 m 1,5 v -5 m 1,5 v -5 m 1,5 v -5 m 1,5 v -5 m 1,7.5 v -10 m 1,7.5 v -5 m 1,5 v -5 m 1,5 v -5 m 1,5 v -5 m 1,5 v -5 m 1,5 v -5 m 1,5 v -5 m 1,5 v -5 m 1,5 v -5 m 1,7.5 v -10 m 1,7.5 v -5 m 1,5 v -5 m 1,5 v -5 m 1,5 v -5 m 1,5 v -5 m 1,5 v -5 m 1,5 v -5 m 1,5 v -5 m 1,5 v -5 m 1,7.5 v -10 m 1,7.5 v -5 m 1,5 v -5 m 1,5 v -5 m 1,5 v -5 m 1,5 v -5 m 1,5 v -5 m 1,5 v -5 m 1,5 v -5 m 1,5 v -5 m 1,7.5 v -10 m 1,7.5 v -5 m 1,5 v -5 m 1,5 v -5 m 1,5 v -5 m 1,5 v -5 m 1,5 v -5 m 1,5 v -5 m 1,5 v -5 m 1,5 v -5 m 1,7.5 v -10 m 1,7.5 v -5 m 1,5 v -5 m 1,5 v -5 m 1,5 v -5 m 1,5 v -5 m 1,5 v -5 m 1,5 v -5 m 1,5 v -5 m 1,5 v -5 m 1,7.5 v -10 m 1,7.5 v -5 m 1,5 v -5 m 1,5 v -5 m 1,5 v -5 m 1,5 v -5 m 1,5 v -5 m 1,5 v -5 m 1,5 v -5 m 1,5 v -5 m 1,7.5 v -10 m 1,7.5 v -5 m 1,5 v -5 m 1,5 v -5 m 1,5 v -5 m 1,5 v -5 m 1,5 v -5 m 1,5 v -5 m 1,5 v -5 m 1,5 v -5 m 1,7.5 v -10 m 1,7.5 v -5 m 1,5 v -5 m 1,5 v -5 m 1,5 v -5 m 1,5 v -5 m 1,5 v -5 m 1,5 v -5 m 1,5 v -5 m 1,5 v -5 m 1,7.5 v -10 m 1,7.5 v -5 m 1,5 v -5 m 1,5 v -5 m 1,5 v -5 m 1,5 v -5 m 1,5 v -5 m 1,5 v -5 m 1,5 v -5 m 1,5 v -5 m 1,7.5 v -10 m 1,7.5 v -5 m 1,5 v -5 m 1,5 v -5 m 1,5 v -5 m 1,5 v -5 m 1,5 v -5 m 1,5 v -5 m 1,5 v -5 m 1,5 v -5 m 1,7.5 v -10 m 1,7.5 v -5 m 1,5 v -5 m 1,5 v -5 m 1,5 v -5 m 1,5 v -5 m 1,5 v -5 m 1,5 v -5 m 1,5 v -5 m 1,5 v -5 m 1,7.5 v -10 m 1,7.5 v -5 m 1,5 v -5 m 1,5 v -5 m 1,5 v -5 m 1,5 v -5 m 1,5 v -5 m 1,5 v -5 m 1,5 v -5 m 1,5 v -5 m 1,7.5 v -10 m 1,7.5 v -5 m 1,5 v -5 m 1,5 v -5 m 1,5 v -5 m 1,5 v -5 m 1,5 v -5 m 1,5 v -5 m 1,5 v -5 m 1,5 v -5 m 1,7.5 v -10 m 1,7.5 v -5 m 1,5 v -5 m 1,5 v -5 m 1,5 v -5 m 1,5 v -5 m 1,5 v -5 m 1,5 v -5 m 1,5 v -5 m 1,5 v -5 m 1,7.5 v -10 m 1,7.5 v -5 m 1,5 v -5 m 1,5 v -5 m 1,5 v -5 m 1,5 v -5 m 1,5 v -5 m 1,5 v -5 m 1,5 v -5 m 1,5 v -5 m 1,7.5 v -10 m 1,7.5 v -5 m 1,5 v -5 m 1,5 v -5 m 1,5 v -5 m 1,5 v -5 m 1,5 v -5 m 1,5 v -5 m 1,5 v -5 m 1,5 v -5 m 1,7.5 v -10 m 1,7.5 v -5 m -202.5,7.5 v -10 m 203,10 v -10"
       style="opacity:1;vector-effect:none;fill:none;fill-opacity:1;stroke:#000000;stroke-width:0.1;stroke-linecap:butt;stroke-linejoin:miter;stroke-miterlimit:4;stroke-dasharray:none;stroke-dashoffset:0;stroke-opacity:1" />
  </g>
</svg>
