<?xml version="1.0" encoding="UTF-8" standalone="no"?>
<!-- Created with Inkscape (http://www.inkscape.org/) -->

<svg
   xmlns:dc="http://purl.org/dc/elements/1.1/"
   xmlns:cc="http://creativecommons.org/ns#"
   xmlns:rdf="http://www.w3.org/1999/02/22-rdf-syntax-ns#"
   xmlns:svg="http://www.w3.org/2000/svg"
   xmlns="http://www.w3.org/2000/svg"
   xmlns:sodipodi="http://sodipodi.sourceforge.net/DTD/sodipodi-0.dtd"
   xmlns:inkscape="http://www.inkscape.org/namespaces/inkscape"
   width="203mm"
   height="152mm"
   viewBox="0 0 203 152"
   version="1.1"
   id="svg8"
   inkscape:version="0.92.4 (5da689c313, 2019-01-14)"
   sodipodi:docname="6R203x152mmTest.svg">
  <defs
     id="defs2">
    <inkscape:path-effect
       border_marks="both"
       mark_dir="left"
       offset="0"
       shift="0"
       major_mark_steps="5"
       minor_mark_length="2"
       mark_length="5"
       mark_distance="10"
       unit="mm"
       is_visible="true"
       id="path-effect836"
       effect="ruler" />
    <inkscape:path-effect
       border_marks="both"
       mark_dir="left"
       offset="0"
       shift="0"
       major_mark_steps="5"
       minor_mark_length="3"
       mark_length="5"
       mark_distance="10"
       unit="mm"
       is_visible="true"
       id="path-effect832"
       effect="ruler" />
    <inkscape:path-effect
       effect="ruler"
       id="path-effect828"
       is_visible="true"
       unit="mm"
       mark_distance="10"
       mark_length="5"
       minor_mark_length="3"
       major_mark_steps="5"
       shift="0"
       offset="0"
       mark_dir="left"
       border_marks="both" />
    <inkscape:path-effect
       effect="ruler"
       id="path-effect824"
       is_visible="true"
       unit="mm"
       mark_distance="10"
       mark_length="5"
       minor_mark_length="2"
       major_mark_steps="5"
       shift="0"
       offset="0"
       mark_dir="left"
       border_marks="both" />
    <inkscape:path-effect
       effect="ruler"
       id="path-effect818"
       is_visible="true"
       unit="px"
       mark_distance="20"
       mark_length="14"
       minor_mark_length="7"
       major_mark_steps="5"
       shift="0"
       offset="0"
       mark_dir="left"
       border_marks="both" />
  </defs>
  <sodipodi:namedview
     id="base"
     pagecolor="#ffffff"
     bordercolor="#666666"
     borderopacity="1.0"
     inkscape:pageopacity="0.0"
     inkscape:pageshadow="2"
     inkscape:zoom="0.98994949"
     inkscape:cx="276.11566"
     inkscape:cy="317.09941"
     inkscape:document-units="mm"
     inkscape:current-layer="layer1"
     showgrid="false"
     inkscape:window-width="1920"
     inkscape:window-height="1018"
     inkscape:window-x="-8"
     inkscape:window-y="-8"
     inkscape:window-maximized="1" />
  <metadata
     id="metadata5">
    <rdf:RDF>
      <cc:Work
         rdf:about="">
        <dc:format>image/svg+xml</dc:format>
        <dc:type
           rdf:resource="http://purl.org/dc/dcmitype/StillImage" />
        <dc:title></dc:title>
      </cc:Work>
    </rdf:RDF>
  </metadata>
  <g
     inkscape:label="Layer 1"
     inkscape:groupmode="layer"
     id="layer1"
     transform="translate(0,-145)">
    <rect
       style="opacity:0.475;vector-effect:none;fill:#ffffff;fill-opacity:1;fill-rule:nonzero;stroke:#000000;stroke-width:0.17007941;stroke-linecap:round;stroke-linejoin:miter;stroke-miterlimit:4;stroke-dasharray:none;stroke-dashoffset:0;stroke-opacity:1"
       id="rect820"
       width="9.8299208"
       height="9.8299208"
       x="96.585037"
       y="216.08504" />
    <path
       style="fill:none;stroke:#000000;stroke-width:0.33060485;stroke-linecap:butt;stroke-linejoin:miter;stroke-miterlimit:4;stroke-dasharray:none;stroke-opacity:1"
       d="m 0,154.8675 h 203 m -203,0 v -5 m 10,5 v -2 m 10,2 v -2 m 10,2 v -2 m 10,2 v -2 m 10,2 v -5 m 10,5 v -2 m 10,2 v -2 m 10,2 v -2 m 10,2 v -2 m 10,2 v -5 m 10,5 v -2 m 10,2 v -2 m 10,2 v -2 m 10,2 v -2 m 10,2 v -5 m 10,5 v -2 m 10,2 v -2 m 10,2 v -2 m 10,2 v -2 m 10,2 v -5 m 3,5 v -5"
       id="path822"
       inkscape:connector-curvature="0"
       inkscape:path-effect="#path-effect824"
       inkscape:original-d="M 0,154.8675 H 203" />
    <path
       style="fill:none;stroke:#000000;stroke-width:0.58378297;stroke-linecap:butt;stroke-linejoin:miter;stroke-miterlimit:4;stroke-dasharray:none;stroke-opacity:1"
       d="m 10.2,145.00001 v 152 m 0,-152 h 5 m -5,10 h 3 m -3,10 h 3 m -3,10 h 3 m -3,10 h 3 m -3,10 h 5 m -5,10 h 3 m -3,10 h 3 m -3,10 h 3 m -3,10 h 3 m -3,10 h 5 m -5,10 h 3 m -3,10 h 3 m -3,10 h 3 m -3,10 h 3 m -3,10 h 5 m -5,2 h 5"
       id="path826"
       inkscape:connector-curvature="0"
       inkscape:path-effect="#path-effect828"
       inkscape:original-d="m 10.2,145.00001 v 152"
       transform="matrix(1,0,0,-1,0,442)" />
    <path
       transform="matrix(1,0,0,-1,179.85569,442)"
       inkscape:original-d="m 10.2,145.00001 v 152"
       inkscape:path-effect="#path-effect832"
       inkscape:connector-curvature="0"
       id="path830"
       d="m 10.2,145.00001 v 152 m 0,-152 h 5 m -5,10 h 3 m -3,10 h 3 m -3,10 h 3 m -3,10 h 3 m -3,10 h 5 m -5,10 h 3 m -3,10 h 3 m -3,10 h 3 m -3,10 h 3 m -3,10 h 5 m -5,10 h 3 m -3,10 h 3 m -3,10 h 3 m -3,10 h 3 m -3,10 h 5 m -5,2 h 5"
       style="fill:none;stroke:#000000;stroke-width:0.58378297;stroke-linecap:butt;stroke-linejoin:miter;stroke-miterlimit:4;stroke-dasharray:none;stroke-opacity:1" />
    <path
       inkscape:original-d="M 0,154.8675 H 203"
       inkscape:path-effect="#path-effect836"
       inkscape:connector-curvature="0"
       id="path834"
       d="m 0,154.8675 h 203 m -203,0 v -5 m 10,5 v -2 m 10,2 v -2 m 10,2 v -2 m 10,2 v -2 m 10,2 v -5 m 10,5 v -2 m 10,2 v -2 m 10,2 v -2 m 10,2 v -2 m 10,2 v -5 m 10,5 v -2 m 10,2 v -2 m 10,2 v -2 m 10,2 v -2 m 10,2 v -5 m 10,5 v -2 m 10,2 v -2 m 10,2 v -2 m 10,2 v -2 m 10,2 v -5 m 3,5 v -5"
       style="fill:none;stroke:#000000;stroke-width:0.33060485;stroke-linecap:butt;stroke-linejoin:miter;stroke-miterlimit:4;stroke-dasharray:none;stroke-opacity:1"
       transform="translate(0,132.07906)" />
  </g>
</svg>
