<?xml version="1.0" encoding="UTF-8" standalone="no"?>
<!-- Created with Inkscape (http://www.inkscape.org/) -->

<svg
   xmlns:dc="http://purl.org/dc/elements/1.1/"
   xmlns:cc="http://creativecommons.org/ns#"
   xmlns:rdf="http://www.w3.org/1999/02/22-rdf-syntax-ns#"
   xmlns:svg="http://www.w3.org/2000/svg"
   xmlns="http://www.w3.org/2000/svg"
   xmlns:sodipodi="http://sodipodi.sourceforge.net/DTD/sodipodi-0.dtd"
   xmlns:inkscape="http://www.inkscape.org/namespaces/inkscape"
   width="210mm"
   height="297mm"
   viewBox="0 0 210 297"
   version="1.1"
   id="svg927"
   inkscape:version="0.92.4 (5da689c313, 2019-01-14)"
   sodipodi:docname="alpha12cm.svg">
  <defs
     id="defs921" />
  <sodipodi:namedview
     id="base"
     pagecolor="#ffffff"
     bordercolor="#666666"
     borderopacity="1.0"
     inkscape:pageopacity="0.0"
     inkscape:pageshadow="2"
     inkscape:zoom="0.7"
     inkscape:cx="117.6694"
     inkscape:cy="837.15934"
     inkscape:document-units="mm"
     inkscape:current-layer="layer1"
     showgrid="false"
     inkscape:window-width="1920"
     inkscape:window-height="1018"
     inkscape:window-x="-8"
     inkscape:window-y="-8"
     inkscape:window-maximized="1" />
  <metadata
     id="metadata924">
    <rdf:RDF>
      <cc:Work
         rdf:about="">
        <dc:format>image/svg+xml</dc:format>
        <dc:type
           rdf:resource="http://purl.org/dc/dcmitype/StillImage" />
        <dc:title></dc:title>
      </cc:Work>
    </rdf:RDF>
  </metadata>
  <g
     inkscape:label="Layer 1"
     inkscape:groupmode="layer"
     id="layer1">
    <g
       id="g16523"
       transform="matrix(0.12865424,0,0,-0.12865424,-8.4430808,124.7424)">
      <path
         inkscape:connector-curvature="0"
         id="path16525"
         style="fill:currentColor"
         d="M 788,916 H 958 L 855,453 C 835,365 821.33,311 814,291 840.67,168.33 879.33,107 930,107 c 60,0 91,41.33 93,124 h 36 C 1057,153.67 1042.8,91.17 1016.5,43.5 990.17,-4.167 955.67,-28 913,-28 877.67,-28 851.33,-13.667 834,15 816.67,43.667 798,102.33 778,191 708.67,45 595.33,-28 438,-28 330.67,-28 245.33,13.833 182,97.5 118.67,181.17 87,301 87,457 c 0,153.33 34.67,272.67 104,358 69.33,85.33 152.67,128 250,128 68.67,0 125,-24.33 169,-73 44,-48.67 83,-128 117,-238 z M 700,524 C 668.67,631.33 633.67,715.17 595,775.5 556.33,835.83 510,866 456,866 334,866 273,723.33 273,438 273,167.33 331.33,32 448,32 549.33,32 624.33,151.33 673,390 Z" />
    </g>
  </g>
</svg>
