<?xml version="1.0" encoding="UTF-8" standalone="no"?>
<!-- Created with Inkscape (http://www.inkscape.org/) -->

<svg
   xmlns:osb="http://www.openswatchbook.org/uri/2009/osb"
   xmlns:dc="http://purl.org/dc/elements/1.1/"
   xmlns:cc="http://creativecommons.org/ns#"
   xmlns:rdf="http://www.w3.org/1999/02/22-rdf-syntax-ns#"
   xmlns:svg="http://www.w3.org/2000/svg"
   xmlns="http://www.w3.org/2000/svg"
   xmlns:sodipodi="http://sodipodi.sourceforge.net/DTD/sodipodi-0.dtd"
   xmlns:inkscape="http://www.inkscape.org/namespaces/inkscape"
   width="1920mm"
   height="1080mm"
   viewBox="0 0 1920 1080"
   version="1.1"
   id="svg835"
   inkscape:version="0.92.4 (5da689c313, 2019-01-14)"
   sodipodi:docname="banner scroll.svg">
  <defs
     id="defs829">
    <linearGradient
       id="linearGradient2929"
       osb:paint="solid">
      <stop
         style="stop-color:#a41e27;stop-opacity:1;"
         offset="0"
         id="stop2927" />
    </linearGradient>
  </defs>
  <sodipodi:namedview
     id="base"
     pagecolor="#ffffff"
     bordercolor="#666666"
     borderopacity="1.0"
     inkscape:pageopacity="0.0"
     inkscape:pageshadow="2"
     inkscape:zoom="0.061871844"
     inkscape:cx="279.31377"
     inkscape:cy="3706.6284"
     inkscape:document-units="mm"
     inkscape:current-layer="layer1"
     showgrid="false"
     inkscape:window-width="1920"
     inkscape:window-height="1018"
     inkscape:window-x="-8"
     inkscape:window-y="-8"
     inkscape:window-maximized="1"
     inkscape:snap-bbox="false"
     inkscape:snap-nodes="true"
     inkscape:snap-smooth-nodes="true" />
  <metadata
     id="metadata832">
    <rdf:RDF>
      <cc:Work
         rdf:about="">
        <dc:format>image/svg+xml</dc:format>
        <dc:type
           rdf:resource="http://purl.org/dc/dcmitype/StillImage" />
        <dc:title></dc:title>
      </cc:Work>
    </rdf:RDF>
  </metadata>
  <g
     inkscape:label="Layer 1"
     inkscape:groupmode="layer"
     id="layer1"
     transform="translate(0,783)">
    <path
       inkscape:connector-curvature="0"
       id="path2935"
       style="font-style:normal;font-variant:normal;font-weight:normal;font-stretch:normal;font-size:52.77748108px;line-height:1.25;font-family:'Copperplate Gothic Bold';-inkscape-font-specification:'Copperplate Gothic Bold, ';letter-spacing:0px;word-spacing:0px;fill:#95783c;fill-opacity:1;stroke:#000000;stroke-width:3.91228509;stroke-opacity:0.99111173"
       d="m -1297.5348,-718.72692 -38.4351,-65.54916 v 64.0331 q 0,2.36877 1.0697,3.45065 1.0698,1.08189 3.8207,1.48419 v 2.44516 l -30.6412,4.03021 v -2.44515 q 2.7508,-1.12597 3.8206,-2.48925 1.0698,-1.36327 1.0698,-3.73204 v -88.33208 q 0,-2.29233 -1.0698,-3.37421 -1.0698,-1.08189 -3.8206,-1.48419 v -2.44519 l 40.1926,-5.28647 v 2.44518 q -3.5913,1.38928 -3.5913,4.67498 0,1.52822 1.0697,3.37424 l 28.4252,48.67975 28.8073,-55.29056 q 1.9103,-3.76618 1.9103,-5.37081 0,-3.13288 -3.8206,-3.01244 v -2.44518 l 39.4285,-5.18599 v 2.44518 q -2.7508,1.12592 -3.8206,2.48922 -1.0698,1.3633 -1.0698,3.65563 v 88.33205 q 0,2.36877 1.0698,3.45066 1.0698,1.08188 3.8206,1.48419 v 2.44515 l -32.5514,4.28148 v -2.44515 q 2.6744,-1.03951 3.7441,-2.40279 1.1462,-1.44973 1.1462,-3.8185 v -64.03313 z" />
    <path
       inkscape:connector-curvature="0"
       id="path2937"
       style="font-style:normal;font-variant:normal;font-weight:normal;font-stretch:normal;font-size:52.77748108px;line-height:1.25;font-family:'Copperplate Gothic Bold';-inkscape-font-specification:'Copperplate Gothic Bold, ';letter-spacing:0px;word-spacing:0px;fill:#95783c;fill-opacity:1;stroke:#000000;stroke-width:3.91228509;stroke-opacity:0.99111173"
       d="m -1149.241,-847.72231 q 27.279,-4.44507 43.2491,7.70011 16.887,12.68349 16.887,37.13527 0,14.97669 -8.0997,29.28652 -15.8172,27.94611 -51.8836,33.82306 -27.0498,4.40774 -43.0198,-7.73747 -8.5582,-6.47585 -12.9901,-16.757 -3.897,-9.06929 -3.897,-19.76693 0,-15.66441 8.0233,-29.96179 15.3588,-27.33654 51.7308,-33.72177 z m 0.076,17.63868 q -14.9003,2.42798 -24.8338,12.91041 -11.7675,12.38589 -11.7675,29.34932 0,16.96341 11.7675,25.51433 9.9335,7.24512 24.9866,4.79222 15.0531,-2.45286 24.9103,-12.92284 5.8837,-6.23116 9.0166,-14.3828 2.7508,-7.24891 2.7508,-14.50802 0,-17.72755 -11.7674,-25.97282 -10.01,-7.07984 -25.0631,-4.7798 z" />
    <path
       inkscape:connector-curvature="0"
       id="path2939"
       style="font-style:normal;font-variant:normal;font-weight:normal;font-stretch:normal;font-size:52.77748108px;line-height:1.25;font-family:'Copperplate Gothic Bold';-inkscape-font-specification:'Copperplate Gothic Bold, ';letter-spacing:0px;word-spacing:0px;fill:#95783c;fill-opacity:1;stroke:#000000;stroke-width:3.91228509;stroke-opacity:0.99111173"
       d="m -1042.1014,-802.95489 v 34.61457 q 0,2.29236 1.0698,3.34403 1.1462,0.95758 3.8206,1.02697 v 2.44515 l -32.5515,7.52594 v -2.44515 q 2.7509,-1.40013 3.8206,-2.87006 1.0698,-1.46987 1.0698,-3.76223 v -88.33211 q 0,-2.36874 -1.0698,-3.34402 -1.0697,-0.97526 -3.8206,-1.10335 v -2.44519 l 65.2557,-15.08722 q 11.92033,-2.75596 18.87373,-2.98822 7.0299,-0.24996 12.2259,1.98731 6.0366,2.57775 9.0166,8.68939 2.8273,5.91778 2.8273,13.40613 0,25.52156 -28.3488,36.43129 l 20.2491,24.12565 q 5.3488,6.32812 7.794,7.97877 2.5216,1.55654 6.113,0.95545 v 2.44515 l -37.7475,8.72723 v -2.44515 q 3.897,-1.51233 3.897,-3.65181 0,-1.37543 -3.5913,-5.8175 l -21.08973,-25.84162 z m 0,-17.19264 35.1495,-8.12661 q 7.79403,-1.80196 11.00333,-3.00248 3.2093,-1.20046 5.8837,-3.27058 5.8072,-4.47552 5.8072,-12.65159 0,-8.17607 -5.8072,-9.96632 -2.7509,-0.89224 -5.8837,-0.54997 -3.0565,0.24818 -11.00333,2.08548 l -35.1495,8.12662 z" />
    <path
       inkscape:connector-curvature="0"
       id="path2941"
       style="font-style:normal;font-variant:normal;font-weight:normal;font-stretch:normal;font-size:52.77748108px;line-height:1.25;font-family:'Copperplate Gothic Bold';-inkscape-font-specification:'Copperplate Gothic Bold, ';letter-spacing:0px;word-spacing:0px;fill:#95783c;fill-opacity:1;stroke:#000000;stroke-width:3.91228509;stroke-opacity:0.99111173"
       d="m -918.68067,-822.3348 v 28.57803 h 67.0896 q 2.2924,0 3.5149,-1.06978 1.2227,-1.06976 1.9868,-3.82059 h 2.4451 v 26.97329 h -2.4451 q -0.7641,-2.75083 -1.9868,-3.82059 -1.2225,-1.06978 -3.5149,-1.06978 h -94.7506 v -2.44513 q 2.7508,-0.76414 3.8206,-1.98671 1.0697,-1.22255 1.0697,-3.59132 v -88.25564 q 0,-2.36874 -1.0697,-3.59135 -1.0698,-1.22258 -3.8206,-1.98669 v -2.44518 h 92.9167 q 2.2924,0 3.515,-1.06979 1.2226,-1.14616 1.9867,-3.89699 h 2.4452 v 26.97337 h -2.4452 q -0.7641,-2.67442 -1.9867,-3.74417 -1.2226,-1.06978 -3.515,-1.06978 h -65.2557 v 24.75745 h 42.3322 q 2.2924,0 3.5149,-1.06979 1.2226,-1.06975 1.9867,-3.82058 h 2.4452 v 26.36208 h -2.4452 q -0.7641,-2.67441 -1.9867,-3.74417 -1.2225,-1.14619 -3.5149,-1.14619 z" />
    <rect
       style="opacity:1;vector-effect:none;fill:#bd222e;fill-opacity:1;fill-rule:nonzero;stroke:#dd8585;stroke-width:5.07200003;stroke-linecap:butt;stroke-linejoin:miter;stroke-miterlimit:4;stroke-dasharray:none;stroke-dashoffset:0;stroke-opacity:0.50196078"
       id="rect843"
       width="83.154762"
       height="49.892857"
       x="-428.78531"
       y="-1055.599" />
    <rect
       y="-972.44434"
       x="-431.05313"
       height="49.892857"
       width="83.154762"
       id="rect845"
       style="opacity:1;vector-effect:none;fill:#4900fe;fill-opacity:1;fill-rule:nonzero;stroke:#ed00ef;stroke-width:5.07200003;stroke-linecap:butt;stroke-linejoin:miter;stroke-miterlimit:4;stroke-dasharray:none;stroke-dashoffset:0;stroke-opacity:0.99111173" />
    <rect
       style="opacity:1;vector-effect:none;fill:#9bfff7;fill-opacity:1;fill-rule:nonzero;stroke:#be1c29;stroke-width:5.07200003;stroke-linecap:butt;stroke-linejoin:miter;stroke-miterlimit:4;stroke-dasharray:none;stroke-dashoffset:0;stroke-opacity:0.99111173"
       id="rect847"
       width="83.154762"
       height="49.892857"
       x="-433.32095"
       y="-1137.9979" />
    <rect
       y="-842.42059"
       x="-418.20206"
       height="49.892857"
       width="83.154762"
       id="rect849"
       style="opacity:1;vector-effect:none;fill:#95783c;fill-opacity:1;fill-rule:nonzero;stroke:#010100;stroke-width:5.07200003;stroke-linecap:butt;stroke-linejoin:miter;stroke-miterlimit:4;stroke-dasharray:none;stroke-dashoffset:0;stroke-opacity:1" />
    <g
       id="g987">
      <g
         transform="translate(-66.282843,96.21703)"
         id="g836">
        <path
           style="opacity:1;vector-effect:none;fill:#bd222e;fill-opacity:1;fill-rule:nonzero;stroke:#000000;stroke-width:3.42644262;stroke-linecap:butt;stroke-linejoin:miter;stroke-miterlimit:4;stroke-dasharray:none;stroke-dashoffset:0;stroke-opacity:0.99111173"
           d="m 717.35039,-602.77336 c -6.52896,0.0237 -13.13872,0.16308 -19.81901,0.41064 -71.25649,2.64031 -150.56783,17.49451 -226.8051,32.96978 -76.23727,15.47531 -149.39658,31.56954 -208.39978,36.67023 -14.08321,1.21745 -27.34917,1.80039 -39.67186,1.60582 v -0.0721 a 52.744245,45.390117 0 0 1 -6.33157,0.38461 52.744245,45.390117 0 0 1 -52.6056,-42.12814 v 31.05289 c -0.0386,-0.0178 -0.0789,-0.0341 -0.1175,-0.0522 v 200.32241 0.006 a 52.744241,45.390114 0 0 0 -0.37391,5.16067 52.744241,45.390114 0 0 0 52.7445,45.39036 52.744241,45.390114 0 0 0 1.82862,-0.0552 c 13.62308,0.46034 28.50291,-0.10259 44.43832,-1.48019 58.88798,-5.09066 132.03262,-21.17591 208.2805,-36.65335 76.24788,-15.47743 155.60001,-30.34809 226.97424,-32.99277 6.69131,-0.24788 13.31213,-0.38875 19.85463,-0.41218 35.7729,-0.12779 69.17995,3.24971 98.71944,11.69887 v -240.07262 c -29.49208,-8.47653 -62.89078,-11.88033 -98.71589,-11.75248 z"
           id="path1424"
           inkscape:connector-curvature="0" />
        <path
           style="opacity:0.81400003;vector-effect:none;fill:#bd222e;fill-opacity:1;fill-rule:nonzero;stroke:#000000;stroke-width:3.17860532;stroke-linecap:butt;stroke-linejoin:miter;stroke-miterlimit:4;stroke-dasharray:none;stroke-dashoffset:0;stroke-opacity:0.99111167"
           d="m 208.85814,-621.33645 a 45.390117,45.390117 0 0 0 -45.39033,45.39034 45.390117,45.390117 0 0 0 45.39033,45.39034 45.390117,45.390117 0 0 0 12.64273,-1.82189 v -87.12774 a 45.390117,45.390117 0 0 0 -12.64273,-1.83105 z"
           id="circle1456"
           inkscape:connector-curvature="0" />
      </g>
      <g
         transform="translate(-14.7664,630.75578)"
         id="g880">
        <path
           inkscape:connector-curvature="0"
           id="path851"
           d="m 1226.7522,-1137.3124 c 6.5289,0.024 13.1387,0.1631 19.819,0.4106 71.2565,2.6403 150.5678,17.4945 226.8051,32.9698 76.2372,15.4753 149.3965,31.5695 208.3997,36.6702 14.0833,1.2175 27.3492,1.8004 39.6719,1.6059 v -0.072 a 52.744245,45.390117 0 0 0 6.3316,0.3846 52.744245,45.390117 0 0 0 52.6056,-42.1282 v 31.0529 c 0.039,-0.018 0.079,-0.034 0.1175,-0.052 v 200.32243 0.006 a 52.744241,45.390114 0 0 1 0.3739,5.16067 52.744241,45.390114 0 0 1 -52.7445,45.39036 52.744241,45.390114 0 0 1 -1.8286,-0.0552 c -13.6231,0.46034 -28.5029,-0.10259 -44.4384,-1.48019 -58.8879,-5.09066 -132.0326,-21.17591 -208.2805,-36.65335 -76.2478,-15.47743 -155.6,-30.34809 -226.9742,-32.99277 -6.6913,-0.24788 -13.3121,-0.38875 -19.8546,-0.41218 -35.7729,-0.12779 -69.18,3.24971 -98.7195,11.69887 v -240.07264 c 29.4921,-8.4765 62.8908,-11.8803 98.7159,-11.7525 z"
           style="opacity:1;vector-effect:none;fill:#bd222e;fill-opacity:1;fill-rule:nonzero;stroke:#000000;stroke-width:3.42644262;stroke-linecap:butt;stroke-linejoin:miter;stroke-miterlimit:4;stroke-dasharray:none;stroke-dashoffset:0;stroke-opacity:0.99111173" />
        <path
           inkscape:connector-curvature="0"
           id="path853"
           d="m 1735.2444,-1155.8755 a 45.390117,45.390117 0 0 1 45.3903,45.3903 45.390117,45.390117 0 0 1 -45.3903,45.3904 45.390117,45.390117 0 0 1 -12.6427,-1.8219 v -87.1278 a 45.390117,45.390117 0 0 1 12.6427,-1.831 z"
           style="opacity:0.81400003;vector-effect:none;fill:#bd222e;fill-opacity:1;fill-rule:nonzero;stroke:#000000;stroke-width:3.17860532;stroke-linecap:butt;stroke-linejoin:miter;stroke-miterlimit:4;stroke-dasharray:none;stroke-dashoffset:0;stroke-opacity:0.99111173" />
      </g>
      <path
         inkscape:connector-curvature="0"
         id="ellipse844"
         d="m 749.78347,-494.29282 v 239.56264 a 181.74328,74.835463 0 0 0 181.74343,74.83522 181.74328,74.835463 0 0 0 181.7429,-74.83522 v -239.56264 a 181.74328,74.835463 0 0 1 -181.7429,74.83523 181.74328,74.835463 0 0 1 -181.74343,-74.83523 z"
         style="opacity:1;vector-effect:none;fill:#bd222e;fill-opacity:1;fill-rule:nonzero;stroke:#010000;stroke-width:3.27200007;stroke-linecap:butt;stroke-linejoin:miter;stroke-miterlimit:4;stroke-dasharray:none;stroke-dashoffset:0;stroke-opacity:1" />
    </g>
    <flowRoot
       xml:space="preserve"
       id="flowRoot890"
       style="fill:black;fill-opacity:1;stroke:none;font-family:sans-serif;font-style:normal;font-weight:normal;font-size:40px;line-height:1.25;letter-spacing:0px;word-spacing:0px"><flowRegion
         id="flowRegion892"><rect
           id="rect894"
           width="3297.1379"
           height="2262.7417"
           x="-8048.8955"
           y="-1381.0151" /></flowRegion><flowPara
         id="flowPara896" /></flowRoot>    <flowRoot
       xml:space="preserve"
       id="flowRoot898"
       style="fill:black;fill-opacity:1;stroke:none;font-family:sans-serif;font-style:normal;font-weight:normal;font-size:40px;line-height:1.25;letter-spacing:0px;word-spacing:0px"><flowRegion
         id="flowRegion900"><rect
           id="rect902"
           width="2650.6404"
           height="1551.5944"
           x="-5689.1792"
           y="396.85327" /></flowRegion><flowPara
         id="flowPara904" /></flowRoot>    <flowRoot
       xml:space="preserve"
       id="flowRoot849"
       style="fill:black;fill-opacity:1;stroke:none;font-family:sans-serif;font-style:normal;font-weight:normal;font-size:40px;line-height:1.25;letter-spacing:0px;word-spacing:0px"><flowRegion
         id="flowRegion851"><rect
           id="rect853"
           width="7143.7988"
           height="2230.4167"
           x="-12445.079"
           y="-766.84241" /></flowRegion><flowPara
         id="flowPara855"></flowPara></flowRoot>    <path
       inkscape:connector-curvature="0"
       id="path865"
       style="font-style:normal;font-variant:normal;font-weight:normal;font-stretch:normal;font-size:40px;line-height:1.25;font-family:'Mangarans II DEMO';-inkscape-font-specification:'Mangarans II DEMO';letter-spacing:0px;word-spacing:0px;fill:#95783c;fill-opacity:1;fill-rule:nonzero;stroke:#010100;stroke-width:2;stroke-miterlimit:4;stroke-dasharray:none;stroke-opacity:1"
       d="m -1681.5423,-1595.1341 v 0 q -6.22,3.5179 -7.859,10.7882 v 59.5698 q 1.639,7.2704 7.859,10.7883 h -7.859 -21.578 -7.8531 q 6.214,-3.5179 7.8531,-10.7883 v -59.5698 q -1.6391,-7.2703 -7.8531,-10.7882 6.214,-3.5179 7.8531,-10.7882 v -18.0586 l -32.3609,71.6479 -32.4871,-71.6479 v 18.0586 q 1.6451,7.2703 7.8591,10.7882 -6.214,3.5179 -7.8591,10.7882 v 59.5698 q 1.6451,7.2704 7.8591,10.7883 h -7.8591 -21.5719 -7.8591 q 6.214,-3.5179 7.8591,-10.7883 v -59.5698 q -1.6451,-7.2703 -7.8591,-10.7882 6.214,-3.5179 7.8591,-10.7882 v -59.6871 q -1.6451,-7.2703 -7.8591,-10.7882 h 7.8591 21.5719 7.8591 q -3.6323,1.8762 -5.5115,5.1596 l 30.1395,66.4883 30.0194,-66.4883 q -1.8792,-3.2834 -5.5116,-5.1596 h 7.8531 21.578 7.859 q -6.22,3.5179 -7.859,10.7882 v 59.6871 q 1.639,7.2703 7.859,10.7882 z m -103.3148,6.0977 v 0 q 1.9993,-3.9869 6.0999,-6.0977 -4.1006,-2.228 -6.0999,-6.0977 v -4.6905 l -1.7531,-48.7816 -1.7592,48.7816 v 4.6905 q -1.9933,3.8697 -6.0999,6.0977 4.1066,2.1108 6.0999,6.0977 v 4.6905 l 1.7592,48.7816 1.7531,-48.7816 z m 20.5213,-29.6676 v 0 l 18.1797,34.9445 -15.478,-36.1172 -18.1797,-34.8272 z m 39.5175,0 v 0 l 15.4841,-35.9999 -18.1798,34.8272 -15.478,36.1172 z m 26.5072,29.6676 v 0 q 1.8732,-3.9869 5.9799,-6.0977 -4.1067,-2.228 -5.9799,-6.0977 v -4.6905 l -1.8792,-48.7816 -1.7592,48.7816 v 4.6905 q -1.8732,3.8697 -6.0999,6.0977 4.2267,2.1108 6.0999,6.0977 v 4.6905 l 1.7592,48.7816 1.8792,-48.7816 z" />
    <path
       inkscape:connector-curvature="0"
       id="path867"
       style="font-style:normal;font-variant:normal;font-weight:normal;font-stretch:normal;font-size:40px;line-height:1.25;font-family:'Mangarans II DEMO';-inkscape-font-specification:'Mangarans II DEMO';letter-spacing:0px;word-spacing:0px;fill:#95783c;fill-opacity:1;fill-rule:nonzero;stroke:#010100;stroke-width:2;stroke-miterlimit:4;stroke-dasharray:none;stroke-opacity:1"
       d="m -1603.0955,-1605.9223 v 0 q 1.6391,7.2703 7.8591,10.7882 -6.22,3.5179 -7.8591,10.7882 v 37.9934 q 0,13.368 -9.4981,22.8663 -9.4982,9.4984 -22.8688,9.4984 -13.4848,0 -22.9829,-9.4984 -9.4982,-9.4983 -9.4982,-22.8663 v -37.9934 q -1.639,-7.2703 -7.853,-10.7882 6.214,-3.5179 7.853,-10.7882 v -37.9933 q 0,-13.4853 9.4982,-22.9837 9.4981,-9.4983 22.9829,-9.4983 13.3706,0 22.8688,9.4983 9.4981,9.4984 9.4981,22.9837 z m -51.1291,76.2212 v 0 q 1.4109,1.9935 5.3975,4.2215 3.9866,2.1107 9.9665,1.2899 -7.625,-0.7036 -12.0799,-6.5668 -4.3348,-5.8632 -4.3348,-13.1335 v 0 -39.9868 -0.4691 -4.6905 q 1.8732,-3.9869 5.9799,-6.0977 -4.1067,-2.228 -5.9799,-6.0977 v -4.2215 -0.469 -39.9868 0 q 0,-7.3876 4.3348,-13.1335 4.4549,-5.8632 12.0799,-6.5668 -5.9799,-0.8208 -9.9665,1.4072 -3.9866,2.1107 -5.3975,4.1042 -2.3415,3.1661 -3.5183,7.0358 -1.1707,3.7524 -1.1707,7.1531 v 0 39.9868 0.469 4.2215 q -1.8732,3.8697 -6.1,6.0977 4.2268,2.1108 6.1,6.0977 v 4.6905 0.4691 39.9868 0 q 0,3.4006 1.1707,7.1531 1.1768,3.7524 3.5183,7.0358 z m 7.8591,-16.6514 v 0 q 0,4.456 3.164,7.6221 3.1701,3.1661 7.7391,3.1661 4.4548,0 7.6249,-3.1661 3.164,-3.1661 3.164,-7.6221 v -37.9934 q -1.639,-7.2703 -7.853,-10.7882 6.214,-3.5179 7.853,-10.7882 v -37.9933 q 0,-4.4561 -3.164,-7.6222 -3.1701,-3.1661 -7.6249,-3.1661 -4.569,0 -7.7391,3.1661 -3.164,3.1661 -3.164,7.6222 v 37.9933 q 1.6391,7.2703 7.8531,10.7882 -6.214,3.5179 -7.8531,10.7882 z m 34.2402,-42.6839 v 0 q 1.9932,-3.9869 6.0999,-6.0977 -4.1067,-2.228 -6.0999,-6.0977 v -4.2215 -0.469 -39.9868 0 q 0,-3.4007 -1.1708,-7.1531 -1.0567,-3.8697 -3.5183,-7.0358 -1.2908,-1.9935 -5.3975,-4.1042 -3.9865,-2.228 -9.9664,-1.4072 7.6249,0.7036 11.9597,6.5668 4.4609,5.7459 4.575,13.1335 v 0 39.9868 0.469 4.2215 q -1.9933,3.8697 -6.1,6.0977 4.1067,2.1108 6.1,6.0977 v 4.6905 0.4691 39.9868 0 q -0.1201,7.2703 -4.575,13.1335 -4.3348,5.8632 -11.9597,6.5668 5.9799,0.8208 9.9664,-1.2899 4.1067,-2.228 5.3975,-4.2215 2.4616,-3.2834 3.5183,-7.0358 1.1708,-3.7525 1.1708,-7.1531 v 0 -39.9868 -0.4691 z" />
    <path
       inkscape:connector-curvature="0"
       id="path869"
       style="font-style:normal;font-variant:normal;font-weight:normal;font-stretch:normal;font-size:40px;line-height:1.25;font-family:'Mangarans II DEMO';-inkscape-font-specification:'Mangarans II DEMO';letter-spacing:0px;word-spacing:0px;fill:#95783c;fill-opacity:1;fill-rule:nonzero;stroke:#010100;stroke-width:2;stroke-miterlimit:4;stroke-dasharray:none;stroke-opacity:1"
       d="m -1514.9164,-1524.7761 v 0 q 1.645,7.2704 7.8591,10.7883 h -7.8591 -21.572 -7.8591 q 6.2141,-3.5179 7.8591,-10.7883 v -48.7815 q 0,-4.456 -3.1701,-7.5049 -3.0439,-3.1661 -7.6189,-3.2834 v 0 h -10.909 v 59.5698 q 1.645,7.2704 7.859,10.7883 h -7.859 -21.572 -7.8591 q 6.214,-3.5179 7.8591,-10.7883 v -59.5698 q -1.6451,-7.2703 -7.8591,-10.7882 6.214,-3.5179 7.8591,-10.7882 v -59.6871 q -1.6451,-7.2703 -7.8591,-10.7882 h 7.8591 5.0373 5.0432 11.4915 10.909 q 13.3647,0 22.8628,9.4983 9.4982,9.4984 9.4982,22.9837 0,10.9054 0,12.7817 0,0 0,0.3518 0,0.3517 0,1.1726 0,2.697 0,12.7817 0,12.5472 -8.2073,21.6937 8.2073,9.1466 8.2073,21.5765 z m -52.1798,-64.2603 v 0 q 1.8792,-3.9869 5.9799,-6.0977 -4.1007,-2.228 -5.9799,-6.0977 v -4.6905 l -1.8732,-48.7816 -1.7592,48.7816 v 4.6905 q -1.8792,3.8697 -6.0999,6.0977 4.2207,2.1108 6.0999,6.0977 v 4.6905 l 1.7592,48.7816 1.8732,-48.7816 z m 19.8188,-16.8859 v 0 0 q 4.4549,0 7.6189,-3.1661 3.1701,-3.1661 3.1701,-7.7394 0,-10.9055 0,-12.7817 0,-0.8209 0,-1.1726 0,-0.3518 0,-0.3518 0,-2.6971 0,-12.7817 0,-4.4561 -3.1701,-7.6222 -3.164,-3.1661 -7.6189,-3.1661 h -10.909 q 0,24.3908 0,48.7816 z m 21.578,70.358 v 0 l 1.519,-42.8011 v -0.1173 -0.1172 -0.1173 0 -0.1173 0 -0.1172 l -0.1201,-0.1173 v -0.1173 0 0 -0.1172 -0.1173 -0.1172 0 l -0.1201,-0.1173 v 0 -0.1173 -0.1172 0 -0.1173 0 -0.1173 l -0.12,-0.1172 v 0 -0.1173 0 -0.2345 0 0 l -0.1201,-0.1173 v 0 -0.2345 0 -0.1173 h -0.1201 q 0,-0.2345 0,-0.3517 v 0 l -0.1201,-0.1173 v 0 -0.1173 -0.1172 -0.1173 0 l -0.1201,-0.1173 v -0.1172 0 -0.1173 0 l -0.12,-0.2345 v -0.1173 0 l -0.1201,-0.1172 v 0 -0.1173 -0.1173 0 l -0.1201,-0.1172 v -0.1173 0 -0.1172 0 l -0.1201,-0.1173 v -0.2345 l -0.12,-0.1173 v 0 -0.1173 0 l -0.1201,-0.1172 v -0.1173 0 l -0.1201,-0.2345 v 0 -0.1173 0 l -0.1201,-0.1172 v 0 -0.1173 h -0.1201 v -0.1173 -0.2345 l -0.12,-0.1173 v -0.1172 h -0.1201 v -0.1173 0 l -0.1201,-0.1172 v -0.1173 -0.1173 0 q -0.2401,-0.2345 -0.3602,-0.469 v 0 -0.1173 -0.1173 l -0.1201,-0.1172 v 0 l -0.1201,-0.1173 v 0 -0.1172 0 l -0.1201,-0.1173 v 0 l -0.12,-0.1173 v -0.1172 -0.1173 h -0.1201 v -0.1173 h -0.1201 v -0.1172 -0.1173 0 q -0.6004,-0.7036 -1.0567,-1.5244 -1.4109,-1.8762 -5.3975,-3.987 -3.9865,-2.228 -9.9664,-1.5244 7.1566,0.7036 11.6115,6.0977 4.4549,5.2769 5.0433,12.3127 l 0.12,1.4071 v 0 z m 1.8732,-107.765 v 0 -2.5798 q 0,-7.3876 -4.689,-14.1889 -1.4109,-1.9935 -5.3975,-4.1042 -3.9866,-2.228 -9.9665,-1.4072 7.625,0.7036 11.9598,6.5668 4.3408,5.7459 4.4609,13.1335 v 0 2.5798 10.7882 17.5895 0 q -0.1201,7.3876 -4.4609,13.2508 -4.3348,5.7459 -11.9598,6.5667 5.9799,0.7036 9.9665,-1.4071 3.9866,-2.228 5.3975,-4.2215 4.689,-6.8013 4.689,-14.1889 v -17.5895 z" />
    <path
       inkscape:connector-curvature="0"
       id="path871"
       style="font-style:normal;font-variant:normal;font-weight:normal;font-stretch:normal;font-size:40px;line-height:1.25;font-family:'Mangarans II DEMO';-inkscape-font-specification:'Mangarans II DEMO';letter-spacing:0px;word-spacing:0px;fill:#95783c;fill-opacity:1;fill-rule:nonzero;stroke:#010100;stroke-width:2;stroke-miterlimit:4;stroke-dasharray:none;stroke-opacity:1"
       d="m -1426.7314,-1654.7039 v 0 h -43.27 v 48.7816 h 21.578 v 21.5764 h -21.578 v 48.7816 h 43.27 v 21.5765 h -43.27 -21.5779 -7.8531 q 6.214,-3.5179 7.8531,-10.7883 v -59.5698 q -1.6391,-7.2703 -7.8531,-10.7882 6.214,-3.5179 7.8531,-10.7882 v -59.6871 q -1.6391,-7.2703 -7.8531,-10.7882 h 7.8531 21.5779 43.27 z m -52.2998,65.6675 v 0 q 1.8732,-3.9869 6.0999,-6.0977 -4.2267,-2.228 -6.0999,-6.0977 v -4.6905 l -1.7591,-48.7816 -1.8733,48.7816 v 4.6905 q -1.8792,3.8697 -5.9858,6.0977 4.1066,2.1108 5.9858,6.0977 v 4.6905 l 1.8733,48.7816 1.7591,-48.7816 z" />
    <path
       inkscape:connector-curvature="0"
       id="path873"
       style="font-style:normal;font-variant:normal;font-weight:normal;font-stretch:normal;font-size:40px;line-height:1.25;font-family:'Mangarans II DEMO';-inkscape-font-specification:'Mangarans II DEMO';letter-spacing:0px;word-spacing:0px;fill:#95783c;fill-opacity:1;fill-rule:nonzero;stroke:#010100;stroke-width:2;stroke-miterlimit:4;stroke-dasharray:none;stroke-opacity:1"
       d="m -1285.0757,-1605.9223 v 0 q 1.639,7.2703 7.8531,10.7882 -6.2141,3.5179 -7.8531,10.7882 v 37.9934 q 0,13.368 -9.4982,22.8663 -9.4981,9.4984 -22.8688,9.4984 -13.4847,0 -22.9828,-9.4984 -9.4982,-9.4983 -9.4982,-22.8663 v -37.9934 q -1.645,-7.2703 -7.8591,-10.7882 6.2141,-3.5179 7.8591,-10.7882 v -37.9933 q 0,-13.4853 9.4982,-22.9837 9.4981,-9.4983 22.9828,-9.4983 13.3707,0 22.8688,9.4983 9.4982,9.4984 9.4982,22.9837 z m -51.1291,76.2212 v 0 q 1.4049,1.9935 5.3915,4.2215 3.9926,2.1107 9.9724,1.2899 -7.6249,-0.7036 -12.0798,-6.5668 -4.3408,-5.8632 -4.3408,-13.1335 v 0 -39.9868 -0.4691 -4.6905 q 1.8792,-3.9869 5.9799,-6.0977 -4.1007,-2.228 -5.9799,-6.0977 v -4.2215 -0.469 -39.9868 0 q 0,-7.3876 4.3408,-13.1335 4.4549,-5.8632 12.0798,-6.5668 -5.9798,-0.8208 -9.9724,1.4072 -3.9866,2.1107 -5.3915,4.1042 -2.3475,3.1661 -3.5183,7.0358 -1.1707,3.7524 -1.1707,7.1531 v 0 39.9868 0.469 4.2215 q -1.8792,3.8697 -6.1,6.0977 4.2208,2.1108 6.1,6.0977 v 4.6905 0.4691 39.9868 0 q 0,3.4006 1.1707,7.1531 1.1708,3.7524 3.5183,7.0358 z m 7.8591,-16.6514 v 0 q 0,4.456 3.164,7.6221 3.1641,3.1661 7.739,3.1661 4.4549,0 7.625,-3.1661 3.164,-3.1661 3.164,-7.6221 v -37.9934 q -1.645,-7.2703 -7.8591,-10.7882 6.2141,-3.5179 7.8591,-10.7882 v -37.9933 q 0,-4.4561 -3.164,-7.6222 -3.1701,-3.1661 -7.625,-3.1661 -4.5749,0 -7.739,3.1661 -3.164,3.1661 -3.164,7.6222 v 37.9933 q 1.6391,7.2703 7.8531,10.7882 -6.214,3.5179 -7.8531,10.7882 z m 34.2401,-42.6839 v 0 q 1.9933,-3.9869 6.094,-6.0977 -4.1007,-2.228 -6.094,-6.0977 v -4.2215 -0.469 -39.9868 0 q 0,-3.4007 -1.1767,-7.1531 -1.0507,-3.8697 -3.5123,-7.0358 -1.2908,-1.9935 -5.3975,-4.1042 -3.9866,-2.228 -9.9664,-1.4072 7.6189,0.7036 11.9597,6.5668 4.4549,5.7459 4.575,13.1335 v 0 39.9868 0.469 4.2215 q -1.9933,3.8697 -6.1,6.0977 4.1067,2.1108 6.1,6.0977 v 4.6905 0.4691 39.9868 0 q -0.1201,7.2703 -4.575,13.1335 -4.3408,5.8632 -11.9597,6.5668 5.9798,0.8208 9.9664,-1.2899 4.1067,-2.228 5.3975,-4.2215 2.4616,-3.2834 3.5123,-7.0358 1.1767,-3.7525 1.1767,-7.1531 v 0 -39.9868 -0.4691 z" />
    <path
       inkscape:connector-curvature="0"
       id="path875"
       style="font-style:normal;font-variant:normal;font-weight:normal;font-stretch:normal;font-size:40px;line-height:1.25;font-family:'Mangarans II DEMO';-inkscape-font-specification:'Mangarans II DEMO';letter-spacing:0px;word-spacing:0px;fill:#95783c;fill-opacity:1;fill-rule:nonzero;stroke:#010100;stroke-width:2;stroke-miterlimit:4;stroke-dasharray:none;stroke-opacity:1"
       d="m -1196.8967,-1524.7761 v 0 q 1.6451,7.2704 7.8591,10.7883 h -7.8591 -21.5779 -7.8531 q 6.214,-3.5179 7.8531,-10.7883 v -48.7815 q 0,-4.456 -3.1641,-7.5049 -3.0499,-3.1661 -7.6189,-3.2834 v 0 h -10.9091 v 59.5698 q 1.6451,7.2704 7.8591,10.7883 h -7.8591 -21.5779 -7.8531 q 6.214,-3.5179 7.8531,-10.7883 v -59.5698 q -1.6391,-7.2703 -7.8531,-10.7882 6.214,-3.5179 7.8531,-10.7882 v -59.6871 q -1.6391,-7.2703 -7.8531,-10.7882 h 7.8531 5.0432 5.0433 11.4914 10.9091 q 13.3646,0 22.8628,9.4983 9.4981,9.4984 9.4981,22.9837 0,10.9054 0,12.7817 0,0 0,0.3518 0,0.3517 0,1.1726 0,2.697 0,12.7817 0,12.5472 -8.2073,21.6937 8.2073,9.1466 8.2073,21.5765 z m -52.1797,-64.2603 v 0 q 1.8732,-3.9869 5.9798,-6.0977 -4.1066,-2.228 -5.9798,-6.0977 v -4.6905 l -1.8792,-48.7816 -1.7592,48.7816 v 4.6905 q -1.8732,3.8697 -6.0939,6.0977 4.2207,2.1108 6.0939,6.0977 v 4.6905 l 1.7592,48.7816 1.8792,-48.7816 z m 19.8188,-16.8859 v 0 0 q 4.4549,0 7.6189,-3.1661 3.1641,-3.1661 3.1641,-7.7394 0,-10.9055 0,-12.7817 0,-0.8209 0,-1.1726 0,-0.3518 0,-0.3518 0,-2.6971 0,-12.7817 0,-4.4561 -3.1641,-7.6222 -3.164,-3.1661 -7.6189,-3.1661 h -10.9091 q 0,24.3908 0,48.7816 z m 21.572,70.358 v 0 l 1.5249,-42.8011 v -0.1173 -0.1172 -0.1173 0 -0.1173 0 -0.1172 l -0.12,-0.1173 v -0.1173 0 0 -0.1172 -0.1173 -0.1172 0 l -0.1201,-0.1173 v 0 -0.1173 -0.1172 0 -0.1173 0 -0.1173 l -0.1201,-0.1172 v 0 -0.1173 0 -0.2345 0 0 l -0.1201,-0.1173 v 0 -0.2345 0 -0.1173 h -0.12 q 0,-0.2345 0,-0.3517 v 0 l -0.1201,-0.1173 v 0 -0.1173 -0.1172 -0.1173 0 l -0.1201,-0.1173 v -0.1172 0 -0.1173 0 l -0.1201,-0.2345 v -0.1173 0 l -0.1201,-0.1172 v 0 -0.1173 -0.1173 0 l -0.12,-0.1172 v -0.1173 0 -0.1172 0 l -0.1201,-0.1173 v -0.2345 l -0.1201,-0.1173 v 0 -0.1173 0 l -0.1201,-0.1172 v -0.1173 0 l -0.12,-0.2345 v 0 -0.1173 0 l -0.1201,-0.1172 v 0 -0.1173 h -0.1201 v -0.1173 -0.2345 l -0.1201,-0.1173 v -0.1172 h -0.1201 v -0.1173 0 l -0.12,-0.1172 v -0.1173 -0.1173 0 q -0.2402,-0.2345 -0.3603,-0.469 v 0 -0.1173 -0.1173 l -0.12,-0.1172 v 0 l -0.1201,-0.1173 v 0 -0.1172 0 l -0.1201,-0.1173 v 0 l -0.1201,-0.1173 v -0.1172 -0.1173 h -0.1201 v -0.1173 h -0.12 v -0.1172 -0.1173 0 q -0.6004,-0.7036 -1.0507,-1.5244 -1.4109,-1.8762 -5.3975,-3.987 -3.9866,-2.228 -9.9665,-1.5244 7.1507,0.7036 11.6116,6.0977 4.4548,5.2769 5.0372,12.3127 l 0.1201,1.4071 v 0 z m 1.8792,-107.765 v 0 -2.5798 q 0,-7.3876 -4.6891,-14.1889 -1.4109,-1.9935 -5.3975,-4.1042 -3.9865,-2.228 -9.9664,-1.4072 7.6189,0.7036 11.9597,6.5668 4.3408,5.7459 4.4549,13.1335 v 0 2.5798 10.7882 17.5895 0 q -0.1201,7.3876 -4.4549,13.2508 -4.3408,5.7459 -11.9597,6.5667 5.9799,0.7036 9.9664,-1.4071 3.9866,-2.228 5.3975,-4.2215 4.6891,-6.8013 4.6891,-14.1889 v -17.5895 z" />
    <path
       inkscape:connector-curvature="0"
       id="path877"
       style="font-style:normal;font-variant:normal;font-weight:normal;font-stretch:normal;font-size:40px;line-height:1.25;font-family:'Mangarans II DEMO';-inkscape-font-specification:'Mangarans II DEMO';letter-spacing:0px;word-spacing:0px;fill:#95783c;fill-opacity:1;fill-rule:nonzero;stroke:#010100;stroke-width:2;stroke-miterlimit:4;stroke-dasharray:none;stroke-opacity:1"
       d="m -1092.4111,-1535.5643 v 0 h 43.27 v 21.5765 h -43.27 -21.5779 v -21.5765 -48.7816 q -1.6451,-7.2703 -7.8591,-10.7882 6.214,-3.5179 7.8591,-10.7882 v -59.6871 q -1.6451,-7.2703 -7.8591,-10.7882 h 7.8591 21.5779 7.8531 q -6.214,3.5179 -7.8531,10.7882 v 59.6871 q 1.6391,7.2703 7.8531,10.7882 -6.214,3.5179 -7.8531,10.7882 z m -9.0298,-53.4721 v 0 q 1.8732,-3.9869 6.0939,-6.0977 -4.2207,-2.228 -6.0939,-6.0977 v -4.6905 l -1.7591,-48.7816 -1.8793,48.7816 v 4.6905 q -1.8732,3.8697 -5.9798,6.0977 4.1066,2.1108 5.9798,6.0977 v 4.6905 l 1.8793,48.7816 1.7591,-48.7816 z" />
    <path
       inkscape:connector-curvature="0"
       id="path879"
       style="font-style:normal;font-variant:normal;font-weight:normal;font-stretch:normal;font-size:40px;line-height:1.25;font-family:'Mangarans II DEMO';-inkscape-font-specification:'Mangarans II DEMO';letter-spacing:0px;word-spacing:0px;fill:#95783c;fill-opacity:1;fill-rule:nonzero;stroke:#010100;stroke-width:2;stroke-miterlimit:4;stroke-dasharray:none;stroke-opacity:1"
       d="m -967.06196,-1654.7039 v 0 h -43.27004 v 48.7816 h 21.578 v 21.5764 h -21.578 v 48.7816 h 43.27004 v 21.5765 h -43.27004 -21.5719 -7.8591 q 6.214,-3.5179 7.8591,-10.7883 v -59.5698 q -1.6451,-7.2703 -7.8591,-10.7882 6.214,-3.5179 7.8591,-10.7882 v -59.6871 q -1.6451,-7.2703 -7.8591,-10.7882 h 7.8591 21.5719 43.27004 z m -52.29984,65.6675 v 0 q 1.8792,-3.9869 6.0999,-6.0977 -4.2207,-2.228 -6.0999,-6.0977 v -4.6905 l -1.7531,-48.7816 -1.8793,48.7816 v 4.6905 q -1.8732,3.8697 -5.9798,6.0977 4.1066,2.1108 5.9798,6.0977 v 4.6905 l 1.8793,48.7816 1.7531,-48.7816 z" />
    <path
       inkscape:connector-curvature="0"
       id="path881"
       style="font-style:normal;font-variant:normal;font-weight:normal;font-stretch:normal;font-size:40px;line-height:1.25;font-family:'Mangarans II DEMO';-inkscape-font-specification:'Mangarans II DEMO';letter-spacing:0px;word-spacing:0px;fill:#95783c;fill-opacity:1;fill-rule:nonzero;stroke:#010100;stroke-width:2;stroke-miterlimit:4;stroke-dasharray:none;stroke-opacity:1"
       d="m -884.97685,-1605.9223 v 0 q 1.64506,7.2703 7.85908,10.7882 -6.21402,3.5179 -7.85908,10.7882 v 37.9934 q 0,0 0,0.1172 0,0 0,0 v 32.2475 h -32.36094 q -13.48472,0 -22.98287,-9.4984 -9.49815,-9.4983 -9.49815,-22.8663 0,-13.6026 0,-27.2051 h 10.78298 10.78898 q 0,13.6025 0,27.2051 0,4.456 3.17005,7.6221 3.16405,3.1661 7.73901,3.1661 4.45488,0 7.61893,-3.1661 3.17005,-3.1661 3.17005,-7.6221 v -36.8207 -1.1727 q -16.30055,0 -32.48702,0 1.64507,-7.2703 7.85909,-10.7882 -4.10666,-2.228 -5.97987,-6.0977 v -4.6905 l -1.87922,-48.7816 -1.75914,48.7816 v 4.6905 q -1.87321,3.8697 -6.09394,6.0977 6.21402,3.5179 7.85308,10.7882 -5.39149,0 -10.78298,0 -1.64506,-7.2703 -7.85908,-10.7882 6.21402,-3.5179 7.85908,-10.7882 v -24.6253 -13.368 -21.6938 q -1.64506,-7.2703 -7.85908,-10.7882 h 7.85908 32.48102 q 13.36465,0 22.86279,9.4983 9.49815,9.4984 9.49815,22.9837 v 6.5667 9.7329 q 0,0.1172 0,0.3518 v 10.4364 h -10.78898 -10.78298 v -10.7882 -9.7329 -6.5667 q 0,-4.4561 -3.17005,-7.6222 -3.16405,-3.1661 -7.61893,-3.1661 -4.57496,0 -7.73901,3.1661 -3.17005,3.1661 -3.17005,7.6222 v 36.8207 1.1726 h 32.48102 q -1.63906,7.2703 -7.85308,10.7882 4.10065,2.1108 6.09394,6.0977 v 4.6905 l 1.75914,48.7816 1.75913,-48.7816 v -4.6905 q 1.99329,-3.9869 6.09995,-6.0977 -6.21402,-3.5179 -7.85908,-10.7882 z m -13.71888,-54.1757 v 0 q -1.29083,-1.9935 -5.39149,-4.1042 -3.98658,-2.228 -9.96645,-1.4072 7.61893,0.7036 11.95974,6.5668 4.45488,5.7459 4.56896,13.1335 v 0 19.583 h 3.51827 v -19.583 0 q 0,-3.4007 -1.17075,-7.1531 -1.05669,-3.8697 -3.51828,-7.0358 z m -37.4042,130.3969 v 0 q 1.29084,1.9935 5.27742,4.2215 4.10065,2.1107 10.08052,1.2899 -7.61893,-0.7036 -12.07381,-6.5668 -4.34081,-5.8632 -4.34081,-13.1335 v -20.1693 h -3.63836 v 20.1693 0 q 0,3.4006 1.05669,7.1531 1.17676,3.7524 3.63835,7.0358 z" />
    <path
       inkscape:connector-curvature="0"
       id="path883"
       style="font-style:normal;font-variant:normal;font-weight:normal;font-stretch:normal;font-size:40px;line-height:1.25;font-family:'Mangarans II DEMO';-inkscape-font-specification:'Mangarans II DEMO';letter-spacing:0px;word-spacing:0px;fill:#95783c;fill-opacity:1;fill-rule:nonzero;stroke:#010100;stroke-width:2;stroke-miterlimit:4;stroke-dasharray:none;stroke-opacity:1"
       d="m -796.7918,-1605.9223 v 0 q 1.63906,7.2703 7.85308,10.7882 -6.21402,3.5179 -7.85308,10.7882 v 37.9934 q 0,0 0,0.1172 0,0 0,0 v 32.2475 h -32.36694 q -13.48472,0 -22.98287,-9.4984 -9.49814,-9.4983 -9.49814,-22.8663 0,-13.6026 0,-27.2051 h 10.78898 10.78898 q 0,13.6025 0,27.2051 0,4.456 3.16404,7.6221 3.16405,3.1661 7.73901,3.1661 4.45488,0 7.62493,-3.1661 3.16405,-3.1661 3.16405,-7.6221 v -36.8207 -1.1727 q -16.30055,0 -32.48101,0 1.63906,-7.2703 7.85308,-10.7882 -4.10066,-2.228 -5.97987,-6.0977 v -4.6905 l -1.87321,-48.7816 -1.75914,48.7816 v 4.6905 q -1.87922,3.8697 -6.09995,6.0977 6.21402,3.5179 7.85909,10.7882 -5.3975,0 -10.78898,0 -1.63907,-7.2703 -7.85909,-10.7882 6.22002,-3.5179 7.85909,-10.7882 v -24.6253 -13.368 -21.6938 q -1.63907,-7.2703 -7.85909,-10.7882 h 7.85909 32.48101 q 13.37065,0 22.8688,9.4983 9.49814,9.4984 9.49814,22.9837 v 6.5667 9.7329 q 0,0.1172 0,0.3518 v 10.4364 h -10.78898 -10.78898 v -10.7882 -9.7329 -6.5667 q 0,-4.4561 -3.16405,-7.6222 -3.17005,-3.1661 -7.62493,-3.1661 -4.57496,0 -7.73901,3.1661 -3.16404,3.1661 -3.16404,7.6222 v 36.8207 1.1726 h 32.48101 q -1.64506,7.2703 -7.85908,10.7882 4.10665,2.1108 6.09994,6.0977 v 4.6905 l 1.75914,48.7816 1.75914,-48.7816 v -4.6905 q 1.99329,-3.9869 6.09994,-6.0977 -6.22002,-3.5179 -7.85908,-10.7882 z m -13.71888,-54.1757 v 0 q -1.29083,-1.9935 -5.39749,-4.1042 -3.98658,-2.228 -9.96645,-1.4072 7.62494,0.7036 11.95974,6.5668 4.45488,5.7459 4.57496,13.1335 v 0 19.583 h 3.51828 v -19.583 0 q 0,-3.4007 -1.17076,-7.1531 -1.05668,-3.8697 -3.51828,-7.0358 z m -37.4102,130.3969 v 0 q 1.29084,1.9935 5.27742,4.2215 4.10665,2.1107 10.08652,1.2899 -7.62493,-0.7036 -12.07981,-6.5668 -4.34081,-5.8632 -4.34081,-13.1335 v -20.1693 h -3.63235 v 20.1693 0 q 0,3.4006 1.05668,7.1531 1.17076,3.7524 3.63235,7.0358 z" />
    <g
       aria-label="MORE OR LESS"
       transform="matrix(0.88265327,0,0,0.88265327,2441.6216,-924.2268)"
       style="font-style:normal;font-variant:normal;font-weight:normal;font-stretch:normal;font-size:192px;line-height:1.25;font-family:'Copperplate Gothic Bold';-inkscape-font-specification:'Copperplate Gothic Bold, ';letter-spacing:0px;word-spacing:0px;fill:#95783c;fill-opacity:1;stroke:#010100;stroke-width:5.66473866;stroke-miterlimit:4;stroke-dasharray:none;stroke-opacity:1"
       id="flowRoot922">
      <path
         d="m -4681.1484,755.15027 -47.1563,-86.625 v 78.5625 q 0,2.90625 1.3125,4.40625 1.3125,1.5 4.6875,2.4375 v 3 h -37.5937 v -3 q 3.375,-0.9375 4.6875,-2.4375 1.3125,-1.5 1.3125,-4.40625 v -108.375 q 0,-2.8125 -1.3125,-4.3125 -1.3125,-1.5 -4.6875,-2.4375 v -3 h 49.3125 v 3 q -4.4063,1.125 -4.4063,5.15625 0,1.875 1.3125,4.3125 l 34.875,64.3125 35.3438,-63.1875 q 2.3437,-4.3125 2.3437,-6.28125 0,-3.84375 -4.6875,-4.3125 v -3 h 48.375 v 3 q -3.375,0.9375 -4.6875,2.4375 -1.3125,1.5 -1.3125,4.3125 v 108.375 q 0,2.90625 1.3125,4.40625 1.3125,1.5 4.6875,2.4375 v 3 h -39.9375 v -3 q 3.2813,-0.84375 4.5938,-2.34375 1.4062,-1.59375 1.4062,-4.5 v -78.5625 z"
         id="path989"
         inkscape:connector-curvature="0" />
      <path
         d="m -4503.9609,626.71277 q 33.4687,0 53.0625,18.09375 20.7187,18.9375 20.7187,48.9375 0,18.375 -9.9375,34.3125 -19.4062,31.125 -63.6562,31.125 -33.1875,0 -52.7813,-18.09375 -10.5,-9.65625 -15.9375,-23.15625 -4.7812,-11.90625 -4.7812,-25.03125 0,-19.21875 9.8437,-35.15625 18.8438,-30.46875 63.4688,-31.03125 z m 0.094,21.65625 q -18.2812,0 -30.4687,10.875 -14.4375,12.84375 -14.4375,33.65625 0,20.8125 14.4375,33.65625 12.1875,10.875 30.6562,10.875 18.4688,0 30.5625,-10.875 7.2188,-6.46875 11.0625,-15.84375 3.375,-8.34375 3.375,-17.25 0,-21.75 -14.4375,-34.21875 -12.2812,-10.6875 -30.75,-10.875 z"
         id="path991"
         inkscape:connector-curvature="0" />
      <path
         d="m -4376.0859,704.71277 v 42.46875 q 0,2.8125 1.3125,4.40625 1.4062,1.5 4.6875,2.34375 v 3 h -39.9375 v -3 q 3.375,-0.9375 4.6875,-2.4375 1.3125,-1.5 1.3125,-4.3125 v -108.375 q 0,-2.90625 -1.3125,-4.40625 -1.3125,-1.5 -4.6875,-2.4375 v -3 h 80.0625 q 14.625,0 23.1562,1.6875 8.625,1.6875 15,5.90625 7.4063,4.875 11.0625,13.21875 3.4688,8.0625 3.4688,17.25 0,31.3125 -34.7813,36.65625 l 24.8438,35.34375 q 6.5625,9.28125 9.5625,12 3.0937,2.625 7.5,2.90625 v 3 h -46.3125 v -3 q 4.7812,-0.75 4.7812,-3.375 0,-1.6875 -4.4062,-8.15625 l -25.875,-37.6875 z m 0,-21.09375 h 43.125 q 9.5625,0 13.5,-0.5625 3.9375,-0.5625 7.2187,-2.34375 7.125,-3.84375 7.125,-13.875 0,-10.03125 -7.125,-13.875 -3.375,-1.875 -7.2187,-2.34375 -3.75,-0.5625 -13.5,-0.5625 h -43.125 z"
         id="path993"
         inkscape:connector-curvature="0" />
      <path
         d="m -4220.8359,700.77527 v 35.0625 h 82.3125 q 2.8125,0 4.3125,-1.3125 1.5,-1.3125 2.4375,-4.6875 h 3 v 33.09375 h -3 q -0.9375,-3.375 -2.4375,-4.6875 -1.5,-1.3125 -4.3125,-1.3125 h -116.25 v -3 q 3.375,-0.9375 4.6875,-2.4375 1.3125,-1.5 1.3125,-4.40625 V 638.80652 q 0,-2.90625 -1.3125,-4.40625 -1.3125,-1.5 -4.6875,-2.4375 v -3 h 114 q 2.8125,0 4.3125,-1.3125 1.5,-1.40625 2.4375,-4.78125 h 3 v 33.09375 h -3 q -0.9375,-3.28125 -2.4375,-4.59375 -1.5,-1.3125 -4.3125,-1.3125 h -80.0625 v 30.375 h 51.9375 q 2.8125,0 4.3125,-1.3125 1.5,-1.3125 2.4375,-4.6875 h 3 v 32.34375 h -3 q -0.9375,-3.28125 -2.4375,-4.59375 -1.5,-1.40625 -4.3125,-1.40625 z"
         id="path995"
         inkscape:connector-curvature="0" />
      <path
         d="m -3990.5859,626.71277 q 33.4687,0 53.0625,18.09375 20.7187,18.9375 20.7187,48.9375 0,18.375 -9.9375,34.3125 -19.4062,31.125 -63.6562,31.125 -33.1875,0 -52.7813,-18.09375 -10.5,-9.65625 -15.9375,-23.15625 -4.7812,-11.90625 -4.7812,-25.03125 0,-19.21875 9.8437,-35.15625 18.8438,-30.46875 63.4688,-31.03125 z m 0.094,21.65625 q -18.2812,0 -30.4687,10.875 -14.4375,12.84375 -14.4375,33.65625 0,20.8125 14.4375,33.65625 12.1875,10.875 30.6562,10.875 18.4688,0 30.5625,-10.875 7.2188,-6.46875 11.0625,-15.84375 3.375,-8.34375 3.375,-17.25 0,-21.75 -14.4375,-34.21875 -12.2812,-10.6875 -30.75,-10.875 z"
         id="path997"
         inkscape:connector-curvature="0" />
      <path
         d="m -3862.7109,704.71277 v 42.46875 q 0,2.8125 1.3125,4.40625 1.4062,1.5 4.6875,2.34375 v 3 h -39.9375 v -3 q 3.375,-0.9375 4.6875,-2.4375 1.3125,-1.5 1.3125,-4.3125 v -108.375 q 0,-2.90625 -1.3125,-4.40625 -1.3125,-1.5 -4.6875,-2.4375 v -3 h 80.0625 q 14.625,0 23.1562,1.6875 8.625,1.6875 15,5.90625 7.4063,4.875 11.0625,13.21875 3.4688,8.0625 3.4688,17.25 0,31.3125 -34.7813,36.65625 l 24.8438,35.34375 q 6.5625,9.28125 9.5625,12 3.0937,2.625 7.5,2.90625 v 3 h -46.3125 v -3 q 4.7812,-0.75 4.7812,-3.375 0,-1.6875 -4.4062,-8.15625 l -25.875,-37.6875 z m 0,-21.09375 h 43.125 q 9.5625,0 13.5,-0.5625 3.9375,-0.5625 7.2187,-2.34375 7.125,-3.84375 7.125,-13.875 0,-10.03125 -7.125,-13.875 -3.375,-1.875 -7.2187,-2.34375 -3.75,-0.5625 -13.5,-0.5625 h -43.125 z"
         id="path999"
         inkscape:connector-curvature="0" />
      <path
         d="m -3659.4609,735.83777 h 78.6562 q 2.9063,0 4.4063,-1.3125 1.5,-1.3125 2.4375,-4.6875 h 3 v 33.09375 h -3 q -0.9375,-3.375 -2.4375,-4.6875 -1.5,-1.3125 -4.4063,-1.3125 h -112.5937 v -3 q 3.375,-0.9375 4.6875,-2.4375 1.3125,-1.5 1.3125,-4.40625 V 638.80652 q 0,-2.90625 -1.3125,-4.40625 -1.3125,-1.5 -4.6875,-2.4375 v -3 h 39.9375 v 3 q -3.375,0.84375 -4.6875,2.4375 -1.3125,1.5 -1.3125,4.40625 z"
         id="path1001"
         inkscape:connector-curvature="0" />
      <path
         d="m -3523.7109,700.77527 v 35.0625 h 82.3125 q 2.8125,0 4.3125,-1.3125 1.5,-1.3125 2.4375,-4.6875 h 3 v 33.09375 h -3 q -0.9375,-3.375 -2.4375,-4.6875 -1.5,-1.3125 -4.3125,-1.3125 h -116.25 v -3 q 3.375,-0.9375 4.6875,-2.4375 1.3125,-1.5 1.3125,-4.40625 V 638.80652 q 0,-2.90625 -1.3125,-4.40625 -1.3125,-1.5 -4.6875,-2.4375 v -3 h 114 q 2.8125,0 4.3125,-1.3125 1.5,-1.40625 2.4375,-4.78125 h 3 v 33.09375 h -3 q -0.9375,-3.28125 -2.4375,-4.59375 -1.5,-1.3125 -4.3125,-1.3125 h -80.0625 v 30.375 h 51.9375 q 2.8125,0 4.3125,-1.3125 1.5,-1.3125 2.4375,-4.6875 h 3 v 32.34375 h -3 q -0.9375,-3.28125 -2.4375,-4.59375 -1.5,-1.40625 -4.3125,-1.40625 z"
         id="path1003"
         inkscape:connector-curvature="0" />
      <path
         d="m -3292.7109,639.74402 -15.2813,30.09375 -2.625,-1.5 q 0.094,-0.9375 0.094,-1.5 0,-3.1875 -5.4375,-6.84375 -16.6875,-11.625 -39.1875,-11.625 -9.9375,0 -17.5313,2.4375 -5.5312,1.875 -9,5.625 -3.375,3.75 -3.375,8.15625 0,7.21875 8.7188,9.84375 4.5,1.3125 19.3125,2.8125 l 14.7187,1.5 q 13.125,1.40625 21.1875,3.84375 8.1563,2.4375 14.4375,6.84375 6.375,4.59375 10.0313,12.09375 3.75,7.5 3.75,16.03125 0,13.5 -8.7188,24 -7.875,9.5625 -24.4687,14.15625 -12.375,3.46875 -26.5313,3.46875 -25.4062,0 -50.1562,-12.1875 -5.25,-2.4375 -6.2813,-2.4375 -1.2187,0 -3.8437,2.0625 l -2.7188,-1.40625 13.875,-31.40625 2.7188,1.3125 q 0,0.84375 0,1.21875 0,4.21875 4.0312,7.78125 6.0938,5.4375 18.8438,9.375 12.75,3.9375 24.1875,3.9375 12.4687,0 21.2812,-4.21875 4.875,-2.34375 7.7813,-6.1875 2.9062,-3.9375 2.9062,-8.15625 0,-6.375 -6.8437,-9.09375 -4.7813,-1.875 -19.3125,-3.46875 l -14.4375,-1.5 q -14.5313,-1.5 -20.5313,-2.8125 -6,-1.40625 -12,-4.40625 -8.5312,-4.21875 -13.4062,-12.65625 -4.4063,-7.59375 -4.4063,-17.4375 0,-16.21875 11.1563,-26.8125 14.625,-13.96875 43.875,-13.96875 12.2812,0 22.875,2.53125 10.5937,2.4375 26.4375,9.09375 5.4375,2.15625 6.6562,2.15625 1.9688,0 4.5938,-2.15625 z"
         id="path1005"
         inkscape:connector-curvature="0" />
      <path
         d="m -3154.3359,639.74402 -15.2813,30.09375 -2.625,-1.5 q 0.094,-0.9375 0.094,-1.5 0,-3.1875 -5.4375,-6.84375 -16.6875,-11.625 -39.1875,-11.625 -9.9375,0 -17.5313,2.4375 -5.5312,1.875 -9,5.625 -3.375,3.75 -3.375,8.15625 0,7.21875 8.7188,9.84375 4.5,1.3125 19.3125,2.8125 l 14.7187,1.5 q 13.125,1.40625 21.1875,3.84375 8.1563,2.4375 14.4375,6.84375 6.375,4.59375 10.0313,12.09375 3.75,7.5 3.75,16.03125 0,13.5 -8.7188,24 -7.875,9.5625 -24.4687,14.15625 -12.375,3.46875 -26.5313,3.46875 -25.4062,0 -50.1562,-12.1875 -5.25,-2.4375 -6.2813,-2.4375 -1.2187,0 -3.8437,2.0625 l -2.7188,-1.40625 13.875,-31.40625 2.7188,1.3125 q 0,0.84375 0,1.21875 0,4.21875 4.0312,7.78125 6.0938,5.4375 18.8438,9.375 12.75,3.9375 24.1875,3.9375 12.4687,0 21.2812,-4.21875 4.875,-2.34375 7.7813,-6.1875 2.9062,-3.9375 2.9062,-8.15625 0,-6.375 -6.8437,-9.09375 -4.7813,-1.875 -19.3125,-3.46875 l -14.4375,-1.5 q -14.5313,-1.5 -20.5313,-2.8125 -6,-1.40625 -12,-4.40625 -8.5312,-4.21875 -13.4062,-12.65625 -4.4063,-7.59375 -4.4063,-17.4375 0,-16.21875 11.1563,-26.8125 14.625,-13.96875 43.875,-13.96875 12.2812,0 22.875,2.53125 10.5937,2.4375 26.4375,9.09375 5.4375,2.15625 6.6562,2.15625 1.9688,0 4.5938,-2.15625 z"
         id="path1007"
         inkscape:connector-curvature="0" />
    </g>
    <g
       id="g1040"
       style="font-style:normal;font-variant:normal;font-weight:normal;font-stretch:normal;font-size:192px;line-height:1.25;font-family:'Copperplate Gothic Bold';-inkscape-font-specification:'Copperplate Gothic Bold, ';letter-spacing:0px;word-spacing:0px;fill:#95783c;fill-opacity:1;stroke:#010100;stroke-width:5.66473866;stroke-miterlimit:4;stroke-dasharray:none;stroke-opacity:1"
       transform="matrix(0.88265327,0,0,0.88265327,1175.8331,-1826.5287)"
       aria-label="MORE OR LESS">
      <path
         inkscape:connector-curvature="0"
         id="path1020"
         d="m -4681.1484,755.15027 -47.1563,-86.625 v 78.5625 q 0,2.90625 1.3125,4.40625 1.3125,1.5 4.6875,2.4375 v 3 h -37.5937 v -3 q 3.375,-0.9375 4.6875,-2.4375 1.3125,-1.5 1.3125,-4.40625 v -108.375 q 0,-2.8125 -1.3125,-4.3125 -1.3125,-1.5 -4.6875,-2.4375 v -3 h 49.3125 v 3 q -4.4063,1.125 -4.4063,5.15625 0,1.875 1.3125,4.3125 l 34.875,64.3125 35.3438,-63.1875 q 2.3437,-4.3125 2.3437,-6.28125 0,-3.84375 -4.6875,-4.3125 v -3 h 48.375 v 3 q -3.375,0.9375 -4.6875,2.4375 -1.3125,1.5 -1.3125,4.3125 v 108.375 q 0,2.90625 1.3125,4.40625 1.3125,1.5 4.6875,2.4375 v 3 h -39.9375 v -3 q 3.2813,-0.84375 4.5938,-2.34375 1.4062,-1.59375 1.4062,-4.5 v -78.5625 z" />
      <path
         inkscape:connector-curvature="0"
         id="path1022"
         d="m -4503.9609,626.71277 q 33.4687,0 53.0625,18.09375 20.7187,18.9375 20.7187,48.9375 0,18.375 -9.9375,34.3125 -19.4062,31.125 -63.6562,31.125 -33.1875,0 -52.7813,-18.09375 -10.5,-9.65625 -15.9375,-23.15625 -4.7812,-11.90625 -4.7812,-25.03125 0,-19.21875 9.8437,-35.15625 18.8438,-30.46875 63.4688,-31.03125 z m 0.094,21.65625 q -18.2812,0 -30.4687,10.875 -14.4375,12.84375 -14.4375,33.65625 0,20.8125 14.4375,33.65625 12.1875,10.875 30.6562,10.875 18.4688,0 30.5625,-10.875 7.2188,-6.46875 11.0625,-15.84375 3.375,-8.34375 3.375,-17.25 0,-21.75 -14.4375,-34.21875 -12.2812,-10.6875 -30.75,-10.875 z" />
      <path
         inkscape:connector-curvature="0"
         id="path1024"
         d="m -4376.0859,704.71277 v 42.46875 q 0,2.8125 1.3125,4.40625 1.4062,1.5 4.6875,2.34375 v 3 h -39.9375 v -3 q 3.375,-0.9375 4.6875,-2.4375 1.3125,-1.5 1.3125,-4.3125 v -108.375 q 0,-2.90625 -1.3125,-4.40625 -1.3125,-1.5 -4.6875,-2.4375 v -3 h 80.0625 q 14.625,0 23.1562,1.6875 8.625,1.6875 15,5.90625 7.4063,4.875 11.0625,13.21875 3.4688,8.0625 3.4688,17.25 0,31.3125 -34.7813,36.65625 l 24.8438,35.34375 q 6.5625,9.28125 9.5625,12 3.0937,2.625 7.5,2.90625 v 3 h -46.3125 v -3 q 4.7812,-0.75 4.7812,-3.375 0,-1.6875 -4.4062,-8.15625 l -25.875,-37.6875 z m 0,-21.09375 h 43.125 q 9.5625,0 13.5,-0.5625 3.9375,-0.5625 7.2187,-2.34375 7.125,-3.84375 7.125,-13.875 0,-10.03125 -7.125,-13.875 -3.375,-1.875 -7.2187,-2.34375 -3.75,-0.5625 -13.5,-0.5625 h -43.125 z" />
      <path
         inkscape:connector-curvature="0"
         id="path1026"
         d="m -4220.8359,700.77527 v 35.0625 h 82.3125 q 2.8125,0 4.3125,-1.3125 1.5,-1.3125 2.4375,-4.6875 h 3 v 33.09375 h -3 q -0.9375,-3.375 -2.4375,-4.6875 -1.5,-1.3125 -4.3125,-1.3125 h -116.25 v -3 q 3.375,-0.9375 4.6875,-2.4375 1.3125,-1.5 1.3125,-4.40625 V 638.80652 q 0,-2.90625 -1.3125,-4.40625 -1.3125,-1.5 -4.6875,-2.4375 v -3 h 114 q 2.8125,0 4.3125,-1.3125 1.5,-1.40625 2.4375,-4.78125 h 3 v 33.09375 h -3 q -0.9375,-3.28125 -2.4375,-4.59375 -1.5,-1.3125 -4.3125,-1.3125 h -80.0625 v 30.375 h 51.9375 q 2.8125,0 4.3125,-1.3125 1.5,-1.3125 2.4375,-4.6875 h 3 v 32.34375 h -3 q -0.9375,-3.28125 -2.4375,-4.59375 -1.5,-1.40625 -4.3125,-1.40625 z" />
      <path
         inkscape:connector-curvature="0"
         id="path1028"
         d="m -3990.5859,626.71277 q 33.4687,0 53.0625,18.09375 20.7187,18.9375 20.7187,48.9375 0,18.375 -9.9375,34.3125 -19.4062,31.125 -63.6562,31.125 -33.1875,0 -52.7813,-18.09375 -10.5,-9.65625 -15.9375,-23.15625 -4.7812,-11.90625 -4.7812,-25.03125 0,-19.21875 9.8437,-35.15625 18.8438,-30.46875 63.4688,-31.03125 z m 0.094,21.65625 q -18.2812,0 -30.4687,10.875 -14.4375,12.84375 -14.4375,33.65625 0,20.8125 14.4375,33.65625 12.1875,10.875 30.6562,10.875 18.4688,0 30.5625,-10.875 7.2188,-6.46875 11.0625,-15.84375 3.375,-8.34375 3.375,-17.25 0,-21.75 -14.4375,-34.21875 -12.2812,-10.6875 -30.75,-10.875 z" />
      <path
         inkscape:connector-curvature="0"
         id="path1030"
         d="m -3862.7109,704.71277 v 42.46875 q 0,2.8125 1.3125,4.40625 1.4062,1.5 4.6875,2.34375 v 3 h -39.9375 v -3 q 3.375,-0.9375 4.6875,-2.4375 1.3125,-1.5 1.3125,-4.3125 v -108.375 q 0,-2.90625 -1.3125,-4.40625 -1.3125,-1.5 -4.6875,-2.4375 v -3 h 80.0625 q 14.625,0 23.1562,1.6875 8.625,1.6875 15,5.90625 7.4063,4.875 11.0625,13.21875 3.4688,8.0625 3.4688,17.25 0,31.3125 -34.7813,36.65625 l 24.8438,35.34375 q 6.5625,9.28125 9.5625,12 3.0937,2.625 7.5,2.90625 v 3 h -46.3125 v -3 q 4.7812,-0.75 4.7812,-3.375 0,-1.6875 -4.4062,-8.15625 l -25.875,-37.6875 z m 0,-21.09375 h 43.125 q 9.5625,0 13.5,-0.5625 3.9375,-0.5625 7.2187,-2.34375 7.125,-3.84375 7.125,-13.875 0,-10.03125 -7.125,-13.875 -3.375,-1.875 -7.2187,-2.34375 -3.75,-0.5625 -13.5,-0.5625 h -43.125 z" />
      <path
         inkscape:connector-curvature="0"
         id="path1032"
         d="m -3659.4609,735.83777 h 78.6562 q 2.9063,0 4.4063,-1.3125 1.5,-1.3125 2.4375,-4.6875 h 3 v 33.09375 h -3 q -0.9375,-3.375 -2.4375,-4.6875 -1.5,-1.3125 -4.4063,-1.3125 h -112.5937 v -3 q 3.375,-0.9375 4.6875,-2.4375 1.3125,-1.5 1.3125,-4.40625 V 638.80652 q 0,-2.90625 -1.3125,-4.40625 -1.3125,-1.5 -4.6875,-2.4375 v -3 h 39.9375 v 3 q -3.375,0.84375 -4.6875,2.4375 -1.3125,1.5 -1.3125,4.40625 z" />
      <path
         inkscape:connector-curvature="0"
         id="path1034"
         d="m -3523.7109,700.77527 v 35.0625 h 82.3125 q 2.8125,0 4.3125,-1.3125 1.5,-1.3125 2.4375,-4.6875 h 3 v 33.09375 h -3 q -0.9375,-3.375 -2.4375,-4.6875 -1.5,-1.3125 -4.3125,-1.3125 h -116.25 v -3 q 3.375,-0.9375 4.6875,-2.4375 1.3125,-1.5 1.3125,-4.40625 V 638.80652 q 0,-2.90625 -1.3125,-4.40625 -1.3125,-1.5 -4.6875,-2.4375 v -3 h 114 q 2.8125,0 4.3125,-1.3125 1.5,-1.40625 2.4375,-4.78125 h 3 v 33.09375 h -3 q -0.9375,-3.28125 -2.4375,-4.59375 -1.5,-1.3125 -4.3125,-1.3125 h -80.0625 v 30.375 h 51.9375 q 2.8125,0 4.3125,-1.3125 1.5,-1.3125 2.4375,-4.6875 h 3 v 32.34375 h -3 q -0.9375,-3.28125 -2.4375,-4.59375 -1.5,-1.40625 -4.3125,-1.40625 z" />
      <path
         inkscape:connector-curvature="0"
         id="path1036"
         d="m -3292.7109,639.74402 -15.2813,30.09375 -2.625,-1.5 q 0.094,-0.9375 0.094,-1.5 0,-3.1875 -5.4375,-6.84375 -16.6875,-11.625 -39.1875,-11.625 -9.9375,0 -17.5313,2.4375 -5.5312,1.875 -9,5.625 -3.375,3.75 -3.375,8.15625 0,7.21875 8.7188,9.84375 4.5,1.3125 19.3125,2.8125 l 14.7187,1.5 q 13.125,1.40625 21.1875,3.84375 8.1563,2.4375 14.4375,6.84375 6.375,4.59375 10.0313,12.09375 3.75,7.5 3.75,16.03125 0,13.5 -8.7188,24 -7.875,9.5625 -24.4687,14.15625 -12.375,3.46875 -26.5313,3.46875 -25.4062,0 -50.1562,-12.1875 -5.25,-2.4375 -6.2813,-2.4375 -1.2187,0 -3.8437,2.0625 l -2.7188,-1.40625 13.875,-31.40625 2.7188,1.3125 q 0,0.84375 0,1.21875 0,4.21875 4.0312,7.78125 6.0938,5.4375 18.8438,9.375 12.75,3.9375 24.1875,3.9375 12.4687,0 21.2812,-4.21875 4.875,-2.34375 7.7813,-6.1875 2.9062,-3.9375 2.9062,-8.15625 0,-6.375 -6.8437,-9.09375 -4.7813,-1.875 -19.3125,-3.46875 l -14.4375,-1.5 q -14.5313,-1.5 -20.5313,-2.8125 -6,-1.40625 -12,-4.40625 -8.5312,-4.21875 -13.4062,-12.65625 -4.4063,-7.59375 -4.4063,-17.4375 0,-16.21875 11.1563,-26.8125 14.625,-13.96875 43.875,-13.96875 12.2812,0 22.875,2.53125 10.5937,2.4375 26.4375,9.09375 5.4375,2.15625 6.6562,2.15625 1.9688,0 4.5938,-2.15625 z" />
      <path
         inkscape:connector-curvature="0"
         id="path1038"
         d="m -3154.3359,639.74402 -15.2813,30.09375 -2.625,-1.5 q 0.094,-0.9375 0.094,-1.5 0,-3.1875 -5.4375,-6.84375 -16.6875,-11.625 -39.1875,-11.625 -9.9375,0 -17.5313,2.4375 -5.5312,1.875 -9,5.625 -3.375,3.75 -3.375,8.15625 0,7.21875 8.7188,9.84375 4.5,1.3125 19.3125,2.8125 l 14.7187,1.5 q 13.125,1.40625 21.1875,3.84375 8.1563,2.4375 14.4375,6.84375 6.375,4.59375 10.0313,12.09375 3.75,7.5 3.75,16.03125 0,13.5 -8.7188,24 -7.875,9.5625 -24.4687,14.15625 -12.375,3.46875 -26.5313,3.46875 -25.4062,0 -50.1562,-12.1875 -5.25,-2.4375 -6.2813,-2.4375 -1.2187,0 -3.8437,2.0625 l -2.7188,-1.40625 13.875,-31.40625 2.7188,1.3125 q 0,0.84375 0,1.21875 0,4.21875 4.0312,7.78125 6.0938,5.4375 18.8438,9.375 12.75,3.9375 24.1875,3.9375 12.4687,0 21.2812,-4.21875 4.875,-2.34375 7.7813,-6.1875 2.9062,-3.9375 2.9062,-8.15625 0,-6.375 -6.8437,-9.09375 -4.7813,-1.875 -19.3125,-3.46875 l -14.4375,-1.5 q -14.5313,-1.5 -20.5313,-2.8125 -6,-1.40625 -12,-4.40625 -8.5312,-4.21875 -13.4062,-12.65625 -4.4063,-7.59375 -4.4063,-17.4375 0,-16.21875 11.1563,-26.8125 14.625,-13.96875 43.875,-13.96875 12.2812,0 22.875,2.53125 10.5937,2.4375 26.4375,9.09375 5.4375,2.15625 6.6562,2.15625 1.9688,0 4.5938,-2.15625 z" />
    </g>
    <path
       style="font-style:normal;font-variant:normal;font-weight:normal;font-stretch:normal;font-size:192px;line-height:1.25;font-family:'Copperplate Gothic Bold';-inkscape-font-specification:'Copperplate Gothic Bold, ';letter-spacing:0px;word-spacing:0px;fill:#95783c;fill-opacity:1;stroke:#010100;stroke-width:5;stroke-miterlimit:4;stroke-dasharray:none;stroke-opacity:1"
       inkscape:connector-curvature="0"
       id="path1042"
       d="m 223.52952,-257.69417 -41.6227,-70.46296 v 69.34345 q 0,2.56521 1.1585,3.72227 1.1585,1.15707 4.1374,1.55536 v 2.64796 l -33.1822,4.7808 v -2.64796 q 2.979,-1.25669 4.1374,-2.74757 1.1585,-1.49089 1.1585,-4.0561 v -95.65755 q 0,-2.48247 -1.1585,-3.63954 -1.1584,-1.15708 -4.1374,-1.55535 v -2.64796 l 43.5259,-6.27109 v 2.64796 q -3.8893,1.55334 -3.8893,5.11154 0,1.65497 1.1585,3.63952 l 30.7825,52.33059 31.1964,-60.26735 q 2.0686,-4.10448 2.0686,-5.8422 0,-3.3927 -4.1374,-3.21034 v -2.64796 l 42.6983,-6.15185 v 2.64796 q -2.9789,1.25667 -4.1374,2.74757 -1.1585,1.49089 -1.1585,3.97336 v 95.65755 q 0,2.56521 1.1585,3.72228 1.1585,1.15706 4.1374,1.55535 v 2.64796 l -35.2509,5.07885 v -2.64796 q 2.8962,-1.162 4.0547,-2.6529 1.2412,-1.58556 1.2412,-4.15077 v -69.34345 z" />
    <path
       style="font-style:normal;font-variant:normal;font-weight:normal;font-stretch:normal;font-size:192px;line-height:1.25;font-family:'Copperplate Gothic Bold';-inkscape-font-specification:'Copperplate Gothic Bold, ';letter-spacing:0px;word-spacing:0px;fill:#95783c;fill-opacity:1;stroke:#010100;stroke-width:5;stroke-miterlimit:4;stroke-dasharray:none;stroke-opacity:1"
       inkscape:connector-curvature="0"
       id="path1044"
       d="m 379.92462,-398.54753 q 29.5412,-6.08997 46.8358,6.31521 18.2874,12.94526 18.2874,39.42486 0,16.21875 -8.7714,32.09429 -17.1289,31.00373 -56.1863,39.05549 -29.2931,6.03884 -46.5876,-6.36637 -9.2679,-6.61252 -14.0673,-17.53894 -4.2201,-9.6391 -4.2201,-21.22393 0,-16.96349 8.6885,-32.82194 16.6326,-30.32218 56.021,-38.93867 z m 0.083,19.09785 q -16.136,3.32647 -26.8933,15.14296 -12.7434,13.96366 -12.7434,32.33388 0,18.37022 12.7434,27.07972 10.7573,7.38122 27.0588,4.02063 16.3015,-3.36058 26.976,-15.16001 6.3717,-7.0232 9.7644,-15.99749 2.9789,-7.97875 2.9789,-15.83988 0,-19.1977 -12.7433,-27.57623 -10.84,-7.19866 -27.1415,-4.00358 z" />
    <path
       style="font-style:normal;font-variant:normal;font-weight:normal;font-stretch:normal;font-size:192px;line-height:1.25;font-family:'Copperplate Gothic Bold';-inkscape-font-specification:'Copperplate Gothic Bold, ';letter-spacing:0px;word-spacing:0px;fill:#95783c;fill-opacity:1;stroke:#010100;stroke-width:5;stroke-miterlimit:4;stroke-dasharray:none;stroke-opacity:1"
       inkscape:connector-curvature="0"
       id="path1046"
       d="m 492.79392,-348.11598 v 37.48518 q 0,2.48247 1.1585,3.67709 1.2411,1.09675 4.1374,1.3112 v 2.64796 l -35.251,6.45404 v -2.64796 q 2.979,-1.3729 4.1375,-2.90899 1.1584,-1.53607 1.1584,-4.01854 v -95.65755 q 0,-2.56521 -1.1584,-3.6771 -1.1585,-1.11187 -4.1375,-1.39393 v -2.64796 l 70.6675,-12.93838 q 12.9088,-2.36345 20.4388,-2.25263 7.6129,0.0957 13.2398,2.78912 6.5372,3.10606 9.7644,9.87983 3.0617,6.55583 3.0617,14.66521 0,27.63808 -30.6998,37.97553 l 21.9285,27.18142 q 5.7924,7.13161 8.4404,9.04651 2.7306,1.81703 6.6199,1.35318 v 2.64796 l -40.8779,7.48426 v -2.64796 q 4.2201,-1.43464 4.2201,-3.7516 0,-1.48948 -3.8891,-6.48709 l -22.8387,-29.08351 z m 0,-18.61846 38.0644,-6.96914 q 8.4404,-1.54534 11.9158,-2.67814 3.4755,-1.13282 6.3716,-3.23529 6.2889,-4.54411 6.2889,-13.39823 0,-8.85411 -6.2889,-11.09539 -2.9789,-1.10958 -6.3716,-0.90215 -3.3099,0.10951 -11.9158,1.68515 l -38.0644,6.96914 z" />
    <path
       style="font-style:normal;font-variant:normal;font-weight:normal;font-stretch:normal;font-size:192px;line-height:1.25;font-family:'Copperplate Gothic Bold';-inkscape-font-specification:'Copperplate Gothic Bold, ';letter-spacing:0px;word-spacing:0px;fill:#95783c;fill-opacity:1;stroke:#010100;stroke-width:5;stroke-miterlimit:4;stroke-dasharray:none;stroke-opacity:1"
       inkscape:connector-curvature="0"
       id="path1048"
       d="m 629.82582,-374.13612 v 30.94803 l 72.6534,-4.01011 q 2.4825,-0.13702 3.8064,-1.36859 1.324,-1.23156 2.1515,-4.25618 l 2.648,-0.14616 v 29.2103 l -2.648,0.14616 q -0.8275,-2.93328 -2.1515,-4.01868 -1.3239,-1.08541 -3.8064,-0.94839 l -102.6085,5.66349 v -2.64796 q 2.979,-0.99191 4.1375,-2.37983 1.1585,-1.38793 1.1585,-3.95314 v -95.57481 q 0,-2.56521 -1.1585,-3.82524 -1.1585,-1.26004 -4.1375,-1.92309 v -2.64796 l 100.6225,-5.55388 q 2.4825,-0.13702 3.8065,-1.36859 1.3239,-1.3143 2.1514,-4.33892 l 2.648,-0.14616 v 29.21031 l -2.648,0.14616 q -0.8275,-2.85054 -2.1514,-3.93595 -1.324,-1.0854 -3.8065,-0.94838 l -70.6674,3.9005 v 26.81059 l 45.8428,-2.5303 q 2.4825,-0.13702 3.8064,-1.36857 1.324,-1.23157 2.1515,-4.2562 l 2.648,-0.14615 v 28.54832 l -2.648,0.14615 q -0.8275,-2.85053 -2.1515,-3.93593 -1.3239,-1.16816 -3.8064,-1.03114 z" />
    <path
       style="font-style:normal;font-variant:normal;font-weight:normal;font-stretch:normal;font-size:192px;line-height:1.25;font-family:'Copperplate Gothic Bold';-inkscape-font-specification:'Copperplate Gothic Bold, ';letter-spacing:0px;word-spacing:0px;fill:#95783c;fill-opacity:1;stroke:#010100;stroke-width:5;stroke-miterlimit:4;stroke-dasharray:none;stroke-opacity:1"
       inkscape:connector-curvature="0"
       id="path1050"
       d="m 862.4276,-363.80957 q 29.54125,5.38729 46.83579,24.51172 18.28742,20.05024 18.28742,46.52984 0,16.21875 -8.77136,28.68644 -17.12895,24.34886 -56.18636,17.22615 -29.2931,-5.34204 -46.5876,-24.46647 -9.2678,-10.21324 -14.0673,-23.00433 -4.2201,-11.27869 -4.2201,-22.86351 0,-16.96349 8.6886,-29.44628 16.6325,-23.86015 56.02091,-17.17356 z m 0.083,19.13008 q -16.13601,-2.94264 -26.89331,4.69446 -12.7433,9.01265 -12.7433,27.38287 0,18.37022 12.7433,32.03073 10.7573,11.56061 27.0588,14.53343 16.30155,2.97284 26.97609,-4.67935 6.3717,-4.54769 9.76436,-12.20386 2.97895,-6.82138 2.97895,-14.68251 0,-19.19771 -12.74331,-32.52723 -10.84004,-11.4102 -27.14158,-14.54854 z" />
    <path
       style="font-style:normal;font-variant:normal;font-weight:normal;font-stretch:normal;font-size:192px;line-height:1.25;font-family:'Copperplate Gothic Bold';-inkscape-font-specification:'Copperplate Gothic Bold, ';letter-spacing:0px;word-spacing:0px;fill:#95783c;fill-opacity:1;stroke:#010100;stroke-width:5;stroke-miterlimit:4;stroke-dasharray:none;stroke-opacity:1"
       inkscape:connector-curvature="0"
       id="path1052"
       d="m 975.29688,-290.16494 v 37.48518 q 0,2.48246 1.15849,3.71565 1.24118,1.13805 4.13743,1.44893 v 2.64796 l -35.25096,5.28057 v -2.64796 q 2.97895,-1.27373 4.13743,-2.77125 1.15849,-1.49752 1.15849,-3.97998 v -95.65755 q 0,-2.56521 -1.15849,-3.71565 -1.15848,-1.15044 -4.13743,-1.53168 v -2.64796 l 70.66746,-10.58594 q 12.9088,-1.93373 20.4389,-1.57226 7.6129,0.34907 13.2398,3.22985 6.5372,3.32367 9.7644,10.20488 3.0617,6.65775 3.0617,14.76712 0,27.63808 -30.6998,36.95357 l 21.9284,27.91142 q 5.7925,7.32442 8.4404,9.32747 2.7307,1.90791 6.6199,1.57356 v 2.64796 l -40.8779,6.12348 v -2.64796 q 4.2202,-1.29417 4.2202,-3.61114 0,-1.48947 -3.8892,-6.61654 l -22.8387,-29.84377 z m 0,-18.61847 38.06442,-5.70203 q 8.4404,-1.26437 11.9159,-2.28149 3.4754,-1.0171 6.3716,-3.02318 6.2889,-4.33477 6.2889,-13.18888 0,-8.85412 -6.2889,-11.30475 -2.979,-1.20871 -6.3716,-1.11426 -3.31,-6.5e-4 -11.9159,1.28851 l -38.06442,5.70203 z" />
    <path
       style="font-style:normal;font-variant:normal;font-weight:normal;font-stretch:normal;font-size:192px;line-height:1.25;font-family:'Copperplate Gothic Bold';-inkscape-font-specification:'Copperplate Gothic Bold, ';letter-spacing:0px;word-spacing:0px;fill:#95783c;fill-opacity:1;stroke:#010100;stroke-width:5;stroke-miterlimit:4;stroke-dasharray:none;stroke-opacity:1"
       inkscape:connector-curvature="0"
       id="path1054"
       d="m 1223.4761,-344.405 69.4261,3.93855 q 2.5653,0.14553 3.8893,-0.93784 1.324,-1.08337 2.1514,-4.01539 l 2.648,0.15022 v 29.21031 l -2.648,-0.15022 q -0.8274,-3.02589 -2.1514,-4.25949 -1.324,-1.23359 -3.8893,-1.37912 l -99.3812,-5.63791 v -2.64796 q 2.979,-0.65849 4.1375,-1.91675 1.1585,-1.25826 1.1585,-3.82347 v -95.5748 q 0,-2.56521 -1.1585,-3.95491 -1.1585,-1.3897 -4.1375,-2.38618 v -2.64796 l 35.251,1.99979 v 2.64796 q -2.9789,0.57574 -4.1374,1.91675 -1.1585,1.25826 -1.1585,3.82347 z" />
    <path
       style="font-style:normal;font-variant:normal;font-weight:normal;font-stretch:normal;font-size:192px;line-height:1.25;font-family:'Copperplate Gothic Bold';-inkscape-font-specification:'Copperplate Gothic Bold, ';letter-spacing:0px;word-spacing:0px;fill:#95783c;fill-opacity:1;stroke:#010100;stroke-width:5;stroke-miterlimit:4;stroke-dasharray:none;stroke-opacity:1"
       inkscape:connector-curvature="0"
       id="path1056"
       d="m 1343.2963,-364.4007 v 30.94803 l 72.6534,12.03035 q 2.4824,0.41105 3.8064,-0.52819 1.324,-0.93925 2.1515,-3.78118 l 2.6479,0.43845 v 29.21031 l -2.6479,-0.43845 q -0.8275,-3.11598 -2.1515,-4.4937 -1.324,-1.37772 -3.8064,-1.78877 l -102.6085,-16.99048 v -2.64796 q 2.979,-0.33421 4.1375,-1.46636 1.1585,-1.13215 1.1585,-3.69736 v -95.5748 q 0,-2.56521 -1.1585,-4.08102 -1.1585,-1.51581 -4.1375,-2.83657 v -2.64796 l 100.6225,16.66163 q 2.4825,0.41107 3.8064,-0.5282 1.324,-1.022 2.1515,-3.86393 l 2.648,0.43847 v 29.2103 l -2.648,-0.43847 q -0.8275,-3.03322 -2.1515,-4.41094 -1.3239,-1.3777 -3.8064,-1.78877 l -70.6674,-11.7015 v 26.8106 l 45.8428,7.59091 q 2.4824,0.41105 3.8064,-0.52821 1.324,-0.93924 2.1515,-3.78117 l 2.648,0.43847 v 28.54831 l -2.648,-0.43847 q -0.8275,-3.03322 -2.1515,-4.41095 -1.324,-1.46046 -3.8064,-1.87151 z" />
    <path
       style="font-style:normal;font-variant:normal;font-weight:normal;font-stretch:normal;font-size:192px;line-height:1.25;font-family:'Copperplate Gothic Bold';-inkscape-font-specification:'Copperplate Gothic Bold, ';letter-spacing:0px;word-spacing:0px;fill:#95783c;fill-opacity:1;stroke:#010100;stroke-width:5;stroke-miterlimit:4;stroke-dasharray:none;stroke-opacity:1"
       inkscape:connector-curvature="0"
       id="path1058"
       d="m 1547.1892,-380.14053 -13.4881,23.67981 -2.317,-1.81915 q 0.083,-0.80975 0.083,-1.30624 0,-2.81346 -4.7994,-7.06634 -14.7293,-13.40864 -34.589,-17.65286 -8.7713,-1.87451 -15.474,-1.15549 -4.8822,0.61161 -7.9439,3.26724 -2.979,2.67331 -2.979,6.5625 0,6.37165 7.6957,10.33327 3.9719,2.00731 17.0463,6.12542 l 12.9915,4.1004 q 11.5848,3.71702 18.7012,7.38933 7.1992,3.69 12.7433,8.76403 5.6269,5.25721 8.8541,12.56679 3.31,7.32728 3.31,14.85742 0,11.91582 -7.6957,19.53904 -6.9509,6.95489 -21.5974,7.87947 -10.9228,0.72739 -23.4179,-1.94294 -22.4249,-4.79242 -44.2705,-20.21839 -4.634,-3.14179 -5.5442,-3.33631 -1.0757,-0.22989 -3.3927,1.09542 l -2.3998,-1.75409 12.2469,-25.10355 2.3997,1.67132 q 0,0.74474 0,1.07573 0,3.7237 3.5582,7.62857 5.3787,5.94892 16.6325,11.82941 11.2538,5.8805 21.3492,8.03799 11.0055,2.35198 18.7839,0.29061 4.3029,-1.14914 6.8682,-3.99361 2.5652,-2.92724 2.5652,-6.65093 0,-5.62691 -6.0407,-9.31759 -4.2202,-2.55687 -17.0462,-6.70465 l -12.7433,-4.04735 q -12.8261,-4.06504 -18.122,-6.35531 -5.2959,-2.37302 -10.5919,-6.15279 -7.5301,-5.33295 -11.833,-13.69991 -3.8892,-7.53381 -3.8892,-16.22243 0,-14.31553 9.8471,-21.56171 12.9088,-9.57082 38.7264,-4.05334 10.8401,2.31664 20.1907,6.54916 9.3506,4.14979 23.3352,13.0136 4.7994,2.9289 5.8751,3.15879 1.7378,0.37138 4.0547,-1.03669 z" />
    <path
       style="font-style:normal;font-variant:normal;font-weight:normal;font-stretch:normal;font-size:192px;line-height:1.25;font-family:'Copperplate Gothic Bold';-inkscape-font-specification:'Copperplate Gothic Bold, ';letter-spacing:0px;word-spacing:0px;fill:#95783c;fill-opacity:1;stroke:#010100;stroke-width:5;stroke-miterlimit:4;stroke-dasharray:none;stroke-opacity:1"
       inkscape:connector-curvature="0"
       id="path1060"
       d="m 1669.3263,-347.58463 -13.4881,23.55448 -2.3169,-1.84065 q 0.083,-0.80899 0.083,-1.30548 0,-2.81346 -4.7995,-7.11095 -14.7292,-13.54549 -34.5889,-17.97424 -8.7714,-1.95604 -15.4741,-1.2993 -4.8821,0.56626 -7.9439,3.19343 -2.9789,2.64565 -2.9789,6.53484 0,6.37165 7.6957,10.40477 3.9719,2.04422 17.0462,6.2838 l 12.9915,4.22111 q 11.5848,3.82467 18.7012,7.56311 7.1992,3.7569 12.7433,8.88244 5.6269,5.30949 8.8542,12.64909 3.3099,7.35801 3.3099,14.88815 0,11.91582 -7.6956,19.46755 -6.9509,6.8903 -21.5974,7.67879 -10.9229,0.62587 -23.418,-2.16056 -22.4248,-5.00078 -44.2705,-20.62976 -4.6339,-3.18482 -5.5442,-3.38782 -1.0757,-0.23989 -3.3927,1.06389 l -2.3997,-1.77637 12.2468,-24.98977 2.3998,1.69364 q 0,0.74474 0,1.07573 0,3.7237 3.5581,7.66162 5.3787,5.99889 16.6326,11.98397 11.2538,5.98507 21.3491,8.23634 11.0056,2.45428 18.7839,0.46516 4.303,-1.10914 6.8682,-3.9298 2.5652,-2.9034 2.5652,-6.62709 0,-5.62691 -6.0406,-9.3737 -4.2202,-2.59608 -17.0462,-6.86303 l -12.7434,-4.16579 q -12.8261,-4.18423 -18.122,-6.5237 -5.2959,-2.42223 -10.5918,-6.25119 -7.5301,-5.40292 -11.833,-13.80986 -3.8893,-7.56997 -3.8893,-16.25859 0,-14.31553 9.8472,-21.4702 12.9088,-9.45087 38.7264,-3.69349 10.84,2.41734 20.1907,6.73678 9.3505,4.23665 23.3351,13.23041 4.7994,2.97349 5.8751,3.21338 1.7378,0.38753 4.0548,-0.999 z" />
  </g>
</svg>
