<?xml version="1.0" encoding="UTF-8" standalone="no"?>
<!-- Created with Inkscape (http://www.inkscape.org/) -->

<svg
   xmlns:dc="http://purl.org/dc/elements/1.1/"
   xmlns:cc="http://creativecommons.org/ns#"
   xmlns:rdf="http://www.w3.org/1999/02/22-rdf-syntax-ns#"
   xmlns:svg="http://www.w3.org/2000/svg"
   xmlns="http://www.w3.org/2000/svg"
   xmlns:sodipodi="http://sodipodi.sourceforge.net/DTD/sodipodi-0.dtd"
   xmlns:inkscape="http://www.inkscape.org/namespaces/inkscape"
   width="210mm"
   height="297mm"
   viewBox="0 0 210 297"
   version="1.1"
   id="svg927"
   inkscape:version="0.92.4 (5da689c313, 2019-01-14)"
   sodipodi:docname="beta12cm.svg">
  <defs
     id="defs921" />
  <sodipodi:namedview
     id="base"
     pagecolor="#ffffff"
     bordercolor="#666666"
     borderopacity="1.0"
     inkscape:pageopacity="0.0"
     inkscape:pageshadow="2"
     inkscape:zoom="0.7"
     inkscape:cx="117.6694"
     inkscape:cy="837.15934"
     inkscape:document-units="mm"
     inkscape:current-layer="layer1"
     showgrid="false"
     inkscape:window-width="1920"
     inkscape:window-height="1018"
     inkscape:window-x="-8"
     inkscape:window-y="-8"
     inkscape:window-maximized="1" />
  <metadata
     id="metadata924">
    <rdf:RDF>
      <cc:Work
         rdf:about="">
        <dc:format>image/svg+xml</dc:format>
        <dc:type
           rdf:resource="http://purl.org/dc/dcmitype/StillImage" />
        <dc:title></dc:title>
      </cc:Work>
    </rdf:RDF>
  </metadata>
  <g
     inkscape:label="Layer 1"
     inkscape:groupmode="layer"
     id="layer1">
    <g
       id="g16531"
       transform="matrix(0.07917184,0,0,-0.06927536,-5.4246581,101.18313)">
      <path
         inkscape:connector-curvature="0"
         id="path16533"
         style="fill:currentColor"
         d="M 275,-438 H 110 c 24,112.67 36,214.67 36,306 V 957 c 0,113.3 10,197.7 30,253 20,55.3 59.67,104 119,146 59.33,42 133.33,63.3 222,64 105.33,0 193.67,-27.7 265,-83 71.33,-55.3 107.33,-134.7 108,-238 C 890,979 833,880.67 719,804 889,724 974,598.33 974,427 974,333.67 951.67,250.33 907,177 862.33,103.67 810.33,51 751,19 691.67,-13 621,-28.667 539,-28 445.67,-28 369.67,7 311,77 v -186 c 0,-128 -12,-237.67 -36,-329 z m 36,605 C 363,81 435.67,38 529,38 c 90,0 156,32.667 198,98 42,65.33 63,145.33 63,240 0,72 -13.67,145.33 -41,220 -27.33,74.67 -63,132 -107,172 -40,-10 -76,-15 -108,-15 -67.33,0 -101,17.67 -101,53 0,32 28.33,48 85,48 35.33,0 79.33,-8 132,-24 47.33,80 71,167 71,261 0,84 -18.33,148.3 -55,193 -36.67,44.7 -85,67 -145,67 -47.33,0 -87.67,-13.3 -121,-40 -33.33,-26.7 -56.67,-58.3 -70,-95 -13.33,-36.7 -19.67,-97.3 -19,-182 z" />
    </g>
  </g>
</svg>
