<svg width="210mm" height="297mm" version="1.1" viewBox="0 0 210 297" xmlns="http://www.w3.org/2000/svg">
 <g transform="matrix(.99471 .99471 -.70328 .70328 205.06 -199.21)">
  <g>
   <g transform="translate(-2.9259 -4.1383)">
    <path transform="matrix(.26458 0 0 .26458 0 287)" d="m9.4492 15.697a9.4488 1.5152 0 0 0-9.4453 1.5039h18.893a9.4488 1.5152 0 0 0-9.4473-1.5039z" fill="#c8beb7"/>
    <path d="m2.5001 291.95a2.5 0.4009 0 0 1-2.4991-0.3979h4.9987a2.5 0.4009 0 0 1-2.4996 0.3979z" fill="#ac9d93"/>
   </g>
   <g transform="matrix(0 -1.4144 .70702 0 -201.56 290.95)">
    <path transform="matrix(.26458 0 0 .26458 0 287)" d="m9.4492 15.697a9.4488 1.5152 0 0 0-9.4453 1.5039h18.893a9.4488 1.5152 0 0 0-9.4473-1.5039z" fill="#c8beb7"/>
    <path d="m2.5001 291.95a2.5 0.4009 0 0 1-2.4991-0.3979h4.9987a2.5 0.4009 0 0 1-2.4996 0.3979z" fill="#ac9d93"/>
   </g>
  </g>
 </g>
</svg>
