<?xml version="1.0" encoding="UTF-8" standalone="no"?>
<!-- Created with Inkscape (http://www.inkscape.org/) -->

<svg
   xmlns:dc="http://purl.org/dc/elements/1.1/"
   xmlns:cc="http://creativecommons.org/ns#"
   xmlns:rdf="http://www.w3.org/1999/02/22-rdf-syntax-ns#"
   xmlns:svg="http://www.w3.org/2000/svg"
   xmlns="http://www.w3.org/2000/svg"
   xmlns:sodipodi="http://sodipodi.sourceforge.net/DTD/sodipodi-0.dtd"
   xmlns:inkscape="http://www.inkscape.org/namespaces/inkscape"
   width="150mm"
   height="100mm"
   viewBox="0 0 150 100"
   version="1.1"
   id="svg843"
   inkscape:version="0.92.4 (5da689c313, 2019-01-14)"
   sodipodi:docname="EngagedPrintV2.svg">
  <defs
     id="defs837" />
  <sodipodi:namedview
     id="base"
     pagecolor="#ffffff"
     bordercolor="#666666"
     borderopacity="1.0"
     inkscape:pageopacity="0.0"
     inkscape:pageshadow="2"
     inkscape:zoom="1.49"
     inkscape:cx="240.49115"
     inkscape:cy="235.34243"
     inkscape:document-units="mm"
     inkscape:current-layer="layer1"
     showgrid="false"
     inkscape:window-width="1920"
     inkscape:window-height="1018"
     inkscape:window-x="-8"
     inkscape:window-y="-8"
     inkscape:window-maximized="1" />
  <metadata
     id="metadata840">
    <rdf:RDF>
      <cc:Work
         rdf:about="">
        <dc:format>image/svg+xml</dc:format>
        <dc:type
           rdf:resource="http://purl.org/dc/dcmitype/StillImage" />
        <dc:title></dc:title>
      </cc:Work>
    </rdf:RDF>
  </metadata>
  <g
     inkscape:label="Layer 1"
     inkscape:groupmode="layer"
     id="layer1"
     transform="translate(0,-197)">
    <circle
       cy="-44.817856"
       cx="238.36655"
       id="ellipse1429"
       style="opacity:1;vector-effect:none;fill:none;fill-opacity:1;fill-rule:nonzero;stroke:none;stroke-width:0.10719161;stroke-linecap:butt;stroke-linejoin:miter;stroke-miterlimit:4;stroke-dasharray:none;stroke-dashoffset:0;stroke-opacity:1"
       r="32.946404"
       transform="rotate(160.38507)" />
    <g
       id="g1678"
       transform="translate(200.67843,28.086839)">
      <path
         id="path1557"
         transform="matrix(0.26458333,0,0,0.26458333,0,197)"
         d="m -458.25781,-95.460938 c -104.19927,0 -188.66992,84.470653 -188.66992,188.669922 0,65.019826 32.89079,122.354916 82.9414,156.281246 h 105.72852 z m -0.004,124.152344 V 157.7207 c -33.77767,-5.6e-4 -64.5092,-30.73209 -64.50976,-64.509762 -7.6e-4,-33.778508 30.73122,-64.518965 64.50976,-64.519532 z"
         style="opacity:1;vector-effect:none;fill:#ff0000;fill-opacity:1;fill-rule:nonzero;stroke:none;stroke-width:0.61383885;stroke-linecap:butt;stroke-linejoin:miter;stroke-miterlimit:4;stroke-dasharray:none;stroke-dashoffset:0;stroke-opacity:1"
         inkscape:connector-curvature="0" />
      <path
         inkscape:connector-curvature="0"
         id="path1559"
         d="M -121.24845,204.59126 V 171.74547"
         style="fill:none;stroke:none;stroke-width:0.26458332px;stroke-linecap:butt;stroke-linejoin:miter;stroke-opacity:1" />
      <path
         inkscape:connector-curvature="0"
         id="path1561"
         d="m -121.29948,238.64587 v 33.00778"
         style="fill:none;stroke:none;stroke-width:0.26458332px;stroke-linecap:butt;stroke-linejoin:miter;stroke-opacity:1" />
      <path
         id="path1563"
         transform="matrix(0.26458333,0,0,0.26458333,0,197)"
         d="M -458.26562,-95.460938 V 249.49023 h 105.72656 c 50.05059,-33.92633 82.94336,-91.26142 82.94336,-156.281246 0,-104.199231 -84.47067,-188.669922 -188.66992,-188.669922 z m 0.004,124.152344 c 33.77855,6.05e-4 64.51052,30.741024 64.50977,64.519532 -5.7e-4,33.777642 -30.73213,64.509202 -64.50977,64.509762 z"
         style="opacity:1;vector-effect:none;fill:#00ff00;fill-opacity:1;fill-rule:nonzero;stroke:none;stroke-width:0.61383885;stroke-linecap:butt;stroke-linejoin:miter;stroke-miterlimit:4;stroke-dasharray:none;stroke-dashoffset:0;stroke-opacity:1"
         inkscape:connector-curvature="0" />
      <path
         inkscape:connector-curvature="0"
         id="path1565"
         d="m -104.24454,221.54383 -34.11234,-0.18899"
         style="fill:none;stroke:#000000;stroke-width:0.26458332px;stroke-linecap:butt;stroke-linejoin:miter;stroke-opacity:1" />
      <g
         transform="translate(-60.971465,116.25343)"
         id="g1595"
         style="font-style:normal;font-variant:normal;font-weight:normal;font-stretch:normal;font-size:11.28888893px;line-height:1.25;font-family:'Copperplate Gothic Bold';-inkscape-font-specification:'Copperplate Gothic Bold, Normal';font-variant-ligatures:normal;font-variant-caps:normal;font-variant-numeric:normal;font-feature-settings:normal;text-align:start;letter-spacing:-0.92604166px;word-spacing:0px;writing-mode:lr-tb;text-anchor:start;fill:#000000;fill-opacity:1;stroke:none;stroke-width:0.26458332"
         aria-label="ENGAGED        VACANT">
        <path
           inkscape:connector-curvature="0"
           id="path1569"
           style="stroke-width:0.26458332"
           d="m -95.808192,113.39499 2.031919,-0.34825 -0.817547,-4.77012 q -0.02793,-0.16299 -0.118894,-0.23688 -0.09096,-0.0739 -0.295856,-0.0947 l -0.0298,-0.17385 1.917826,-0.32869 0.0298,0.17385 q -0.186274,0.0879 -0.247437,0.18781 -0.06116,0.1 -0.03323,0.26295 l 1.154621,6.73684 -0.173854,0.0298 q -0.08785,-0.18627 -0.187813,-0.24744 -0.09996,-0.0612 -0.268384,-0.0323 l -6.275042,1.07547 q -0.168421,0.0289 -0.242312,0.11983 -0.07389,0.091 -0.0947,0.29585 l -0.173854,0.0298 -1.132271,-6.60645 q -0.0279,-0.16299 -0.11889,-0.23688 -0.0964,-0.073 -0.30129,-0.0938 l -0.0298,-0.17385 1.917824,-0.3287 0.0298,0.17386 q -0.180841,0.0869 -0.242004,0.18688 -0.06116,0.1 -0.03323,0.26295 l 0.795199,4.63973 1.760271,-0.30169 -0.515855,-3.00985 q -0.02793,-0.16299 -0.118894,-0.23688 -0.09096,-0.0739 -0.295856,-0.0947 l -0.0298,-0.17385 1.874363,-0.32125 0.0298,0.17386 q -0.180842,0.0869 -0.242004,0.18688 -0.0666,0.10089 -0.03866,0.26388 z" />
        <path
           inkscape:connector-curvature="0"
           id="path1571"
           style="stroke-width:0.26458332"
           d="m -98.520287,104.9452 4.559585,0.3763 q 0.170298,0.014 0.264541,-0.0556 0.09424,-0.0697 0.165499,-0.26289 l 0.175791,0.0145 -0.181802,2.20289 -0.175791,-0.0145 q -0.03861,-0.2023 -0.120162,-0.28646 -0.08155,-0.0842 -0.251846,-0.0982 l -6.350458,-0.5241 q -0.16481,-0.0136 -0.25905,0.056 -0.0942,0.0697 -0.1655,0.26289 l -0.17579,-0.0145 0.21037,-2.54897 0.17579,0.0145 q 0.0409,0.2412 0.2332,0.25707 0.13185,0.0109 0.30385,-0.12979 l 4.642783,-3.78159 -4.449716,-0.36724 q -0.164807,-0.0136 -0.259047,0.0561 -0.0942,0.0696 -0.1655,0.26288 l -0.17579,-0.0145 0.1818,-2.202888 0.17579,0.01451 q 0.0386,0.202299 0.12016,0.286462 0.08155,0.08416 0.246357,0.09776 l 6.350459,0.524099 q 0.170298,0.01405 0.264541,-0.0556 0.09424,-0.06965 0.165499,-0.262886 l 0.175791,0.01451 -0.19495,2.362193 -0.175791,-0.0145 q -0.0304,-0.2348 -0.217178,-0.25022 -0.10987,-0.009 -0.406759,0.23745 z" />
        <path
           inkscape:connector-curvature="0"
           id="path1573"
           style="stroke-width:0.26458332"
           d="m -92.985745,91.138104 -0.63419,1.745986 q -0.05834,0.160609 -0.01591,0.269851 0.04431,0.104061 0.212002,0.223618 l -0.06022,0.16579 -1.647547,-0.598433 0.06022,-0.165791 q 0.210514,0.01782 0.311276,-0.03355 0.09746,-0.05843 0.1558,-0.219041 l 1.219449,-3.357266 0.165791,0.06022 q -0.01594,0.205333 0.03873,0.313158 0.05655,0.102643 0.21716,0.160981 l 1.45067,0.526922 q 0.16061,0.05834 0.269852,0.01592 0.109241,-0.04242 0.23068,-0.215301 l 0.129524,0.04705 q 0.418128,2.43317 -0.268753,4.324222 -0.622898,1.7149 -1.829619,2.502269 -1.520763,0.989984 -3.344463,0.327567 -1.699356,-0.617252 -2.264107,-2.19468 -0.535523,-1.496438 0.157004,-3.403033 0.220178,-0.606173 0.527991,-1.098412 0.304515,-0.499301 0.81715,-1.087213 0.267853,-0.301496 0.322428,-0.451744 0.03952,-0.1088 -0.02695,-0.29715 l 0.130407,-0.116839 1.393077,1.444325 -0.132289,0.12202 q -0.172854,-0.05692 -0.260442,-0.04182 -0.09277,0.01322 -0.254262,0.118767 -0.353118,0.229473 -0.740969,0.780608 -0.393033,0.549252 -0.590629,1.093253 -0.402719,1.108727 -0.04635,2.065067 0.405394,1.079708 1.56075,1.499364 1.119088,0.406483 2.099846,-0.146278 0.899303,-0.50611 1.335896,-1.708094 0.212651,-0.585449 0.284951,-1.204284 0.0723,-0.618835 -0.01029,-1.117996 z" />
        <path
           inkscape:connector-curvature="0"
           id="path1575"
           style="stroke-width:0.26458332"
           d="m -88.217052,84.695061 -1.922606,2.825443 0.589686,1.014647 q 0.123368,0.210625 0.228183,0.281948 0.200515,0.136443 0.485753,-0.116171 l 0.145829,0.09923 -1.401642,2.059839 -0.145829,-0.09923 q 0.08758,-0.207095 0.06156,-0.364815 -0.02602,-0.15772 -0.206612,-0.46062 l -3.223777,-5.540623 q -0.153435,-0.264421 -0.29015,-0.357451 -0.209629,-0.142645 -0.48063,0.05965 l -0.145829,-0.09923 1.500873,-2.205668 0.14583,0.09923 q -0.105486,0.321589 0.08591,0.451831 0.132158,0.08993 0.359691,0.118078 l 6.406648,0.892502 q 0.407662,0.05738 0.599116,0.02097 0.186896,-0.03951 0.353595,-0.206098 l 0.145829,0.09923 -1.556691,2.287697 -0.145829,-0.09923 q 0.154536,-0.334884 -0.07788,-0.493034 -0.0957,-0.06512 -0.344564,-0.101117 z m -1.118874,-0.187967 -2.900099,-0.499941 1.520164,2.52788 z" />
        <path
           inkscape:connector-curvature="0"
           id="path1577"
           style="stroke-width:0.26458332"
           d="m -82.199009,77.427796 -1.390037,1.232258 q -0.127867,0.113353 -0.142671,0.229604 -0.01068,0.112594 0.07971,0.29765 l -0.131992,0.11701 -1.162782,-1.311667 0.131991,-0.11701 q 0.17654,0.11605 0.289603,0.118948 0.113531,-0.0049 0.241398,-0.118236 l 2.67283,-2.369444 0.11701,0.131991 q -0.111925,0.172884 -0.115291,0.293728 7.58e-4,0.117187 0.114111,0.245054 l 1.023834,1.154927 q 0.113353,0.127867 0.229604,0.142671 0.116251,0.0148 0.305432,-0.07924 l 0.09141,0.103119 q -0.792769,2.33809 -2.298299,3.67273 -1.365289,1.210318 -2.801437,1.326953 -1.808804,0.144975 -3.095909,-1.306933 -1.199349,-1.352915 -0.94353,-3.008747 0.242887,-1.570706 1.76079,-2.916316 0.482595,-0.427817 0.987887,-0.713697 0.505761,-0.293662 1.23671,-0.565965 0.379209,-0.137277 0.498827,-0.243317 0.08662,-0.07679 0.118011,-0.27404 l 0.170341,-0.04051 0.535734,1.933837 -0.174466,0.04417 q -0.124791,-0.13246 -0.20898,-0.160953 -0.08785,-0.03262 -0.280127,-0.01686 -0.41981,0.03331 -1.023539,0.332792 -0.607385,0.295357 -1.040483,0.679295 -0.882694,0.782501 -1.025496,1.793044 -0.158543,1.142356 0.656868,2.062172 0.789814,0.890944 1.91547,0.872769 1.031812,-0.01601 1.988752,-0.864332 0.466095,-0.41319 0.824746,-0.922653 0.358651,-0.509464 0.524085,-0.987601 z" />
        <path
           inkscape:connector-curvature="0"
           id="path1579"
           style="stroke-width:0.26458332"
           d="m -78.52541,74.301264 0.950753,1.829217 4.294259,-2.231981 q 0.146729,-0.07626 0.189395,-0.185411 0.04266,-0.109147 5.9e-5,-0.310643 l 0.15651,-0.08135 0.897369,1.726508 -0.156511,0.08135 q -0.140426,-0.150654 -0.254271,-0.178453 -0.113845,-0.0278 -0.260574,0.04846 l -6.064785,3.152229 -0.08135,-0.156511 q 0.150653,-0.140425 0.178452,-0.25427 0.0278,-0.113845 -0.05101,-0.265465 l -2.936149,-5.649055 q -0.07881,-0.151619 -0.187953,-0.194285 -0.109147,-0.04266 -0.310643,-5.9e-5 l -0.08135,-0.15651 5.947402,-3.091218 q 0.146729,-0.07626 0.189395,-0.185411 0.04012,-0.114039 -0.0025,-0.315534 l 0.15651,-0.08135 0.897369,1.726507 -0.156511,0.08135 q -0.137884,-0.145762 -0.251729,-0.173561 -0.113845,-0.0278 -0.260573,0.04846 l -4.176877,2.17097 0.823647,1.58467 2.70959,-1.408334 q 0.146728,-0.07626 0.189394,-0.185411 0.04266,-0.109148 5.9e-5,-0.310643 l 0.15651,-0.08135 0.877032,1.68738 -0.156511,0.08135 q -0.137884,-0.145763 -0.251729,-0.173562 -0.116387,-0.03269 -0.263115,0.04357 z" />
        <path
           inkscape:connector-curvature="0"
           id="path1581"
           style="stroke-width:0.26458332"
           d="m -71.737989,73.964979 -1.483751,-6.191226 q -0.03982,-0.166171 -0.135422,-0.233952 -0.0956,-0.06778 -0.301419,-0.07514 l -0.04111,-0.171532 4.079241,-0.977605 q 1.340092,-0.321158 2.131605,-0.187758 1.135815,0.198261 1.874334,1.103905 0.584002,0.710277 0.842213,1.787711 0.453475,1.89221 -0.472068,3.162644 -0.387592,0.53501 -0.997879,0.873988 -0.611572,0.333617 -1.624682,0.576412 l -4.07924,0.977606 -0.04111,-0.171532 q 0.180127,-0.09985 0.234618,-0.203601 0.05449,-0.103751 0.01467,-0.269922 z m 1.443234,-1.026065 2.004777,-0.480453 q 0.959506,-0.229949 1.378992,-0.608224 0.899665,-0.810772 0.509137,-2.440324 -0.282619,-1.179281 -0.9904,-1.672843 -0.394402,-0.273915 -0.868637,-0.313305 -0.47552,-0.04475 -1.20453,0.129959 l -2.004778,0.480453 z" />
        <path
           inkscape:connector-curvature="0"
           id="path1583"
           style="stroke-width:0.26458332"
           d="m -44.313061,74.45116 3.767978,-3.054007 q 0.239511,-0.194257 0.308815,-0.332163 0.106431,-0.211783 -0.186455,-0.439169 l 0.0792,-0.157607 2.300066,1.155888 -0.0792,0.157606 q -0.23156,-0.07935 -0.362316,-0.02785 -0.130755,0.0515 -0.562851,0.395738 l -4.856728,3.857886 q -0.30864,0.245883 -0.358142,0.344387 -0.126232,0.251185 0.161779,0.451445 l -0.07921,0.157607 -2.314841,-1.163313 0.0792,-0.157606 q 0.332564,0.111606 0.461271,-0.144504 0.04703,-0.09358 0.06016,-0.48797 l 0.197495,-6.199362 q 0.01838,-0.552148 -0.01832,-0.687804 -0.0367,-0.135656 -0.238559,-0.274113 l 0.0792,-0.157607 2.388719,1.20044 -0.0792,0.157606 q -0.35724,-0.09933 -0.463671,0.112452 -0.0693,0.137906 -0.08226,0.446019 z" />
        <path
           inkscape:connector-curvature="0"
           id="path1585"
           style="stroke-width:0.26458332"
           d="m -37.002557,79.763056 -2.638078,-2.172577 -1.064254,0.494571 q -0.221011,0.10362 -0.301607,0.201484 -0.154182,0.187218 0.07133,0.494331 l -0.112133,0.136159 -1.923244,-1.583878 0.112133,-0.136159 q 0.198231,0.106126 0.357669,0.09461 0.159437,-0.01151 0.477562,-0.163687 l 5.811852,-2.704372 q 0.277326,-0.128649 0.382451,-0.256297 0.161191,-0.195729 -0.01551,-0.484069 l 0.112133,-0.136159 2.059403,1.696011 -0.112133,0.136159 q -0.310613,-0.134411 -0.457788,0.0443 -0.10162,0.123394 -0.15043,0.347406 l -1.47379,6.298384 q -0.09436,0.40072 -0.07559,0.594698 0.02227,0.189723 0.172949,0.370937 l -0.112133,0.136159 -2.135992,-1.759086 0.112133,-0.136159 q 0.319374,0.18447 0.498086,-0.03253 0.07359,-0.08935 0.132158,-0.333891 z m 0.28935,-1.097036 0.762673,-2.842331 -2.656132,1.282982 z" />
        <path
           inkscape:connector-curvature="0"
           id="path1587"
           style="stroke-width:0.26458332"
           d="m -30.026528,86.903829 -0.629569,1.780007 -0.165328,-0.05523 q 0.02219,-0.209447 -0.03729,-0.288862 -0.05948,-0.07941 -0.545513,-0.286995 -1.00513,-0.431718 -1.549461,-0.836672 -0.536616,-0.403847 -1.071922,-1.118578 -1.067308,-1.42505 -1.076286,-2.843885 -0.01047,-0.832342 0.340598,-1.577352 0.398547,-0.856324 1.201516,-1.457717 1.094156,-0.819481 2.38067,-0.78445 1.933628,0.0531 3.39085,1.998757 0.535306,0.714731 0.768607,1.338862 0.2333,0.624131 0.367066,1.722241 0.0669,0.521494 0.12638,0.600909 0.05948,0.07941 0.266711,0.117035 l 0.0065,0.174188 -1.885226,0.103478 -0.0098,-0.178601 q 0.0772,-0.04405 0.125731,-0.08039 0.127945,-0.09583 0.155634,-0.288733 0.0321,-0.196211 -0.02055,-0.597531 -0.143679,-1.111346 -0.797942,-1.984906 -0.77322,-1.03239 -1.748721,-1.259036 -1.146347,-0.270858 -2.121382,0.459405 -0.975034,0.730263 -1.037553,1.906515 -0.05689,0.999867 0.716332,2.032257 0.654263,0.87356 1.680326,1.324034 0.370308,0.163406 0.563215,0.191095 0.197319,0.02439 0.325265,-0.07144 0.04853,-0.03635 0.108101,-0.09474 z" />
        <path
           inkscape:connector-curvature="0"
           id="path1589"
           style="stroke-width:0.26458332"
           d="m -27.553584,93.761893 -1.30934,-3.156767 -1.171868,-0.06295 q -0.243787,-0.01227 -0.360893,0.03631 -0.224029,0.09292 -0.169092,0.469956 l -0.16293,0.06758 -0.954551,-2.301384 0.16293,-0.06758 q 0.125206,0.186767 0.271386,0.251453 0.14618,0.06469 0.49851,0.07967 l 6.401187,0.340645 q 0.305262,0.0166 0.458009,-0.04675 0.234212,-0.09714 0.213556,-0.434692 l 0.16293,-0.06758 1.02213,2.464314 -0.16293,0.06758 q -0.211155,-0.264501 -0.425001,-0.175804 -0.147655,0.06124 -0.295918,0.236121 l -4.258164,4.869264 q -0.271444,0.309515 -0.345937,0.489599 -0.0694,0.177973 -0.02144,0.408714 l -0.16293,0.06758 -1.060143,-2.555962 0.16293,-0.06758 q 0.195389,0.312813 0.455058,0.205109 0.106923,-0.04435 0.27344,-0.232765 z m 0.770503,-0.832788 2.007781,-2.151588 -2.947549,-0.114156 z" />
        <path
           inkscape:connector-curvature="0"
           id="path1591"
           style="stroke-width:0.26458332"
           d="m -22.904101,98.244402 -4.533344,0.616615 q -0.169317,0.02303 -0.246306,0.111383 -0.07699,0.08835 -0.104863,0.292409 l -0.17478,0.02377 -0.297906,-2.190206 0.174779,-0.02377 q 0.08136,0.189198 0.179154,0.253777 0.09779,0.06458 0.267108,0.04155 l 6.31391,-0.858803 q 0.163856,-0.02229 0.240845,-0.11064 0.07699,-0.08835 0.104863,-0.292409 l 0.174779,-0.02377 0.34471,2.534303 -0.174779,0.02377 q -0.09203,-0.226688 -0.283191,-0.200686 -0.131084,0.01783 -0.268677,0.192307 l -3.717225,4.694478 4.424106,-0.60176 q 0.163856,-0.0223 0.240845,-0.11064 0.07699,-0.0883 0.104863,-0.29241 l 0.174779,-0.0238 0.297907,2.19021 -0.174779,0.0238 q -0.08136,-0.1892 -0.179154,-0.25378 -0.09779,-0.0646 -0.261647,-0.0423 l -6.31391,0.8588 q -0.169317,0.023 -0.246306,0.11139 -0.07699,0.0883 -0.104863,0.29241 l -0.17478,0.0238 -0.319451,-2.3486 0.17478,-0.0238 q 0.08036,0.22271 0.266062,0.19745 0.109237,-0.0149 0.345928,-0.31964 z" />
        <path
           inkscape:connector-curvature="0"
           id="path1593"
           style="stroke-width:0.26458332"
           d="m -21.395887,110.53952 -5.675069,-0.58439 q -0.169978,-0.0175 -0.265613,0.0502 -0.09564,0.0677 -0.170794,0.25948 l -0.175461,-0.0181 0.240531,-2.33583 0.175461,0.0181 q 0.0345,0.20304 0.114331,0.28884 0.07983,0.0858 0.249804,0.1033 l 5.675068,0.58439 0.239402,-2.32486 q 0.01694,-0.16449 -0.05079,-0.26013 -0.06225,-0.0951 -0.253995,-0.17023 l 0.01807,-0.17546 1.935555,0.19931 -0.01807,0.17546 q -0.209088,0.0394 -0.294321,0.11377 -0.0858,0.0798 -0.102737,0.24432 l -0.646498,6.27822 q -0.0175,0.16998 0.05023,0.26561 0.06773,0.0956 0.264961,0.17136 l -0.01807,0.17546 -1.935555,-0.19931 0.01807,-0.17546 q 0.20304,-0.0345 0.283355,-0.1149 0.0858,-0.0798 0.103302,-0.2498 z" />
      </g>
    </g>
  </g>
</svg>
