<?xml version="1.0" encoding="UTF-8" standalone="no"?>
<!-- Created with Inkscape (http://www.inkscape.org/) -->

<svg
   xmlns:dc="http://purl.org/dc/elements/1.1/"
   xmlns:cc="http://creativecommons.org/ns#"
   xmlns:rdf="http://www.w3.org/1999/02/22-rdf-syntax-ns#"
   xmlns:svg="http://www.w3.org/2000/svg"
   xmlns="http://www.w3.org/2000/svg"
   xmlns:sodipodi="http://sodipodi.sourceforge.net/DTD/sodipodi-0.dtd"
   xmlns:inkscape="http://www.inkscape.org/namespaces/inkscape"
   width="15cm"
   height="10cm"
   viewBox="0 0 150 99.999997"
   version="1.1"
   id="svg8"
   sodipodi:docname="EngagedPrint.svg"
   inkscape:version="0.92.4 (5da689c313, 2019-01-14)">
  <defs
     id="defs2" />
  <sodipodi:namedview
     id="base"
     pagecolor="#ffffff"
     bordercolor="#666666"
     borderopacity="1.0"
     inkscape:pageopacity="0.0"
     inkscape:pageshadow="2"
     inkscape:zoom="2.1071782"
     inkscape:cx="228.61654"
     inkscape:cy="233.81824"
     inkscape:document-units="mm"
     inkscape:current-layer="layer1"
     showgrid="false"
     units="cm"
     inkscape:window-width="1783"
     inkscape:window-height="880"
     inkscape:window-x="105"
     inkscape:window-y="1"
     inkscape:window-maximized="0" />
  <metadata
     id="metadata5">
    <rdf:RDF>
      <cc:Work
         rdf:about="">
        <dc:format>image/svg+xml</dc:format>
        <dc:type
           rdf:resource="http://purl.org/dc/dcmitype/StillImage" />
        <dc:title></dc:title>
      </cc:Work>
    </rdf:RDF>
  </metadata>
  <g
     inkscape:label="Layer 1"
     inkscape:groupmode="layer"
     id="layer1"
     transform="translate(0,-197.00002)">
    <circle
       style="opacity:0.469;vector-effect:none;fill:none;fill-opacity:1;fill-rule:nonzero;stroke:#000000;stroke-width:0.1;stroke-linecap:butt;stroke-linejoin:miter;stroke-miterlimit:4;stroke-dasharray:none;stroke-dashoffset:0;stroke-opacity:1"
       id="path815"
       cx="75.25"
       cy="246.95003"
       r="50" />
    <rect
       style="opacity:1;vector-effect:none;fill:#fe0000;fill-opacity:1;fill-rule:nonzero;stroke:none;stroke-width:0.5;stroke-linecap:butt;stroke-linejoin:miter;stroke-miterlimit:4;stroke-dasharray:none;stroke-dashoffset:0;stroke-opacity:1"
       id="rect819"
       width="10"
       height="100"
       x="0"
       y="197.00002" />
    <rect
       y="197.00002"
       x="10"
       height="100"
       width="10"
       id="rect821"
       style="opacity:1;vector-effect:none;fill:#00ff00;fill-opacity:1;fill-rule:nonzero;stroke:none;stroke-width:0.5;stroke-linecap:butt;stroke-linejoin:miter;stroke-miterlimit:4;stroke-dasharray:none;stroke-dashoffset:0;stroke-opacity:1" />
    <rect
       style="opacity:1;vector-effect:none;fill:#fefe00;fill-opacity:1;fill-rule:nonzero;stroke:none;stroke-width:0.5;stroke-linecap:butt;stroke-linejoin:miter;stroke-miterlimit:4;stroke-dasharray:none;stroke-dashoffset:0;stroke-opacity:1"
       id="rect832"
       width="10"
       height="100"
       x="140"
       y="197.00002" />
    <rect
       y="197.00002"
       x="130"
       height="100"
       width="10"
       id="rect834"
       style="opacity:1;vector-effect:none;fill:#0000ff;fill-opacity:1;fill-rule:nonzero;stroke:none;stroke-width:0.5;stroke-linecap:butt;stroke-linejoin:miter;stroke-miterlimit:4;stroke-dasharray:none;stroke-dashoffset:0;stroke-opacity:1" />
    <circle
       style="opacity:1;vector-effect:none;fill:#fefe00;fill-opacity:0.47111116;fill-rule:nonzero;stroke:#000000;stroke-width:0.1;stroke-linecap:butt;stroke-linejoin:miter;stroke-miterlimit:4;stroke-dasharray:none;stroke-dashoffset:0;stroke-opacity:1"
       id="path842"
       cx="75.462502"
       cy="246.53751"
       r="27" />
    <circle
       cy="-257.71893"
       cx="-7.5019679"
       id="circle853"
       style="opacity:1;vector-effect:none;fill:#fefe00;fill-opacity:0.47111116;fill-rule:nonzero;stroke:#000000;stroke-width:0.1;stroke-linecap:butt;stroke-linejoin:miter;stroke-miterlimit:4;stroke-dasharray:none;stroke-dashoffset:0;stroke-opacity:1"
       r="35"
       transform="rotate(164.64857)" />
    <g
       id="g989"
       transform="translate(-142.43131,3.9144291)">
      <path
         inkscape:connector-curvature="0"
         id="path970"
         d="m 217.7181,193.62354 a 48.999999,48.999999 0 0 0 -48.99959,49.00011 48.999999,48.999999 0 0 0 48.99959,49.00011 48.999999,48.999999 0 0 0 0.1757,-0.009 v -22.5454 c -0.0586,4.5e-4 -0.11703,0.003 -0.1757,0.003 -13.84841,0 -26.44903,-12.60063 -26.44903,-26.44903 0,-13.84843 12.60062,-26.44955 26.44903,-26.44955 0.0587,0 0.11708,0.002 0.1757,0.003 v -22.54643 a 48.999999,48.999999 0 0 0 -0.1757,-0.006 z"
         style="opacity:1;vector-effect:none;fill:#ff0000;fill-opacity:1;fill-rule:nonzero;stroke:none;stroke-width:0.1;stroke-linecap:butt;stroke-linejoin:miter;stroke-miterlimit:4;stroke-dasharray:none;stroke-dashoffset:0;stroke-opacity:1" />
      <path
         inkscape:connector-curvature="0"
         style="opacity:1;vector-effect:none;fill:#00fe00;fill-opacity:0.98666669;fill-rule:nonzero;stroke:none;stroke-width:0.1;stroke-linecap:butt;stroke-linejoin:miter;stroke-miterlimit:4;stroke-dasharray:none;stroke-dashoffset:0;stroke-opacity:1"
         d="m 218.0695,291.62261 a 48.999999,48.999999 0 0 0 48.99959,-49.00011 48.999999,48.999999 0 0 0 -48.99959,-49.00011 48.999999,48.999999 0 0 0 -0.1757,0.009 v 22.54539 c 0.0586,-4.5e-4 0.11703,-0.003 0.1757,-0.003 13.84842,0 26.44903,12.60062 26.44903,26.44903 0,13.84842 -12.60061,26.44955 -26.44903,26.44955 -0.0587,0 -0.11708,-0.002 -0.1757,-0.003 v 22.54643 a 48.999999,48.999999 0 0 0 0.1757,0.006 z"
         id="path982" />
    </g>
    <g
       aria-label="ENGAGED       VACANT"
       style="font-style:normal;font-variant:normal;font-weight:normal;font-stretch:normal;font-size:11.28888988px;line-height:1.25;font-family:'Copperplate Gothic Bold';-inkscape-font-specification:'Copperplate Gothic Bold, ';letter-spacing:-1.05833328px;word-spacing:0px;fill:#000000;fill-opacity:1;stroke:none;stroke-width:0.29616827"
       id="text964">
      <path
         d="m 37.797392,253.68869 2.0395,-0.30069 -0.705886,-4.78791 q -0.02412,-0.1636 -0.113328,-0.2396 -0.08921,-0.076 -0.293564,-0.10158 l -0.02573,-0.1745 1.924982,-0.28381 0.02573,0.17451 q -0.188275,0.0835 -0.251757,0.18198 -0.06348,0.0985 -0.03936,0.2621 l 0.996923,6.76198 -0.174502,0.0257 q -0.08347,-0.18828 -0.181982,-0.25176 -0.09851,-0.0635 -0.267556,-0.0386 l -6.298454,0.92859 q -0.16905,0.0249 -0.245046,0.11413 -0.07599,0.0892 -0.101584,0.29356 l -0.174503,0.0257 -0.977628,-6.6311 q -0.02412,-0.1636 -0.113328,-0.23959 -0.09466,-0.0752 -0.299016,-0.10078 l -0.02573,-0.17451 1.924982,-0.2838 0.02573,0.1745 q -0.182823,0.0827 -0.246304,0.18118 -0.06348,0.0985 -0.03936,0.26211 l 0.68659,4.65703 1.766839,-0.26048 -0.445399,-3.02108 q -0.02412,-0.16359 -0.113328,-0.23959 -0.08921,-0.076 -0.293563,-0.10159 l -0.02573,-0.1745 1.881356,-0.27737 0.02573,0.1745 q -0.182823,0.0827 -0.246304,0.18118 -0.06894,0.0993 -0.04481,0.26291 z"
         style="stroke-width:0.29616827"
         id="path991" />
      <path
         d="m 35.244952,245.40869 4.55776,0.39781 q 0.170229,0.0149 0.2648,-0.0543 0.09457,-0.0692 0.166737,-0.2621 l 0.175721,0.0153 -0.192193,2.20201 -0.175721,-0.0153 q -0.03766,-0.20248 -0.118809,-0.28703 -0.08115,-0.0845 -0.25138,-0.0994 l -6.347916,-0.55405 q -0.164738,-0.0144 -0.259309,0.0548 -0.09457,0.0692 -0.166737,0.2621 l -0.175721,-0.0153 0.222388,-2.54795 0.175721,0.0153 q 0.0398,0.24139 0.231989,0.25817 0.131791,0.0115 0.304458,-0.12835 l 4.660571,-3.75966 -4.447934,-0.38822 q -0.164739,-0.0144 -0.259309,0.0548 -0.09457,0.0692 -0.166737,0.26211 l -0.175721,-0.0153 0.192193,-2.202 0.175721,0.0153 q 0.03766,0.20248 0.118809,0.28703 0.08115,0.0846 0.245888,0.0989 l 6.347916,0.55406 q 0.17023,0.0149 0.2648,-0.0543 0.09457,-0.0692 0.166738,-0.26211 l 0.17572,0.0153 -0.206092,2.36125 -0.175721,-0.0153 q -0.02929,-0.23494 -0.215995,-0.25124 -0.109825,-0.01 -0.407874,0.23552 z"
         style="stroke-width:0.29616827"
         id="path993" />
      <path
         d="m 40.672208,231.76765 -0.609036,1.75492 q -0.05602,0.16143 -0.01204,0.27005 0.0458,0.10341 0.215193,0.22055 l -0.05783,0.16663 -1.655976,-0.57469 0.05783,-0.16664 q 0.210748,0.0148 0.310761,-0.038 0.09661,-0.0598 0.152637,-0.22126 l 1.171084,-3.37444 0.166639,0.0578 q -0.01299,0.20554 0.04323,0.31257 0.05802,0.10182 0.21945,0.15784 l 1.458092,0.50603 q 0.161431,0.056 0.270052,0.012 0.108621,-0.044 0.227563,-0.21859 l 0.130187,0.0452 q 0.453047,2.42691 -0.206591,4.32764 -0.598193,1.72367 -1.793476,2.5283 -1.506381,1.01173 -3.339411,0.37559 -1.70805,-0.59277 -2.295409,-2.16192 -0.55697,-1.48859 0.10809,-3.40494 0.211446,-0.60927 0.512154,-1.10588 0.297309,-0.50363 0.801444,-1.09885 0.263493,-0.30531 0.315903,-0.45633 0.03795,-0.10935 -0.03122,-0.29673 l 0.128715,-0.1187 1.413687,1.42416 -0.130522,0.12391 q -0.173654,-0.0544 -0.261016,-0.0381 -0.09257,0.0146 -0.25253,0.12241 -0.349784,0.23453 -0.729676,0.79118 -0.3851,0.55484 -0.574858,1.10162 -0.386747,1.1144 -0.01667,2.06552 0.420867,1.07378 1.582133,1.47679 1.124814,0.39036 2.097528,-0.17644 0.891938,-0.51898 1.311215,-1.72711 0.204217,-0.58845 0.267618,-1.20826 0.0634,-0.61981 -0.02636,-1.11773 z"
         style="stroke-width:0.29616827"
         id="path995" />
      <path
         d="m 45.179908,225.35313 -1.829289,2.88674 0.622514,0.99484 q 0.130183,0.20649 0.237271,0.27435 0.204865,0.12982 0.481699,-0.13198 l 0.148993,0.0944 -1.333611,2.10452 -0.148993,-0.0944 q 0.08077,-0.20984 0.04961,-0.36663 -0.03116,-0.15678 -0.221548,-0.45362 l -3.403037,-5.43237 q -0.16199,-0.25926 -0.301671,-0.34778 -0.214177,-0.13572 -0.478425,0.0753 l -0.148993,-0.0944 1.428026,-2.25352 0.148993,0.0944 q -0.09492,0.32487 0.100628,0.44879 0.135025,0.0856 0.363357,0.10626 l 6.432382,0.68276 q 0.409319,0.044 0.599481,0.001 0.185507,-0.0456 0.346674,-0.21753 l 0.148993,0.0944 -1.481134,2.33733 -0.148993,-0.0944 q 0.143515,-0.33975 -0.09394,-0.49023 -0.09778,-0.062 -0.347683,-0.0898 z m -1.124417,-0.15132 -2.914881,-0.40494 1.601924,2.47687 z"
         style="stroke-width:0.29616827"
         id="path997" />
      <path
         d="m 50.748803,217.94831 -1.324648,1.30229 q -0.121852,0.1198 -0.130642,0.23666 -0.0049,0.11299 0.09495,0.29314 l -0.125783,0.12366 -1.22887,-1.24996 0.125782,-0.12366 q 0.182289,0.10679 0.295351,0.10385 0.113128,-0.0107 0.23498,-0.13052 l 2.547099,-2.50411 0.12366,0.12578 q -0.102862,0.17842 -0.09999,0.29928 0.0068,0.11699 0.126596,0.23884 l 1.082024,1.1006 q 0.119796,0.12185 0.236655,0.13064 0.11686,0.009 0.30094,-0.0949 l 0.09661,0.0983 q -0.671154,2.37586 -2.105863,3.78635 -1.301064,1.27911 -2.729288,1.46964 -1.798922,0.23805 -3.159181,-1.14556 -1.267514,-1.28927 -1.097416,-2.95609 0.161572,-1.58114 1.608073,-3.00323 0.459892,-0.45213 0.949772,-0.76369 0.489945,-0.31935 1.205881,-0.62898 0.371626,-0.15665 0.485617,-0.26871 0.08255,-0.0812 0.103724,-0.27976 l 0.168026,-0.0493 0.634736,1.90365 -0.171956,0.0531 q -0.131455,-0.12585 -0.217002,-0.14996 -0.08941,-0.0281 -0.280623,-0.002 -0.417534,0.0549 -1.005018,0.38513 -0.591347,0.32628 -1.004072,0.73204 -0.841171,0.82697 -0.931676,1.84354 -0.09943,1.14901 0.762327,2.02555 0.834704,0.84904 1.957925,0.77284 1.029614,-0.0692 1.941538,-0.96572 0.44417,-0.43668 0.776075,-0.96396 0.331904,-0.52728 0.472464,-1.01331 z"
         style="stroke-width:0.29616827"
         id="path999" />
      <path
         d="m 54.071612,214.71282 1.076227,1.75833 4.127831,-2.52654 q 0.141042,-0.0863 0.175978,-0.19819 0.03494,-0.11187 -0.02164,-0.30989 l 0.150445,-0.0921 1.015797,1.6596 -0.150445,0.0921 q -0.150608,-0.14047 -0.266117,-0.16025 -0.115509,-0.0198 -0.256551,0.0666 l -5.829739,3.56824 -0.09208,-0.15044 q 0.140475,-0.15061 0.160253,-0.26612 0.01978,-0.11551 -0.06943,-0.26125 l -3.323641,-5.43012 q -0.08921,-0.14575 -0.201067,-0.18068 -0.111862,-0.0349 -0.309888,0.0216 l -0.09208,-0.15044 5.716905,-3.49918 q 0.141042,-0.0863 0.175978,-0.19819 0.03206,-0.11656 -0.02452,-0.31459 l 0.150444,-0.0921 1.015797,1.65959 -0.150444,0.0921 q -0.147731,-0.13578 -0.26324,-0.15555 -0.115509,-0.0198 -0.256551,0.0666 l -4.014998,2.45748 0.932347,1.52325 2.604576,-1.5942 q 0.141043,-0.0863 0.175978,-0.19819 0.03494,-0.11186 -0.02164,-0.30988 l 0.150445,-0.0921 0.992776,1.62199 -0.150445,0.0921 q -0.14773,-0.13577 -0.263239,-0.15555 -0.118387,-0.0245 -0.259429,0.0618 z"
         style="stroke-width:0.29616827"
         id="path1001" />
      <path
         d="m 60.683715,213.95975 -2.013695,-6.03969 q -0.05405,-0.1621 -0.155151,-0.22136 -0.101104,-0.0593 -0.306789,-0.0488 l -0.05579,-0.16733 3.979396,-1.32677 q 1.307291,-0.43587 2.107377,-0.37143 1.148707,0.0993 1.962791,0.93765 0.643248,0.6571 0.993683,1.70817 0.615441,1.84589 -0.196748,3.19162 -0.339864,0.56653 -0.918545,0.95702 -0.580424,0.38527 -1.568737,0.71478 l -3.979396,1.32677 -0.05579,-0.16733 q 0.170816,-0.11506 0.216129,-0.22313 0.04531,-0.10808 -0.0087,-0.27018 z m 1.349076,-1.14705 1.955709,-0.65205 q 0.93602,-0.31208 1.321216,-0.72522 0.826166,-0.88555 0.296155,-2.47522 -0.383561,-1.15042 -1.131379,-1.58091 -0.416617,-0.23878 -0.892482,-0.237 -0.477609,-0.003 -1.188775,0.23366 l -1.955709,0.65205 z"
         style="stroke-width:0.29616827"
         id="path1003" />
      <path
         d="m 85.035557,210.60107 3.03945,-3.77973 q 0.193176,-0.24038 0.231849,-0.3898 0.05939,-0.22946 -0.27485,-0.38999 l 0.0442,-0.17076 2.492056,0.64501 -0.0442,0.17076 q -0.243085,-0.0287 -0.360044,0.0492 -0.11696,0.0779 -0.466772,0.5055 l -3.934259,4.79507 q -0.249866,0.30543 -0.27749,0.41215 -0.07044,0.27215 0.253317,0.4072 l -0.0442,0.17076 -2.508064,-0.64916 0.0442,-0.17076 q 0.348618,0.039 0.42044,-0.2385 0.02624,-0.10139 -0.04407,-0.48969 l -1.113888,-6.10166 q -0.09844,-0.54362 -0.162912,-0.66849 -0.06448,-0.12487 -0.290985,-0.21766 l 0.0442,-0.17076 2.588108,0.66987 -0.0442,0.17077 q -0.370152,-0.0218 -0.429543,0.20767 -0.03867,0.14942 0.01362,0.45334 z"
         style="stroke-width:0.29616827"
         id="path1005" />
      <path
         d="m 93.183381,214.11593 -3.062293,-1.5172 -0.924249,0.72319 q -0.191728,0.15107 -0.248012,0.26467 -0.107672,0.21732 0.181652,0.46525 l -0.07831,0.15805 -2.23251,-1.10609 0.07831,-0.15805 q 0.217144,0.0584 0.369809,0.011 0.152665,-0.0474 0.427955,-0.26779 l 5.046481,-3.95276 q 0.240896,-0.18823 0.314309,-0.3364 0.112567,-0.2272 -0.124964,-0.46792 l 0.07831,-0.15805 2.390564,1.18439 -0.07831,0.15806 q -0.333012,-0.0604 -0.435791,0.14703 -0.07097,0.14324 -0.06766,0.37248 l -0.006,6.46851 q -9.63e-4,0.41168 0.06134,0.59634 0.06475,0.17972 0.252618,0.32201 l -0.07831,0.15805 -2.47947,-1.22844 0.07831,-0.15806 q 0.352904,0.10718 0.477706,-0.14472 0.05139,-0.10372 0.05294,-0.35517 z m 0.03284,-1.13408 0.09773,-2.94125 -2.295669,1.85229 z"
         style="stroke-width:0.29616827"
         id="path1007" />
      <path
         d="m 101.52993,219.27496 -0.17237,1.88018 -0.17384,-0.0129 q -0.03,-0.20847 -0.1072,-0.27082 -0.0772,-0.0623 -0.59934,-0.14399 -1.080446,-0.1712 -1.707664,-0.42982 -0.619468,-0.25944 -1.314138,-0.82053 -1.385054,-1.11872 -1.742768,-2.49175 -0.214892,-0.8042 -0.05787,-1.61267 0.175659,-0.92805 0.806023,-1.70848 0.858958,-1.06345 2.114558,-1.34596 1.88728,-0.42417 3.77833,1.10325 0.69467,0.56109 1.07433,1.10866 0.37965,0.54756 0.77943,1.57903 0.19312,0.48901 0.27031,0.55136 0.0772,0.0623 0.2873,0.0478 l 0.0491,0.16724 -1.80185,0.56403 -0.0534,-0.1707 q 0.064,-0.0617 0.10209,-0.10885 0.10044,-0.12436 0.0798,-0.31815 -0.0172,-0.19808 -0.1669,-0.57411 -0.41264,-1.04186 -1.26168,-1.72764 -1.00342,-0.81047 -2.004694,-0.79019 -1.177752,0.0194 -1.943194,0.96711 -0.765442,0.94767 -0.5367,2.10316 0.190811,0.98314 1.194224,1.79361 0.849042,0.68578 1.954384,0.87001 0.39913,0.0673 0.59292,0.0467 0.19725,-0.0249 0.2977,-0.14926 0.0381,-0.0472 0.0815,-0.11842 z"
         style="stroke-width:0.29616827"
         id="path1009" />
      <path
         d="m 105.58388,225.11847 -2.09647,-2.69895 -1.1469,0.24874 q -0.23837,0.0525 -0.33849,0.13032 -0.19154,0.14878 -0.039,0.49792 l -0.1393,0.10821 -1.5284,-1.96762 0.1393,-0.10821 q 0.17008,0.14708 0.32815,0.17087 0.15808,0.0238 0.50186,-0.0548 l 6.26392,-1.36183 q 0.29881,-0.0646 0.4294,-0.16604 0.20025,-0.15554 0.0912,-0.47565 l 0.1393,-0.10821 1.6366,2.10692 -0.1393,0.10821 q -0.2735,-0.19935 -0.45634,-0.0573 -0.12624,0.0981 -0.22306,0.30588 l -2.82117,5.82088 q -0.18007,0.37021 -0.20437,0.56358 -0.0199,0.18998 0.0873,0.39986 l -0.1393,0.10821 -1.69747,-2.18528 0.1393,-0.10821 q 0.27106,0.25012 0.49307,0.0777 0.0914,-0.071 0.20226,-0.29671 z m 0.52324,-1.0067 1.36833,-2.60541 -2.87306,0.66826 z"
         style="stroke-width:0.29616827"
         id="path1011" />
      <path
         d="m 111.17291,228.00876 -4.1801,1.85961 q -0.15612,0.0695 -0.20534,0.17581 -0.0492,0.10636 -0.0189,0.31007 l -0.16116,0.0717 -0.89844,-2.01955 0.16116,-0.0717 q 0.13102,0.1589 0.24297,0.19356 0.11195,0.0347 0.26807,-0.0348 l 5.82193,-2.59001 q 0.15109,-0.0672 0.2003,-0.17357 0.0492,-0.10636 0.0189,-0.31007 l 0.16116,-0.0717 1.03959,2.33683 -0.16116,0.0717 q -0.15174,-0.19192 -0.32801,-0.1135 -0.12087,0.0538 -0.20419,0.25976 l -2.2563,5.54662 4.07938,-1.8148 q 0.15108,-0.0672 0.2003,-0.17357 0.0492,-0.10636 0.0189,-0.31007 l 0.16116,-0.0717 0.89844,2.01954 -0.16116,0.0717 q -0.13102,-0.1589 -0.24297,-0.19356 -0.11195,-0.0347 -0.26304,0.0325 l -5.82192,2.59002 q -0.15613,0.0694 -0.20534,0.17581 -0.0492,0.10635 -0.0189,0.31006 l -0.16116,0.0717 -0.96341,-2.1656 0.16116,-0.0717 q 0.13942,0.19136 0.31066,0.11518 0.10072,-0.0448 0.24275,-0.40361 z"
         style="stroke-width:0.29616827"
         id="path1013" />
      <path
         d="m 116.08416,239.11646 -5.58986,1.14079 q -0.16743,0.0342 -0.23841,0.12742 -0.071,0.0933 -0.0853,0.2987 l -0.17283,0.0353 -0.46954,-2.30076 0.17282,-0.0353 q 0.0937,0.18341 0.19554,0.24139 0.10184,0.058 0.26927,0.0238 l 5.58986,-1.14079 -0.46734,-2.28996 q -0.0331,-0.16202 -0.12632,-0.233 -0.0878,-0.0721 -0.29329,-0.0864 l -0.0353,-0.17282 1.9065,-0.38908 0.0353,0.17282 q -0.18771,0.10019 -0.24679,0.19664 -0.058,0.10184 -0.0249,0.26387 l 1.26204,6.18395 q 0.0342,0.16742 0.12741,0.2384 0.0932,0.071 0.3041,0.0842 l 0.0353,0.17283 -1.90649,0.38908 -0.0353,-0.17283 q 0.18341,-0.0937 0.23598,-0.19443 0.058,-0.10184 0.0238,-0.26927 z"
         style="stroke-width:0.29616827"
         id="path1015" />
    </g>
  </g>
</svg>
