<svg enable-background="new 0 0 1650.098 1650.098" version="1.1" viewBox="0 0 1650.1 1650.1" xmlns="http://www.w3.org/2000/svg">
 <path d="m1114.2 194.73c-30.86-9.258-69.435-33.946-66.349-58.634 1.543-24.688 44.747-47.833 80.236-55.548 55.256-12.012 100.58 16.668 126.53 12.344 9.258-1.543 15.43-7.715 15.43-13.887s-7.715-12.344-10.801-15.43-4.629-3.086-3.086-4.629c4.83-4.83 46.3-10.003 60.177 24.688 3.086 7.715 0 12.344 0 15.43-4.17 8.34 10.671-10.308 26.231-7.715 9.258 0 18.516 7.715 20.059 15.43 2.098 10.49-10.801 19.976-10.801 23.145 1.543 0 22.573 5.538 46.29-3.086 75.679-27.52 19.764-99.411 13.887-81.779-1.543 4.629 1.543 12.344-1.543 20.059-11.601 29.002-45.902 7.197-38.575-12.344 5.097-20.389 52.641-44.795 81.779-10.801 10.801 9.258 13.887 21.602 16.973 27.774 1.543 6.172 1.543 6.172 3.086 6.172 0 0 5.173-20.059 10.801-20.059 8.816 0 29.173 32.619 4.629 69.435-29.542 37.983-88.866 32.403-83.322 32.403l6.172 3.086c61.001 30.501-48.536 57.931-106.47 0-7.985-5.989-6.172-6.476-6.172 1.543 0 15.482 4.452 32.492-26.231 47.833-14.109 7.054 3.132-11.397-16.973-40.118-10.801-15.43-32.403-33.946-55.548-47.833-89.995-47.997-149.63 8.507-89.494 38.575 15.774 7.887 9.91-20.059 16.973-20.059 4.629 0 16.973 4.629 20.059 12.344 7.396 9.861-4.832 27.976 0 23.145 8.352-8.352 21.539-3.133 27.774 1.543 6.172 4.629 10.801 9.258 1.543 15.43s-32.403 12.344-63.263 3.086v-1.543z"/>
 <path d="m194.73 535.88c-9.258 30.86-33.946 69.435-58.634 66.349-24.688-1.543-47.833-44.747-55.548-80.236-12.012-55.257 16.668-100.58 12.344-126.53-1.543-9.258-7.715-15.43-13.887-15.43s-12.344 7.715-15.43 10.801-3.086 4.629-4.629 3.086c-4.83-4.83-10.003-46.3 24.688-60.177 7.715-3.086 12.344 0 15.43 0 8.34 4.17-10.308-10.671-7.715-26.231 0-9.258 7.715-18.516 15.43-20.059 10.49-2.098 19.976 10.801 23.145 10.801 0-1.543 5.538-22.573-3.086-46.29-27.52-75.679-99.411-19.764-81.779-13.887 4.629 1.543 12.344-1.543 20.059 1.543 29.002 11.601 7.197 45.903-12.344 38.575-20.389-5.097-44.795-52.641-10.801-81.779 9.258-10.801 21.602-13.887 27.774-16.973 6.172-1.543 6.172-1.543 6.172-3.086 0 0-20.059-5.173-20.059-10.801 0-8.816 32.619-29.173 69.435-4.629 37.983 29.542 32.403 88.866 32.403 83.322l3.086-6.172c30.501-61.001 57.931 48.536 0 106.47-5.989 7.985-6.476 6.172 1.543 6.172 15.482 0 32.492-4.452 47.833 26.231 7.054 14.109-11.397-3.132-40.118 16.973-15.43 10.801-33.946 32.403-47.833 55.548-47.997 89.994 8.507 149.63 38.575 89.494 7.887-15.774-20.059-9.91-20.059-16.973 0-4.629 4.629-16.973 12.344-20.059 9.861-7.396 27.976 4.832 23.145 0-8.352-8.352-3.133-21.539 1.543-27.774 4.629-6.172 9.258-10.801 15.43-1.543s12.344 32.403 3.086 63.263h-1.543z"/>
 <path d="m535.88 1455.4c30.86 9.258 69.435 33.946 66.349 58.634-1.543 24.688-44.747 47.833-80.236 55.548-55.257 12.012-100.58-16.668-126.53-12.344-9.258 1.543-15.43 7.715-15.43 13.887s7.715 12.344 10.801 15.43 4.629 3.086 3.086 4.629c-4.83 4.83-46.3 10.003-60.177-24.688-3.086-7.715 0-12.344 0-15.43 4.17-8.34-10.671 10.308-26.231 7.715-9.258 0-18.516-7.715-20.059-15.43-2.098-10.49 10.801-19.976 10.801-23.145-1.543 0-22.573-5.538-46.29 3.086-75.679 27.52-19.764 99.411-13.887 81.779 1.543-4.629-1.543-12.344 1.543-20.059 11.601-29.002 45.903-7.197 38.575 12.344-5.097 20.389-52.641 44.795-81.779 10.801-10.801-9.258-13.887-21.602-16.973-27.774-1.543-6.172-1.543-6.172-3.086-6.172 0 0-5.173 20.059-10.801 20.059-8.816 0-29.173-32.619-4.629-69.435 29.542-37.983 88.866-32.403 83.322-32.403l-6.172-3.086c-61.001-30.5 48.536-57.931 106.47 0 7.985 5.989 6.172 6.476 6.172-1.543 0-15.482-4.452-32.492 26.231-47.833 14.109-7.054-3.132 11.397 16.973 40.118 10.801 15.43 32.403 33.946 55.548 47.833 89.994 47.997 149.63-8.507 89.494-38.575-15.774-7.887-9.91 20.059-16.973 20.059-4.629 0-16.973-4.629-20.059-12.344-7.396-9.861 4.832-27.976 0-23.145-8.352 8.352-21.539 3.133-27.774-1.543-6.172-4.629-10.801-9.258-1.543-15.43s32.403-12.344 63.263-3.086v1.543z"/>
 <path d="m1455.4 1114.2c9.258-30.86 33.946-69.435 58.634-66.349 24.688 1.543 47.833 44.747 55.548 80.236 12.012 55.256-16.668 100.58-12.344 126.53 1.543 9.258 7.715 15.43 13.887 15.43s12.344-7.715 15.43-10.801 3.086-4.629 4.629-3.086c4.83 4.83 10.003 46.3-24.688 60.177-7.715 3.086-12.344 0-15.43 0-8.34-4.17 10.308 10.671 7.715 26.231 0 9.258-7.715 18.516-15.43 20.059-10.49 2.098-19.976-10.801-23.145-10.801 0 1.543-5.538 22.573 3.086 46.29 27.52 75.679 99.411 19.764 81.779 13.887-4.629-1.543-12.344 1.543-20.059-1.543-29.002-11.601-7.197-45.902 12.344-38.575 20.389 5.097 44.795 52.641 10.801 81.779-9.258 10.801-21.602 13.887-27.774 16.973-6.172 1.543-6.172 1.543-6.172 3.086 0 0 20.059 5.173 20.059 10.801 0 8.816-32.619 29.173-69.435 4.629-37.983-29.542-32.403-88.866-32.403-83.322l-3.086 6.172c-30.5 61.001-57.931-48.536 0-106.47 5.989-7.985 6.476-6.172-1.543-6.172-15.482 0-32.492 4.452-47.833-26.231-7.054-14.109 11.397 3.132 40.118-16.973 15.43-10.801 33.946-32.403 47.833-55.548 47.997-89.995-8.507-149.63-38.575-89.494-7.887 15.774 20.059 9.91 20.059 16.973 0 4.629-4.629 16.973-12.344 20.059-9.861 7.396-27.976-4.832-23.145 0 8.352 8.352 3.133 21.539-1.543 27.774-4.629 6.172-9.258 10.801-15.43 1.543s-12.344-32.403-3.086-63.263h1.543z"/>
 <path d="m1455.4 535.88c9.258 30.86 33.946 69.435 58.634 66.349 24.688-1.543 47.833-44.747 55.548-80.236 12.012-55.257-16.668-100.58-12.344-126.53 1.543-9.258 7.715-15.43 13.887-15.43s12.344 7.715 15.43 10.801 3.086 4.629 4.629 3.086c4.83-4.83 10.003-46.3-24.688-60.177-7.715-3.086-12.344 0-15.43 0-8.34 4.17 10.308-10.671 7.715-26.231 0-9.258-7.715-18.516-15.43-20.059-10.49-2.098-19.976 10.801-23.145 10.801 0-1.543-5.538-22.573 3.086-46.29 27.52-75.679 99.411-19.764 81.779-13.887-4.629 1.543-12.344-1.543-20.059 1.543-29.002 11.601-7.197 45.903 12.344 38.575 20.389-5.097 44.795-52.641 10.801-81.779-9.258-10.801-21.602-13.887-27.774-16.973-6.172-1.543-6.172-1.543-6.172-3.086 0 0 20.059-5.173 20.059-10.801 0-8.816-32.619-29.173-69.435-4.629-37.983 29.542-32.403 88.866-32.403 83.322l-3.086-6.172c-30.5-61.001-57.931 48.536 0 106.47 5.989 7.985 6.476 6.172-1.543 6.172-15.482 0-32.492-4.452-47.833 26.231-7.054 14.109 11.397-3.132 40.118 16.973 15.43 10.801 33.946 32.403 47.833 55.548 47.997 89.994-8.507 149.63-38.575 89.494-7.887-15.774 20.059-9.91 20.059-16.973 0-4.629-4.629-16.973-12.344-20.059-9.861-7.396-27.976 4.832-23.145 0 8.352-8.352 3.133-21.539-1.543-27.774-4.629-6.172-9.258-10.801-15.43-1.543s-12.344 32.403-3.086 63.263h1.543z"/>
 <path d="m535.88 194.73c30.86-9.258 69.435-33.946 66.349-58.634-1.543-24.688-44.747-47.833-80.236-55.548-55.257-12.012-100.58 16.668-126.53 12.344-9.258-1.543-15.43-7.715-15.43-13.887s7.715-12.344 10.801-15.43 4.629-3.086 3.086-4.629c-4.83-4.83-46.3-10.003-60.177 24.688-3.086 7.715 0 12.344 0 15.43 4.17 8.34-10.671-10.308-26.231-7.715-9.258 0-18.516 7.715-20.059 15.43-2.098 10.49 10.801 19.976 10.801 23.145-1.543 0-22.573 5.538-46.29-3.086-75.679-27.52-19.764-99.411-13.887-81.779 1.543 4.629-1.543 12.344 1.543 20.059 11.601 29.002 45.903 7.197 38.575-12.344-5.097-20.389-52.641-44.795-81.779-10.801-10.801 9.258-13.887 21.602-16.973 27.774-1.543 6.172-1.543 6.172-3.086 6.172 0 0-5.173-20.059-10.801-20.059-8.816 0-29.173 32.619-4.629 69.435 29.542 37.983 88.866 32.403 83.322 32.403l-6.172 3.086c-61.001 30.501 48.536 57.931 106.47 0 7.985-5.989 6.172-6.476 6.172 1.543 0 15.482-4.452 32.492 26.231 47.833 14.109 7.054-3.132-11.397 16.973-40.118 10.801-15.43 32.403-33.946 55.548-47.833 89.994-47.997 149.63 8.507 89.494 38.575-15.774 7.887-9.91-20.059-16.973-20.059-4.629 0-16.973 4.629-20.059 12.344-7.396 9.861 4.832 27.976 0 23.145-8.352-8.352-21.539-3.133-27.774 1.543-6.172 4.629-10.801 9.258-1.543 15.43s32.403 12.344 63.263 3.086v-1.543z"/>
 <path d="m194.73 1114.2c-9.258-30.86-33.946-69.435-58.634-66.349-24.688 1.543-47.833 44.747-55.548 80.236-12.012 55.256 16.668 100.58 12.344 126.53-1.543 9.258-7.715 15.43-13.887 15.43s-12.344-7.715-15.43-10.801-3.086-4.629-4.629-3.086c-4.83 4.83-10.003 46.3 24.688 60.177 7.715 3.086 12.344 0 15.43 0 8.34-4.17-10.308 10.671-7.715 26.231 0 9.258 7.715 18.516 15.43 20.059 10.49 2.098 19.976-10.801 23.145-10.801 0 1.543 5.538 22.573-3.086 46.29-27.52 75.679-99.411 19.764-81.779 13.887 4.629-1.543 12.344 1.543 20.059-1.543 29.002-11.601 7.197-45.902-12.344-38.575-20.389 5.097-44.795 52.641-10.801 81.779 9.258 10.801 21.602 13.887 27.774 16.973 6.172 1.543 6.172 1.543 6.172 3.086 0 0-20.059 5.173-20.059 10.801 0 8.816 32.619 29.173 69.435 4.629 37.983-29.542 32.403-88.866 32.403-83.322l3.086 6.172c30.501 61.001 57.931-48.536 0-106.47-5.989-7.985-6.476-6.172 1.543-6.172 15.482 0 32.492 4.452 47.833-26.231 7.054-14.109-11.397 3.132-40.118-16.973-15.43-10.801-33.946-32.403-47.833-55.548-47.997-89.995 8.507-149.63 38.575-89.494 7.887 15.774-20.059 9.91-20.059 16.973 0 4.629 4.629 16.973 12.344 20.059 9.861 7.396 27.976-4.832 23.145 0-8.352 8.352-3.133 21.539 1.543 27.774 4.629 6.172 9.258 10.801 15.43 1.543s12.344-32.403 3.086-63.263h-1.543z"/>
 <path d="m1114.2 1455.4c-30.86 9.258-69.435 33.946-66.349 58.634 1.543 24.688 44.747 47.833 80.236 55.548 55.256 12.012 100.58-16.668 126.53-12.344 9.258 1.543 15.43 7.715 15.43 13.887s-7.715 12.344-10.801 15.43-4.629 3.086-3.086 4.629c4.83 4.83 46.3 10.003 60.177-24.688 3.086-7.715 0-12.344 0-15.43-4.17-8.34 10.671 10.308 26.231 7.715 9.258 0 18.516-7.715 20.059-15.43 2.098-10.49-10.801-19.976-10.801-23.145 1.543 0 22.573-5.538 46.29 3.086 75.679 27.52 19.764 99.411 13.887 81.779-1.543-4.629 1.543-12.344-1.543-20.059-11.601-29.002-45.902-7.197-38.575 12.344 5.097 20.389 52.641 44.795 81.779 10.801 10.801-9.258 13.887-21.602 16.973-27.774 1.543-6.172 1.543-6.172 3.086-6.172 0 0 5.173 20.059 10.801 20.059 8.816 0 29.173-32.619 4.629-69.435-29.542-37.983-88.866-32.403-83.322-32.403l6.172-3.086c61.001-30.5-48.536-57.931-106.47 0-7.985 5.989-6.172 6.476-6.172-1.543 0-15.482 4.452-32.492-26.231-47.833-14.109-7.054 3.132 11.397-16.973 40.118-10.801 15.43-32.403 33.946-55.548 47.833-89.995 47.997-149.63-8.507-89.494-38.575 15.774-7.887 9.91 20.059 16.973 20.059 4.629 0 16.973-4.629 20.059-12.344 7.396-9.861-4.832-27.976 0-23.145 8.352 8.352 21.539 3.133 27.774-1.543 6.172-4.629 10.801-9.258 1.543-15.43s-32.403-12.344-63.263-3.086v1.543z"/>
 <path d="m825.05 168.76c25.859-35.852 81.112-68.035 125.62-65.068 21.602 1.543 41.661 12.344 43.204 24.688s-15.43 27.774-24.688 32.403c-15.774 7.887-9.91-20.059-16.973-20.059-4.629 0-16.973 4.629-20.059 12.344-4.629 6.172-1.543 15.43 0 20.059 3.283 9.85-0.594-1.543-9.258-1.543-12.523 0-34.654 11.872-20.059 21.602 9.258 6.172 32.403 12.344 63.263 3.086v-1.543c30.86-9.258 69.435-33.946 66.349-58.634-1.543-24.688-44.747-47.833-80.236-55.548-55.256-12.012-100.58 16.668-126.53 12.344-0.212-0.035-0.423-0.073-0.633-0.114-0.209 0.04-0.42 0.078-0.633 0.114-25.945 4.324-71.269-24.356-126.53-12.344-35.489 7.715-78.693 30.86-80.236 55.548-3.086 24.688 35.489 49.376 66.349 58.634v1.543c30.86 9.258 54.005 3.086 63.263-3.086 14.595-9.73-7.536-21.602-20.059-21.602-8.664 0-12.541 11.393-9.258 1.543 1.543-4.629 4.629-13.887 0-20.059-3.086-7.715-15.43-12.344-20.059-12.344-7.063 0-1.198 27.946-16.973 20.059-9.258-4.629-26.231-20.059-24.688-32.403s21.602-23.145 43.204-24.688c44.505-2.967 99.758 29.216 125.62 65.068z"/>
 <path d="m1481.3 825.05c35.852 25.859 68.035 81.112 65.068 125.62-1.543 21.602-12.344 41.661-24.688 43.204s-27.774-15.43-32.403-24.688c-7.887-15.774 20.059-9.91 20.059-16.973 0-4.629-4.629-16.973-12.344-20.059-6.172-4.629-15.43-1.543-20.059 0-9.85 3.283 1.543-0.594 1.543-9.258 0-12.523-11.872-34.654-21.602-20.059-6.172 9.258-12.344 32.403-3.086 63.263h1.543c9.258 30.86 33.946 69.435 58.634 66.349 24.688-1.543 47.833-44.747 55.548-80.236 12.012-55.256-16.668-100.58-12.344-126.53 0.035-0.212 0.073-0.423 0.114-0.633-0.04-0.209-0.078-0.42-0.114-0.633-4.324-25.945 24.356-71.269 12.344-126.53-7.715-35.489-30.86-78.693-55.548-80.236-24.688-3.086-49.376 35.489-58.634 66.349h-1.543c-9.258 30.86-3.086 54.005 3.086 63.263 9.73 14.595 21.602-7.536 21.602-20.059 0-8.664-11.393-12.541-1.543-9.258 4.629 1.543 13.887 4.629 20.059 0 7.715-3.086 12.344-15.43 12.344-20.059 0-7.063-27.946-1.198-20.059-16.973 4.629-9.258 20.059-26.231 32.403-24.688s23.145 21.602 24.688 43.204c2.966 44.505-29.216 99.758-65.068 125.62z"/>
 <path d="m825.05 1481.3c-25.859 35.852-81.112 68.035-125.62 65.068-21.602-1.543-41.661-12.344-43.204-24.688s15.43-27.774 24.688-32.403c15.774-7.887 9.91 20.059 16.973 20.059 4.629 0 16.973-4.629 20.059-12.344 4.629-6.172 1.543-15.43 0-20.059-3.283-9.85 0.594 1.543 9.258 1.543 12.523 0 34.654-11.872 20.059-21.602-9.258-6.172-32.403-12.344-63.263-3.086v1.543c-30.86 9.258-69.435 33.946-66.349 58.634 1.543 24.688 44.747 47.833 80.236 55.548 55.256 12.012 100.58-16.668 126.53-12.344 0.212 0.035 0.423 0.073 0.633 0.114 0.209-0.04 0.42-0.078 0.633-0.114 25.945-4.324 71.269 24.356 126.53 12.344 35.489-7.715 78.693-30.86 80.236-55.548 3.086-24.688-35.489-49.376-66.349-58.634v-1.543c-30.86-9.258-54.005-3.086-63.263 3.086-14.595 9.73 7.536 21.602 20.059 21.602 8.664 0 12.541-11.393 9.258-1.543-1.543 4.629-4.629 13.887 0 20.059 3.086 7.715 15.43 12.344 20.059 12.344 7.063 0 1.198-27.946 16.973-20.059 9.258 4.629 26.231 20.059 24.688 32.403s-21.602 23.145-43.204 24.688c-44.505 2.966-99.757-29.216-125.62-65.068z"/>
 <path d="m168.76 825.05c-35.852-25.859-68.035-81.112-65.068-125.62 1.543-21.602 12.344-41.661 24.688-43.204s27.774 15.43 32.403 24.688c7.887 15.774-20.059 9.91-20.059 16.973 0 4.629 4.629 16.973 12.344 20.059 6.172 4.629 15.43 1.543 20.059 0 9.85-3.283-1.543 0.594-1.543 9.258 0 12.523 11.872 34.654 21.602 20.059 6.172-9.258 12.344-32.403 3.086-63.263h-1.543c-9.258-30.86-33.946-69.435-58.634-66.349-24.688 1.543-47.833 44.747-55.548 80.236-12.012 55.256 16.668 100.58 12.344 126.53-0.035 0.212-0.073 0.423-0.114 0.633 0.04 0.209 0.078 0.42 0.114 0.633 4.324 25.945-24.356 71.269-12.344 126.53 7.715 35.489 30.86 78.693 55.548 80.236 24.688 3.086 49.376-35.489 58.634-66.349h1.543c9.258-30.86 3.086-54.005-3.086-63.263-9.73-14.595-21.602 7.536-21.602 20.059 0 8.664 11.393 12.541 1.543 9.258-4.629-1.543-13.887-4.629-20.059 0-7.715 3.086-12.344 15.43-12.344 20.059 0 7.063 27.946 1.198 20.059 16.973-4.629 9.258-20.059 26.231-32.403 24.688s-23.145-21.602-24.688-43.204c-2.967-44.505 29.216-99.757 65.068-125.62z"/>
</svg>
