<svg width="100mm" height="25mm" version="1.1" viewBox="0 0 100 25" xmlns="http://www.w3.org/2000/svg">
 <g>
  <path d="m12.405 16.549q-0.95312 0.4375-2.0859 0.76562-1.125 0.32031-2.1797 0.32031-1.3594 0-2.4922-0.375-1.1328-0.375-1.9297-1.125-0.80469-0.75781-1.2422-1.8906-0.4375-1.1406-0.4375-2.6641 0-2.7891 1.625-4.3984 1.6328-1.6172 4.4766-1.6172 0.99219 0 2.0234 0.24219 1.0391 0.23437 2.2344 0.80469v1.8359h-0.14062q-0.24219-0.1875-0.70313-0.49219-0.46094-0.30469-0.90625-0.50781-0.53906-0.24219-1.2266-0.39844-0.67969-0.16406-1.5469-0.16406-1.9531 0-3.0937 1.2578-1.1328 1.25-1.1328 3.3906 0 2.2578 1.1875 3.5156 1.1875 1.25 3.2344 1.25 0.75 0 1.4922-0.14844 0.75-0.14844 1.3125-0.38281v-2.8516h-3.1172v-1.3594h4.6484z"/>
  <path d="m22.831 18.996h-1.4609v-0.92969q-0.19531 0.13281-0.53125 0.375-0.32812 0.23438-0.64062 0.375-0.36719 0.17969-0.84375 0.29688-0.47656 0.125-1.1172 0.125-1.1797 0-2-0.78125-0.82031-0.78125-0.82031-1.9922 0-0.99219 0.42188-1.6016 0.42969-0.61719 1.2188-0.96875 0.79688-0.35156 1.9141-0.47656 1.1172-0.125 2.3984-0.1875v-0.22656q0-0.5-0.17969-0.82812-0.17188-0.32812-0.5-0.51562-0.3125-0.17969-0.75-0.24219t-0.91406-0.0625q-0.57812 0-1.2891 0.15625-0.71094 0.14844-1.4688 0.4375h-0.07812v-1.4922q0.42969-0.11719 1.2422-0.25781 0.8125-0.14063 1.6016-0.14063 0.92187 0 1.6016 0.15625 0.6875 0.14844 1.1875 0.51563 0.49219 0.35937 0.75 0.92969t0.25781 1.4141zm-1.4609-2.1484v-2.4297q-0.67188 0.03906-1.5859 0.11719-0.90625 0.07813-1.4375 0.22656-0.63281 0.17969-1.0234 0.5625-0.39062 0.375-0.39062 1.0391 0 0.75 0.45312 1.1328 0.45312 0.375 1.3828 0.375 0.77344 0 1.4141-0.29688 0.64062-0.30469 1.1875-0.72656z"/>
  <path d="m38.938 15.821h-1.4687v-4.9688q0-0.5625-0.0547-1.0859-0.0469-0.52344-0.21094-0.83594-0.17968-0.33594-0.51562-0.50781-0.33594-0.17188-0.96874-0.17188-0.61719 0-1.2344 0.3125-0.61718 0.30469-1.2344 0.78125 0.02344 0.17969 0.03906 0.42187 0.01562 0.23437 0.01562 0.46875v5.5859h-1.4688v-4.9688q0-0.57812-0.05469-1.0937-0.04687-0.52344-0.21094-0.83594-0.17969-0.33594-0.51562-0.5-0.33594-0.17188-0.96875-0.17188-0.60156 0-1.2109 0.29687-0.60156 0.29688-1.2031 0.75781v6.5156h-1.4688v-8.7266h1.4688v0.96875q0.6875-0.57031 1.3672-0.89062 0.6875-0.32031 1.4609-0.32031 0.89062 0 1.5078 0.375 0.625 0.375 0.92969 1.0391 0.89062-0.75 1.625-1.0781 0.73437-0.33594 1.5703-0.33594 1.4375 0 2.1172 0.875 0.6875 0.86719 0.6875 2.4297z"/>
  <path d="m48.542 14.256h-6.4297q0 0.80469 0.24219 1.4062 0.24219 0.59375 0.66406 0.97656 0.40625 0.375 0.96093 0.5625 0.5625 0.1875 1.2344 0.1875 0.89061 0 1.7891-0.35156 0.90624-0.35938 1.2891-0.70312h0.0781v1.6016q-0.74219 0.3125-1.5156 0.52344-0.77344 0.21094-1.625 0.21094-2.1719 0-3.3906-1.1719-1.2187-1.1797-1.2187-3.3438 0-2.1406 1.1641-3.3984 1.1719-1.2578 3.0781-1.2578 1.7656 0 2.7187 1.0312 0.96093 1.0312 0.96093 2.9297zm-1.4297-1.125q-8e-3 -1.1562-0.58592-1.7891-0.57032-0.63281-1.7422-0.63281-1.1797 0-1.8828 0.69531-0.69531 0.69531-0.78906 1.7266z"/>
  <path d="m64.928 16.879h-7.3593v-11.633h1.5469v10.258h5.8125z"/>
  <path d="m74.853 14.107q0 2.1328-1.0937 3.3672-1.0937 1.2344-2.9297 1.2344-1.8516 0-2.9453-1.2344-1.0859-1.2344-1.0859-3.3672 0-2.1328 1.0859-3.3672 1.0937-1.2422 2.9453-1.2422 1.8359 0 2.9297 1.2422 1.0937 1.2344 1.0937 3.3672zm-1.5156 0q0-1.6953-0.66406-2.5156-0.66407-0.82812-1.8437-0.82812-1.1953 0-1.8594 0.82812-0.65625 0.82031-0.65625 2.5156 0 1.6406 0.66406 2.4922 0.66406 0.84375 1.8516 0.84375 1.1719 0 1.8359-0.83594 0.67188-0.84375 0.67188-2.5z"/>
  <path d="m84.742 15.887q0 2.2188-1.0078 3.2578-1.0078 1.0391-3.1015 1.0391-0.69531 0-1.3594-0.10156-0.65625-0.09375-1.2969-0.27344v-1.5h0.0781q0.35937 0.14062 1.1406 0.34375 0.78123 0.21094 1.5625 0.21094 0.74999 0 1.2422-0.17969 0.49219-0.17969 0.76562-0.5 0.27343-0.30469 0.39062-0.73438 0.11719-0.42969 0.11719-0.96094v-0.79688q-0.66407 0.53125-1.2734 0.79688-0.60156 0.25781-1.5391 0.25781-1.5625 0-2.4844-1.125-0.91405-1.1328-0.91405-3.1875 0-1.125 0.3125-1.9375 0.32031-0.82031 0.86719-1.4141 0.50781-0.55469 1.2344-0.85937 0.72657-0.3125 1.4453-0.3125 0.75781 0 1.2656 0.15625 0.51563 0.14844 1.0859 0.46094l0.0937-0.375h1.375zm-1.4687-1.4063v-4.7578q-0.58594-0.26562-1.0937-0.375-0.5-0.11719-0.99999-0.11719-1.2109 0-1.9062 0.8125-0.69531 0.8125-0.69531 2.3594 0 1.4688 0.51562 2.2266t1.7109 0.75781q0.64062 0 1.2812-0.24219 0.64843-0.25 1.1875-0.66406z"/>
  <path d="m94.541 14.107q0 2.1328-1.0937 3.3672-1.0937 1.2344-2.9297 1.2344-1.8515 0-2.9453-1.2344-1.0859-1.2344-1.0859-3.3672 0-2.1328 1.0859-3.3672 1.0937-1.2422 2.9453-1.2422 1.8359 0 2.9297 1.2422 1.0937 1.2344 1.0937 3.3672zm-1.5156 0q0-1.6953-0.66406-2.5156-0.66407-0.82812-1.8438-0.82812-1.1953 0-1.8594 0.82812-0.65625 0.82031-0.65625 2.5156 0 1.6406 0.66406 2.4922 0.66406 0.84375 1.8515 0.84375 1.1719 0 1.8359-0.83594 0.67188-0.84375 0.67188-2.5z"/>
 </g>
</svg>
