<?xml version="1.0" encoding="UTF-8" standalone="no"?>
<!-- Created with Inkscape (http://www.inkscape.org/) -->

<svg
   xmlns:dc="http://purl.org/dc/elements/1.1/"
   xmlns:cc="http://creativecommons.org/ns#"
   xmlns:rdf="http://www.w3.org/1999/02/22-rdf-syntax-ns#"
   xmlns:svg="http://www.w3.org/2000/svg"
   xmlns="http://www.w3.org/2000/svg"
   xmlns:sodipodi="http://sodipodi.sourceforge.net/DTD/sodipodi-0.dtd"
   xmlns:inkscape="http://www.inkscape.org/namespaces/inkscape"
   width="210mm"
   height="297mm"
   viewBox="0 0 210 297"
   version="1.1"
   id="svg927"
   inkscape:version="0.92.4 (5da689c313, 2019-01-14)"
   sodipodi:docname="gamma12cm.svg">
  <defs
     id="defs921" />
  <sodipodi:namedview
     id="base"
     pagecolor="#ffffff"
     bordercolor="#666666"
     borderopacity="1.0"
     inkscape:pageopacity="0.0"
     inkscape:pageshadow="2"
     inkscape:zoom="0.7"
     inkscape:cx="117.6694"
     inkscape:cy="837.15934"
     inkscape:document-units="mm"
     inkscape:current-layer="layer1"
     showgrid="false"
     inkscape:window-width="1920"
     inkscape:window-height="1018"
     inkscape:window-x="-8"
     inkscape:window-y="-8"
     inkscape:window-maximized="1" />
  <metadata
     id="metadata924">
    <rdf:RDF>
      <cc:Work
         rdf:about="">
        <dc:format>image/svg+xml</dc:format>
        <dc:type
           rdf:resource="http://purl.org/dc/dcmitype/StillImage" />
        <dc:title></dc:title>
      </cc:Work>
    </rdf:RDF>
  </metadata>
  <g
     inkscape:label="Layer 1"
     inkscape:groupmode="layer"
     id="layer1">
    <g
       id="g16539"
       transform="matrix(0.08906832,0,0,-0.08906832,2.0365023,85.026695)"
       inkscape:transform-center-x="-1347.1071"
       inkscape:transform-center-y="200.70535">
      <path
         inkscape:connector-curvature="0"
         id="path16541"
         style="fill:currentColor"
         d="M 681,916 H 887 L 486,75 c 10,-90 15,-168.67 15,-236 0,-187.33 -35,-281 -105,-281 -50.67,0 -76,39.33 -76,118 0,102.67 37.33,231.33 112,386 -14.67,96 -35,211.67 -61,347 -26,135.33 -53,232.33 -81,291 -28,58.67 -67.67,88 -119,88 C 87,788 42,725.33 36,600 H 0 c 0,220 65.333,330 196,330 75.33,0 131.33,-44.33 168,-133 36.67,-88.67 74.33,-282.33 113,-581 z" />
    </g>
  </g>
</svg>
