<?xml version="1.0" encoding="UTF-8" standalone="no"?>
<!-- Created with Inkscape (http://www.inkscape.org/) -->

<svg
   xmlns:dc="http://purl.org/dc/elements/1.1/"
   xmlns:cc="http://creativecommons.org/ns#"
   xmlns:rdf="http://www.w3.org/1999/02/22-rdf-syntax-ns#"
   xmlns:svg="http://www.w3.org/2000/svg"
   xmlns="http://www.w3.org/2000/svg"
   xmlns:sodipodi="http://sodipodi.sourceforge.net/DTD/sodipodi-0.dtd"
   xmlns:inkscape="http://www.inkscape.org/namespaces/inkscape"
   width="210mm"
   height="297mm"
   viewBox="0 0 210 297"
   version="1.1"
   id="svg927"
   inkscape:version="0.92.4 (5da689c313, 2019-01-14)"
   sodipodi:docname="Pi12cm.svg">
  <defs
     id="defs921" />
  <sodipodi:namedview
     id="base"
     pagecolor="#ffffff"
     bordercolor="#666666"
     borderopacity="1.0"
     inkscape:pageopacity="0.0"
     inkscape:pageshadow="2"
     inkscape:zoom="0.98994949"
     inkscape:cx="228.74729"
     inkscape:cy="992.70812"
     inkscape:document-units="mm"
     inkscape:current-layer="layer1"
     showgrid="false"
     inkscape:window-width="1920"
     inkscape:window-height="1018"
     inkscape:window-x="-8"
     inkscape:window-y="-8"
     inkscape:window-maximized="1" />
  <metadata
     id="metadata924">
    <rdf:RDF>
      <cc:Work
         rdf:about="">
        <dc:format>image/svg+xml</dc:format>
        <dc:type
           rdf:resource="http://purl.org/dc/dcmitype/StillImage" />
        <dc:title></dc:title>
      </cc:Work>
    </rdf:RDF>
  </metadata>
  <g
     inkscape:label="Layer 1"
     inkscape:groupmode="layer"
     id="layer1">
    <g
       id="g16643"
       transform="matrix(0.13364577,0,0,-0.13364577,-0.630514,124.30203)">
      <path
         inkscape:connector-curvature="0"
         id="path16645"
         style="fill:currentColor"
         d="M 993,916 V 770 H 761 L 741,466 c -4,-52.67 -6,-98.33 -6,-137 0,-92.67 10.67,-149 32,-169 21.33,-20 47.67,-30.33 79,-31 64,0 102,40.33 114,121 h 36 C 974,64.67 900,-28 774,-28 c -58.67,0 -105.67,18 -141,54 -35.33,36 -53.33,89.33 -54,160 0,46.67 7,145.33 21,296 l 27,288 H 415 C 401,527.33 384.33,350 365,238 345.67,126 324,53.67 300,21 c -24,-32.667 -56.33,-49 -97,-49 -30.67,0 -56.33,9 -77,27 -20.67,18 -31.333,41.667 -32,71 0,28 18,66.33 54,115 52.67,70.67 92,144 118,220 26,76 45.67,197.67 59,365 H 257 C 202.33,770 160.67,758 132,734 103.33,710 75.667,675 49,629 H 13 c 19.333,71.33 44.333,130 75,176 30.67,46 62,76 94,90 32,14 89.67,21 173,21 z" />
    </g>
  </g>
</svg>
