<?xml version="1.0" encoding="UTF-8" standalone="no"?>
<!-- Created with Inkscape (http://www.inkscape.org/) -->

<svg
   xmlns:dc="http://purl.org/dc/elements/1.1/"
   xmlns:cc="http://creativecommons.org/ns#"
   xmlns:rdf="http://www.w3.org/1999/02/22-rdf-syntax-ns#"
   xmlns:svg="http://www.w3.org/2000/svg"
   xmlns="http://www.w3.org/2000/svg"
   xmlns:xlink="http://www.w3.org/1999/xlink"
   xmlns:sodipodi="http://sodipodi.sourceforge.net/DTD/sodipodi-0.dtd"
   xmlns:inkscape="http://www.inkscape.org/namespaces/inkscape"
   width="203mm"
   height="152mm"
   viewBox="0 0 203 152"
   version="1.1"
   id="svg8"
   inkscape:version="0.92.4 (5da689c313, 2019-01-14)"
   sodipodi:docname="PotentialScore_V2.svg">
  <defs
     id="defs2">
    <inkscape:path-effect
       effect="ruler"
       id="path-effect861"
       is_visible="true"
       unit="px"
       mark_distance="20"
       mark_length="14"
       minor_mark_length="4"
       major_mark_steps="5"
       shift="0"
       offset="0"
       mark_dir="left"
       border_marks="both" />
    <inkscape:path-effect
       effect="bend_path"
       id="path-effect872"
       is_visible="true"
       bendpath="m 170.82024,184.98845 c -1.27753,-1.41701 -2.59152,-2.80185 -3.94136,-4.15169 C 145.5605,159.51838 115.59797,147.106 85.449227,147.106 c -30.148749,0 -60.111269,12.41238 -81.4296492,33.73076 -1.3498399,1.34984 -2.66332,2.73468 -3.94085,4.15169"
       prop_scale="1"
       scale_y_rel="false"
       vertical="false" />
    <linearGradient
       inkscape:collect="always"
       xlink:href="#linearGradient883"
       id="linearGradient889"
       x1="58.023438"
       y1="237.38477"
       x2="703.3457"
       y2="237.38477"
       gradientUnits="userSpaceOnUse"
       spreadMethod="pad"
       gradientTransform="matrix(0.26458333,0,0,0.26458333,1.1136002,139.99156)" />
    <linearGradient
       inkscape:collect="always"
       id="linearGradient883">
      <stop
         style="stop-color:#ff0000;stop-opacity:1;"
         offset="0"
         id="stop879" />
      <stop
         id="stop4608"
         offset="0.51222157"
         style="stop-color:#fffa00;stop-opacity:0.99555558" />
      <stop
         style="stop-color:#00ff00;stop-opacity:1"
         offset="1"
         id="stop881" />
    </linearGradient>
  </defs>
  <sodipodi:namedview
     id="base"
     pagecolor="#ffffff"
     bordercolor="#666666"
     borderopacity="1.0"
     inkscape:pageopacity="0.0"
     inkscape:pageshadow="2"
     inkscape:zoom="0.7"
     inkscape:cx="393.52117"
     inkscape:cy="255.81545"
     inkscape:document-units="mm"
     inkscape:current-layer="layer1"
     showgrid="false"
     inkscape:window-width="1920"
     inkscape:window-height="1018"
     inkscape:window-x="-8"
     inkscape:window-y="-8"
     inkscape:window-maximized="1" />
  <metadata
     id="metadata5">
    <rdf:RDF>
      <cc:Work
         rdf:about="">
        <dc:format>image/svg+xml</dc:format>
        <dc:type
           rdf:resource="http://purl.org/dc/dcmitype/StillImage" />
        <dc:title></dc:title>
      </cc:Work>
    </rdf:RDF>
  </metadata>
  <g
     inkscape:label="Layer 1"
     inkscape:groupmode="layer"
     id="layer1"
     transform="translate(0,-145)">
    <path
       id="path815"
       d="m 101.83612,150.07829 c -7.239489,0.0119 -14.411957,0.62741 -21.45102,1.81711 -7.111254,1.20189 -14.086348,2.98983 -20.856852,5.33358 -6.792588,2.35139 -13.379244,5.26222 -19.690864,8.70195 -6.291085,3.42853 -12.308918,7.38253 -17.985067,11.83174 -5.618586,4.40409 -10.902383,9.29341 -15.785014,14.63861 l 1.9951652,1.99517 0.9975814,0.99758 m 7.4055834,7.40559 1.572659,1.57265 3.99033,3.99033 15.961481,15.96148 15.961389,15.96139 15.961567,15.96157 15.961479,15.96148 15.961582,15.96159 15.96407,-15.96399 15.96423,-15.96415 15.96415,-15.96406 15.96432,-15.96423 15.96424,-15.96415 3.99109,-3.99107 1.55891,-1.55884 m 10.41435,-10.41436 c -4.88393,-5.34482 -10.16901,-10.23362 -15.78884,-14.63704 -5.67747,-4.44859 -11.6966,-8.40181 -17.98892,-11.82942 -6.31284,-3.43879 -12.90066,-6.34854 -19.69433,-8.6987 -6.77156,-2.34253 -13.74763,-4.12911 -20.85976,-5.32951 -7.04,-1.18823 -14.2133,-1.8021 -21.45351,-1.8123 v 0"
       style="opacity:1;vector-effect:none;fill:none;fill-opacity:1;fill-rule:nonzero;stroke:#000000;stroke-width:0.21182689;stroke-linecap:butt;stroke-linejoin:miter;stroke-miterlimit:4;stroke-dasharray:none;stroke-dashoffset:0;stroke-opacity:1"
       inkscape:connector-curvature="0"
       sodipodi:nodetypes="csssscccccccccccccccccccsssscc" />
    <path
       sodipodi:type="inkscape:offset"
       inkscape:radius="-116.22746"
       inkscape:original="M 100.72266 152.79883 A 120 120 0 0 0 -19.277344 272.79883 A 120 120 0 0 0 100.72266 392.79883 A 120 120 0 0 0 220.72266 272.79883 A 120 120 0 0 0 100.72266 152.79883 z "
       style="opacity:1;vector-effect:none;fill:none;fill-opacity:1;fill-rule:nonzero;stroke:#000000;stroke-width:0.21182689;stroke-linecap:butt;stroke-linejoin:miter;stroke-miterlimit:4;stroke-dasharray:none;stroke-dashoffset:0;stroke-opacity:1"
       id="circle817"
       d="m 100.72266,269.02539 c -1.9753,0 -3.773441,1.79814 -3.773441,3.77344 0,1.97529 1.798141,3.77344 3.773441,3.77344 1.97529,0 3.77343,-1.79815 3.77343,-3.77344 0,-1.9753 -1.79814,-3.77344 -3.77343,-3.77344 z"
       transform="translate(1.1136002,7.2791438)" />
    <path
       style="opacity:1;vector-effect:none;fill:url(#linearGradient889);fill-opacity:1;fill-rule:nonzero;stroke:#000000;stroke-width:0.21200001;stroke-linecap:butt;stroke-linejoin:miter;stroke-miterlimit:4;stroke-dasharray:none;stroke-dashoffset:0;stroke-opacity:1"
       d="m 101.83612,164.91717 c -30.148736,0 -60.111262,12.41238 -81.429642,33.73076 -1.349837,1.34984 -2.663311,2.73468 -3.940845,4.15169 l 85.370487,85.37049 85.37101,-85.37049 c -1.27754,-1.41701 -2.59152,-2.80185 -3.94136,-4.15169 -21.31838,-21.31838 -51.28092,-33.73076 -81.42965,-33.73076 z"
       id="circle823"
       inkscape:connector-curvature="0" />
    <path
       style="opacity:1;vector-effect:none;fill:none;fill-opacity:1;fill-rule:nonzero;stroke:#000000;stroke-width:0.21182689;stroke-linecap:butt;stroke-linejoin:miter;stroke-miterlimit:4;stroke-dasharray:none;stroke-dashoffset:0;stroke-opacity:1"
       d="m 101.83612,177.67143 c -26.810017,0 -53.454554,11.03649 -72.412106,29.99404 -1.350091,1.35009 -2.658272,2.74029 -3.926891,4.16563 l 76.338997,76.33901 76.33952,-76.33901 c -1.26862,-1.42534 -2.57732,-2.81554 -3.92741,-4.16563 -18.95756,-18.95755 -45.6021,-29.99404 -72.41211,-29.99404 z"
       id="path827"
       inkscape:connector-curvature="0" />
    <path
       id="path891"
       d="m 101.83612,177.67143 c -26.810017,0 -53.454554,11.03649 -72.412106,29.99404 -1.350091,1.35009 -2.658272,2.74029 -3.926891,4.16563 l 76.338997,76.33901 76.33952,-76.33901 c -1.26862,-1.42534 -2.57732,-2.81554 -3.92741,-4.16563 -18.95756,-18.95755 -45.6021,-29.99404 -72.41211,-29.99404 z"
       style="opacity:1;vector-effect:none;fill:#fffffa;fill-opacity:1;fill-rule:nonzero;stroke:#000000;stroke-width:0.21182689;stroke-linecap:butt;stroke-linejoin:miter;stroke-miterlimit:4;stroke-dasharray:none;stroke-dashoffset:0;stroke-opacity:1"
       inkscape:connector-curvature="0" />
    <path
       style="fill:none;stroke:#000000;stroke-width:0.35827503;stroke-linecap:butt;stroke-linejoin:miter;stroke-miterlimit:4;stroke-dasharray:none;stroke-opacity:1"
       d="m 172.24627,183.80428 c -1.31481,-1.46031 -2.66765,-2.887 -4.05777,-4.27714 -21.67144,-21.66315 -52.09698,-34.26731 -82.739273,-34.27322 l -9e-6,0 c -30.642285,0.006 -61.067819,12.61007 -82.7392609,34.27322 -1.3546506,1.35468 -2.67348245,2.74414 -3.9563134,4.16518 m 173.4926263,0.11196 -2.75278,2.47852 m 0.0318,-5.39573 -0.76104,0.73544 m -2.06261,-3.55425 -0.73415,0.76202 m -2.18679,-3.47742 -0.70658,0.78734 m -2.30694,-3.39768 -0.67855,0.81152 m -2.42338,-3.31506 -2.27514,2.92103 m -0.911,-5.31604 -0.62107,0.8565 m -2.6451,-3.14124 -0.59163,0.8773 m -2.75037,-3.05003 -0.56172,0.89697 m -2.85192,-2.95596 -0.53134,0.91551 m -2.94976,-2.85901 -1.75172,3.26519 m -1.79264,-5.09148 -0.46918,0.94919 m -3.13426,-2.65652 -0.43739,0.96434 m -3.22093,-2.55098 -0.40514,0.97836 m -3.30388,-2.44257 -0.37242,0.99124 m -3.3831,-2.33128 -1.18731,3.51049 m -2.61053,-4.72463 -0.30557,1.01362 m -3.5304,-2.10012 -0.27144,1.02312 m -3.59846,-1.98024 -0.23685,1.03148 m -3.6628,-1.85749 -0.20179,1.03872 m -3.72341,-1.73188 -0.58191,3.6569 m -3.364667,-4.21547 -0.130261,1.0498 m -3.83349,-1.47205 -0.09379,1.05365 m -3.882947,-1.33784 -0.05686,1.05637 m -3.928681,-1.20076 -0.01945,1.05796 m -3.970119,-1.06013 0.06409,3.70295 m -4.04983,-3.56282 0.05573,1.05643 m -4.032799,-0.77645 0.09268,1.05375 m -4.056888,-0.63566 0.129163,1.04994 m -4.076318,-0.49547 0.165177,1.04499 m -4.091092,-0.35588 0.702528,3.63623 m -4.603012,-2.81422 0.235799,1.03172 m -4.106664,-0.0785 0.270408,1.02339 m -4.107462,0.0592 0.304547,1.01392 m -4.103602,0.19638 0.338219,1.00333 m -4.095085,0.33292 1.299977,3.47065 m -5.010464,-2.01017 0.404156,0.97876 m -4.064075,0.6042 0.436423,0.96477 m -4.041583,0.73893 0.468221,0.94966 m -4.014433,0.87305 0.499549,0.93342 m -3.982624,1.00656 1.856437,3.20617 m -5.272184,-1.15066 0.560803,0.89755 m -3.905034,1.27176 0.590727,0.87792 m -3.85925,1.40346 0.620182,0.85715 m -3.808809,1.53454 0.649169,0.83526 m -3.75371,1.66502 2.371908,2.84284 m -5.3881737,-0.2357 0.7057383,0.78808 m -3.6295379,1.92416 0.7333199,0.7628 m -3.5600627,2.05309 0.760311,0.7362 m -3.4637632,2.15572 2.7495146,2.48214"
       id="path859"
       inkscape:connector-curvature="0"
       inkscape:path-effect="#path-effect861;#path-effect872"
       inkscape:original-d="M -338.89775,97.616934 H -79.646319"
       transform="matrix(1.1164607,0,0,1.1164607,6.2963745,-12.815223)" />
    <path
       id="path879"
       d="m 3.2366138,200.68288 c 1.2775203,-1.417 2.5915035,-2.80184 3.9413338,-4.15168 21.3183164,-21.31838 51.2808564,-33.73076 81.4295934,-33.73076 30.148839,0 60.111529,12.41238 81.430039,33.73076 1.34984,1.34984 2.66333,2.73468 3.94086,4.15168"
       style="opacity:1;vector-effect:none;fill:none;fill-opacity:1;fill-rule:nonzero;stroke:none;stroke-width:0.21200001;stroke-linecap:butt;stroke-linejoin:miter;stroke-miterlimit:4;stroke-dasharray:none;stroke-dashoffset:0;stroke-opacity:1"
       inkscape:connector-curvature="0"
       sodipodi:nodetypes="csscc" />
    <g
       aria-label="0  1   2   3   4   5    6   7   8   9  10"
       transform="matrix(1.0461237,0,0,1.0896014,11.790717,-21.516017)"
       style="font-style:normal;font-variant:normal;font-weight:normal;font-stretch:normal;font-size:10.82644939px;line-height:1.25;font-family:sans-serif;-inkscape-font-specification:'sans-serif, Normal';font-variant-ligatures:normal;font-variant-caps:normal;font-variant-numeric:normal;font-feature-settings:normal;text-align:start;letter-spacing:-0.01353314px;word-spacing:0px;writing-mode:lr-tb;text-anchor:start;fill:#000000;fill-opacity:1;stroke:none;stroke-width:0.27066267"
       id="text983">
      <path
         d="m 2.5195196,198.9153 q 1.5296219,1.46762 1.7856022,2.63631 0.2558257,1.16122 -0.7103915,2.16826 -0.9808569,1.02229 -2.1594447,0.7999 -1.17492785,-0.22619 -2.6778481,-1.6682 -1.5143639,-1.45299 -1.7778187,-2.62152 -0.2672693,-1.1722 0.7026079,-2.18305 0.9808569,-1.02229 2.16722839,-0.78511 1.18621681,0.2297 2.67006451,1.65341 z m 0.769234,2.66482 q -0.180879,-0.42997 -0.5527425,-0.87467 -0.3720182,-0.45218 -0.959454,-1.01581 -0.5798068,-0.5563 -1.05461175,-0.91662 -0.471145,-0.36414 -0.90043434,-0.51229 -0.42181491,-0.14831 -0.79383587,-0.0584 -0.36836104,0.0861 -0.71605284,0.44852 -0.344032,0.35856 -0.4221804,0.7378 -0.074489,0.37542 0.095101,0.80188 0.1578374,0.40052 0.5641862,0.88564 0.4100087,0.48131 0.95167037,1.00101 0.59506488,0.57095 1.03584838,0.91328 0.4407835,0.34233 0.88914535,0.50878 0.4183096,0.1596 0.7942997,0.0808 0.37965,-0.0826 0.7456414,-0.46408 0.3440319,-0.35856 0.4221803,-0.7378 0.078148,-0.37924 -0.098762,-0.79806 z"
         style="font-style:normal;font-variant:normal;font-weight:normal;font-stretch:normal;font-size:10.82644939px;font-family:sans-serif;-inkscape-font-specification:'sans-serif, Normal';font-variant-ligatures:normal;font-variant-caps:normal;font-variant-numeric:normal;font-feature-settings:normal;text-align:start;writing-mode:lr-tb;text-anchor:start;fill:#000000;fill-opacity:1;stroke-width:0.27066267"
         id="path2275"
         inkscape:connector-curvature="0" />
      <path
         d="m 15.568089,193.41457 -3.323071,2.66676 -0.502912,-0.62668 1.278104,-1.02568 -3.3020206,-4.11467 -1.2781035,1.02568 -0.4499746,-0.56072 q 0.2597437,-0.20844 0.5235074,-0.48789 0.2604551,-0.28358 0.3468301,-0.48846 0.106938,-0.25527 0.08841,-0.49796 -0.01772,-0.25013 -0.216288,-0.53135 l 0.6390516,-0.51284 4.4401916,5.53295 1.253367,-1.00582 z"
         style="font-style:normal;font-variant:normal;font-weight:normal;font-stretch:normal;font-size:10.82644939px;font-family:sans-serif;-inkscape-font-specification:'sans-serif, Normal';font-variant-ligatures:normal;font-variant-caps:normal;font-variant-numeric:normal;font-feature-settings:normal;text-align:start;writing-mode:lr-tb;text-anchor:start;fill:#000000;fill-opacity:1;stroke-width:0.27066267"
         id="path2277"
         inkscape:connector-curvature="0" />
      <path
         d="m 32.327644,183.02972 -4.629535,2.63853 -0.547076,-0.95989 q 0.24666,-0.6882 0.49332,-1.3764 0.251253,-0.69081 0.436232,-1.33777 0.394944,-1.35684 0.435715,-2.0433 0.03815,-0.69106 -0.29428,-1.27434 -0.303641,-0.53277 -0.827429,-0.62975 -0.521813,-0.10418 -1.151026,0.25443 -0.417944,0.2382 -0.821017,0.66263 -0.403073,0.42444 -0.694185,0.99194 l -0.04593,0.0262 -0.549694,-0.96448 q 0.234472,-0.3466 0.700512,-0.78867 0.470632,-0.44468 0.980432,-0.73523 1.051749,-0.59943 1.939365,-0.42992 0.884998,0.16492 1.379722,1.03296 0.222495,0.39039 0.315156,0.78784 0.09464,0.39024 0.0745,0.80331 -0.01683,0.38684 -0.103191,0.80114 -0.08177,0.41168 -0.235145,0.94327 -0.216582,0.76233 -0.481019,1.51542 -0.267055,0.7485 -0.501864,1.39343 l 3.678827,-2.09669 z"
         style="font-style:normal;font-variant:normal;font-weight:normal;font-stretch:normal;font-size:10.82644939px;font-family:sans-serif;-inkscape-font-specification:'sans-serif, Normal';font-variant-ligatures:normal;font-variant-caps:normal;font-variant-numeric:normal;font-feature-settings:normal;text-align:start;writing-mode:lr-tb;text-anchor:start;fill:#000000;fill-opacity:1;stroke-width:0.27066267"
         id="path2279"
         inkscape:connector-curvature="0" />
      <path
         d="m 47.465326,172.25238 q 0.317932,0.12238 0.593155,0.38539 0.275224,0.26302 0.468594,0.77202 0.191492,0.50406 0.168224,0.99357 -0.02327,0.48951 -0.236092,0.92663 -0.239215,0.48673 -0.679444,0.84624 -0.437164,0.35269 -1.035117,0.57985 -0.612778,0.2328 -1.262111,0.30983 -0.647455,0.082 -1.093678,0.0536 l -0.392372,-1.03283 0.07413,-0.0282 q 0.525182,0.11716 1.162948,0.0841 0.637765,-0.0331 1.166533,-0.23393 0.311331,-0.11828 0.622771,-0.35535 0.31144,-0.23707 0.451905,-0.52228 0.144716,-0.3038 0.153934,-0.60702 0.01416,-0.30509 -0.137908,-0.70537 -0.15019,-0.39534 -0.376299,-0.6035 -0.223045,-0.21498 -0.501745,-0.27875 -0.280578,-0.0687 -0.617502,-0.003 -0.338801,0.0609 -0.704491,0.19977 l -0.444758,0.16897 -0.311644,-0.82033 0.345923,-0.13142 q 0.751147,-0.28536 1.077631,-0.76566 0.329548,-0.48711 0.100508,-1.09 -0.101378,-0.26686 -0.290133,-0.42135 -0.190633,-0.15943 -0.442057,-0.21095 -0.261307,-0.0478 -0.522227,-0.005 -0.26092,0.0426 -0.567309,0.15897 -0.469468,0.17835 -0.934405,0.54725 -0.464938,0.3689 -0.818007,0.85364 l -0.04942,0.0188 -0.392371,-1.03283 q 0.285156,-0.30625 0.81384,-0.67109 0.531748,-0.37166 1.080284,-0.58005 0.538651,-0.20463 0.986365,-0.26162 0.447713,-0.057 0.861416,0.0347 0.44592,0.10203 0.756427,0.36861 0.310506,0.26657 0.481348,0.71627 0.232794,0.61278 -0.02748,1.23757 -0.257214,0.61798 -0.800227,0.95999 l 0.02628,0.0692 q 0.252224,-0.0506 0.607425,-0.0385 0.353323,0.007 0.637159,0.11421 z"
         style="font-style:normal;font-variant:normal;font-weight:normal;font-stretch:normal;font-size:10.82644939px;font-family:sans-serif;-inkscape-font-specification:'sans-serif, Normal';font-variant-ligatures:normal;font-variant-caps:normal;font-variant-numeric:normal;font-feature-settings:normal;text-align:start;writing-mode:lr-tb;text-anchor:start;fill:#000000;fill-opacity:1;stroke-width:0.27066267"
         id="path2281"
         inkscape:connector-curvature="0" />
      <path
         d="m 67.070911,169.22454 -1.143272,0.24045 0.455872,2.16756 -0.993251,0.2089 -0.455872,-2.16757 -3.688476,0.77575 -0.25024,-1.18983 2.815941,-5.12992 0.951865,-0.20019 0.99008,4.70759 1.143273,-0.24045 z m -2.310603,-0.37836 -0.731136,-3.47638 -2.253788,4.10415 z"
         style="font-style:normal;font-variant:normal;font-weight:normal;font-stretch:normal;font-size:10.82644939px;font-family:sans-serif;-inkscape-font-specification:'sans-serif, Normal';font-variant-ligatures:normal;font-variant-caps:normal;font-variant-numeric:normal;font-feature-settings:normal;text-align:start;writing-mode:lr-tb;text-anchor:start;fill:#000000;fill-opacity:1;stroke-width:0.27066267"
         id="path2283"
         inkscape:connector-curvature="0" />
      <path
         d="m 86.490325,167.04773 q 0.02572,0.54918 -0.15145,1.06023 -0.177169,0.51105 -0.509612,0.87061 -0.362891,0.38744 -0.88155,0.61283 -0.513626,0.21986 -1.20538,0.25226 -0.644229,0.0302 -1.247363,-0.0792 -0.602886,-0.10407 -1.023672,-0.27488 l -0.05218,-1.1142 0.07393,-0.003 q 0.445866,0.25432 1.035878,0.42249 0.589764,0.1629 1.149504,0.13669 0.37492,-0.0176 0.718492,-0.13949 0.348852,-0.12218 0.611077,-0.39907 0.221711,-0.23794 0.323046,-0.56022 0.106615,-0.32252 0.08708,-0.73968 -0.01904,-0.40661 -0.174723,-0.6798 -0.150401,-0.27344 -0.406501,-0.4308 -0.283986,-0.1878 -0.683738,-0.24846 -0.394718,-0.0662 -0.88053,-0.0434 -0.46469,0.0218 -0.894729,0.10541 -0.424758,0.0834 -0.733344,0.16135 l -0.189672,-4.05019 4.731386,-0.22157 0.04328,0.9241 -3.712237,0.17384 0.09793,2.0911 q 0.226075,-0.0317 0.463206,-0.0534 0.237131,-0.0217 0.411389,-0.0298 0.638949,-0.0299 1.124673,0.0585 0.485478,0.0831 0.89966,0.3389 0.436046,0.27065 0.689905,0.71917 0.253859,0.44853 0.286254,1.14029 z"
         style="font-style:normal;font-variant:normal;font-weight:normal;font-stretch:normal;font-size:10.82644939px;font-family:sans-serif;-inkscape-font-specification:'sans-serif, Normal';font-variant-ligatures:normal;font-variant-caps:normal;font-variant-numeric:normal;font-feature-settings:normal;text-align:start;writing-mode:lr-tb;text-anchor:start;fill:#000000;fill-opacity:1;stroke-width:0.27066267"
         id="path2285"
         inkscape:connector-curvature="0" />
      <path
         d="m 105.90201,168.80111 q -0.17965,1.18648 -1.07763,1.82042 -0.89196,0.62952 -2.02617,0.45778 -0.57494,-0.0871 -1.01845,-0.33599 -0.4435,-0.24893 -0.75112,-0.65373 -0.38382,-0.50188 -0.52106,-1.25515 -0.13201,-0.75247 0.0207,-1.76124 0.15669,-1.0349 0.4973,-1.80136 0.34584,-0.76567 0.9261,-1.31406 0.54939,-0.52098 1.32577,-0.74026 0.77717,-0.22451 1.74412,-0.0781 0.30838,0.0467 0.5135,0.10448 0.20511,0.0578 0.40912,0.15818 l -0.15115,0.99832 -0.0523,-0.008 q -0.13448,-0.10056 -0.42212,-0.21361 -0.28162,-0.1175 -0.59,-0.16419 -1.12376,-0.17015 -1.89962,0.43417 -0.77508,0.59909 -1.06607,1.7794 0.47941,-0.20009 0.92336,-0.27188 0.44996,-0.0762 1.00923,0.008 0.49654,0.0752 0.85862,0.22624 0.3681,0.14663 0.7234,0.4838 0.41168,0.38847 0.56806,0.90938 0.1616,0.52171 0.0563,1.21687 z m -1.06737,-0.11884 q 0.0736,-0.48609 -0.0245,-0.82708 -0.0928,-0.3402 -0.38652,-0.62527 -0.21511,-0.20366 -0.49989,-0.30024 -0.28479,-0.0966 -0.60362,-0.14487 -0.44428,-0.0673 -0.84166,-0.0205 -0.39738,0.0468 -0.83308,0.20535 -0.0279,0.11341 -0.0497,0.22238 -0.0211,0.10374 -0.0456,0.26577 -0.12504,0.82583 -0.0306,1.33202 0.10046,0.50176 0.35645,0.82388 0.20561,0.26639 0.46601,0.41809 0.26642,0.14727 0.5957,0.19713 0.75789,0.11475 1.26135,-0.27952 0.50426,-0.3995 0.63563,-1.26714 z"
         style="font-style:normal;font-variant:normal;font-weight:normal;font-stretch:normal;font-size:10.82644939px;font-family:sans-serif;-inkscape-font-specification:'sans-serif, Normal';font-variant-ligatures:normal;font-variant-caps:normal;font-variant-numeric:normal;font-feature-settings:normal;text-align:start;writing-mode:lr-tb;text-anchor:start;fill:#000000;fill-opacity:1;stroke-width:0.27066267"
         id="path2287"
         inkscape:connector-curvature="0" />
      <path
         d="m 126.32802,169.37412 -5.42058,5.30114 -1.07828,-0.34221 5.71401,-5.47424 -4.2728,-1.35607 0.27985,-0.88177 5.13441,1.62953 z"
         style="font-style:normal;font-variant:normal;font-weight:normal;font-stretch:normal;font-size:10.82644939px;font-family:sans-serif;-inkscape-font-specification:'sans-serif, Normal';font-variant-ligatures:normal;font-variant-caps:normal;font-variant-numeric:normal;font-feature-settings:normal;text-align:start;writing-mode:lr-tb;text-anchor:start;fill:#000000;fill-opacity:1;stroke-width:0.27066267"
         id="path2289"
         inkscape:connector-curvature="0" />
      <path
         d="m 142.44452,181.35256 q -0.45485,0.91326 -1.47104,1.16308 -1.01145,0.25218 -2.09033,-0.28516 -1.14513,-0.57033 -1.53194,-1.50119 -0.38207,-0.92851 0.0775,-1.85124 0.29224,-0.58676 0.86861,-0.89027 0.57873,-0.30824 1.33766,-0.27869 l 0.0142,-0.0284 q -0.41701,-0.58566 -0.51235,-1.08198 -0.0906,-0.49396 0.17806,-1.0334 0.39594,-0.79497 1.3129,-0.99971 0.91696,-0.20475 1.92487,0.29724 1.05522,0.52555 1.4324,1.34532 0.37717,0.81976 -0.0117,1.60053 -0.23803,0.47793 -0.7671,0.79318 -0.52672,0.31053 -1.23364,0.28326 l -0.0141,0.0284 q 0.52107,0.61386 0.66384,1.20467 0.14277,0.59081 -0.17775,1.23436 z m 0.59189,-3.99867 q 0.25217,-0.50632 0.008,-1.00004 -0.23719,-0.4961 -0.84288,-0.79776 -0.59622,-0.29695 -1.12091,-0.20393 -0.51996,0.0954 -0.76035,0.57803 -0.16969,0.3407 -0.10532,0.68576 0.0715,0.34269 0.36286,0.72995 0.13266,0.17238 0.39082,0.47222 0.26289,0.3022 0.53042,0.54765 0.624,-0.079 0.97115,-0.3254 0.34714,-0.24641 0.56632,-0.68648 z m -1.61145,3.60308 q 0.21682,-0.43533 0.15244,-0.79222 -0.0573,-0.35926 -0.4837,-0.90234 -0.17055,-0.21487 -0.39076,-0.43675 -0.22021,-0.22189 -0.58015,-0.60195 -0.54136,0.0198 -0.99958,0.28762 -0.45349,0.27022 -0.70331,0.7718 -0.31816,0.63881 -0.0855,1.2744 0.23268,0.63559 0.90935,0.97261 0.69086,0.34408 1.27929,0.19422 0.59317,-0.1475 0.9019,-0.76739 z"
         style="font-style:normal;font-variant:normal;font-weight:normal;font-stretch:normal;font-size:10.82644939px;font-family:sans-serif;-inkscape-font-specification:'sans-serif, Normal';font-variant-ligatures:normal;font-variant-caps:normal;font-variant-numeric:normal;font-feature-settings:normal;text-align:start;writing-mode:lr-tb;text-anchor:start;fill:#000000;fill-opacity:1;stroke-width:0.27066267"
         id="path2291"
         inkscape:connector-curvature="0" />
      <path
         d="m 160.08897,189.92814 q -0.59786,0.83976 -1.27914,1.38651 -0.67697,0.54983 -1.40794,0.75621 -0.7414,0.21193 -1.52147,0.0589 -0.78008,-0.15303 -1.57677,-0.72024 -0.22393,-0.15943 -0.40363,-0.3263 -0.18277,-0.16257 -0.30101,-0.32462 l 0.5856,-0.82253 0.0431,0.0307 q 0.0789,0.15351 0.26422,0.3763 0.18838,0.21848 0.4683,0.41777 0.95172,0.67757 1.89474,0.49237 0.95038,-0.18645 1.75088,-1.12853 -0.57219,-0.044 -0.99891,-0.19203 -0.42671,-0.14805 -0.84443,-0.44545 -0.39619,-0.28207 -0.66399,-0.58953 -0.26349,-0.3044 -0.42704,-0.75828 -0.19194,-0.5325 -0.0975,-1.07527 0.0987,-0.53971 0.50035,-1.10385 0.69904,-0.98187 1.78344,-1.13779 1.0844,-0.15593 2.01459,0.50632 0.4651,0.33112 0.75705,0.75961 0.29501,0.42418 0.38674,0.92426 0.11157,0.61804 -0.092,1.32322 -0.20048,0.70087 -0.83513,1.5923 z m -0.73806,-0.8045 q 0.47522,-0.66749 0.62561,-1.17041 0.1504,-0.50292 0.0687,-0.89854 -0.0644,-0.33789 -0.23873,-0.58528 -0.17123,-0.25169 -0.44253,-0.44485 -0.62013,-0.44149 -1.25781,-0.31145 -0.63337,0.1331 -1.13312,0.83505 -0.29127,0.40911 -0.35895,0.75028 -0.0677,0.34117 0.07,0.73118 0.0987,0.27146 0.29757,0.4844 0.20188,0.20862 0.48611,0.41098 0.3359,0.23914 0.7448,0.39398 0.4089,0.15484 0.83299,0.1972 0.0687,-0.0874 0.13432,-0.17043 0.073,-0.0843 0.17111,-0.22211 z"
         style="font-style:normal;font-variant:normal;font-weight:normal;font-stretch:normal;font-size:10.82644939px;font-family:sans-serif;-inkscape-font-specification:'sans-serif, Normal';font-variant-ligatures:normal;font-variant-caps:normal;font-variant-numeric:normal;font-feature-settings:normal;text-align:start;writing-mode:lr-tb;text-anchor:start;fill:#000000;fill-opacity:1;stroke-width:0.27066267"
         id="path2293"
         inkscape:connector-curvature="0" />
      <path
         d="m 168.18868,202.95554 -3.12742,-2.89373 0.54571,-0.58978 1.20286,1.11297 3.58305,-3.87242 -1.20286,-1.11297 0.48827,-0.5277 q 0.24445,0.22618 0.55973,0.44587 0.31887,0.21582 0.53424,0.27105 0.26824,0.0682 0.50555,0.014 0.24479,-0.0544 0.49367,-0.29224 l 0.60143,0.55648 -4.81809,5.2072 1.17958,1.09143 z"
         style="font-style:normal;font-variant:normal;font-weight:normal;font-stretch:normal;font-size:10.82644939px;font-family:sans-serif;-inkscape-font-specification:'sans-serif, Normal';font-variant-ligatures:normal;font-variant-caps:normal;font-variant-numeric:normal;font-feature-settings:normal;text-align:start;writing-mode:lr-tb;text-anchor:start;fill:#000000;fill-opacity:1;stroke-width:0.27066267"
         id="path2295"
         inkscape:connector-curvature="0" />
      <path
         d="m 174.82262,204.09152 q -1.53399,1.46306 -2.71288,1.66698 -1.17142,0.2041 -2.13463,-0.80581 -0.97781,-1.02521 -0.7034,-2.19278 0.27806,-1.16374 1.78527,-2.60126 1.51869,-1.44847 2.69775,-1.65987 1.1829,-0.21504 2.14976,0.79869 0.9778,1.02521 0.68827,2.1999 -0.28206,1.17487 -1.77014,2.59415 z m -2.6963,0.65035 q 0.43755,-0.16164 0.8983,-0.51343 0.46823,-0.3516 1.05734,-0.91348 0.58147,-0.55457 0.96248,-1.01294 0.38466,-0.45454 0.5517,-0.87684 0.16686,-0.41483 0.0935,-0.79047 -0.0697,-0.37182 -0.41633,-0.73523 -0.34297,-0.35959 -0.71837,-0.45447 -0.37175,-0.0911 -0.8053,0.0595 -0.40713,0.13993 -0.90979,0.52437 -0.499,0.38827 -1.04221,0.90636 -0.59676,0.56918 -0.9583,0.99435 -0.36153,0.42518 -0.54769,0.86572 -0.17798,0.41082 -0.11591,0.78994 0.0657,0.38294 0.43057,0.76548 0.34296,0.35958 0.71836,0.45447 0.3754,0.0949 0.80166,-0.0633 z"
         style="font-style:normal;font-variant:normal;font-weight:normal;font-stretch:normal;font-size:10.82644939px;font-family:sans-serif;-inkscape-font-specification:'sans-serif, Normal';font-variant-ligatures:normal;font-variant-caps:normal;font-variant-numeric:normal;font-feature-settings:normal;text-align:start;writing-mode:lr-tb;text-anchor:start;fill:#000000;fill-opacity:1;stroke-width:0.27066267"
         id="path2297"
         inkscape:connector-curvature="0" />
    </g>
    <path
       sodipodi:nodetypes="csscc"
       inkscape:connector-curvature="0"
       style="opacity:1;vector-effect:none;fill:none;fill-opacity:1;fill-rule:nonzero;stroke:none;stroke-width:0.21200001;stroke-linecap:butt;stroke-linejoin:miter;stroke-miterlimit:4;stroke-dasharray:none;stroke-dashoffset:0;stroke-opacity:1"
       d="m 16.465783,200.15371 c 1.277521,-1.417 2.591505,-2.80184 3.941336,-4.15168 21.318319,-21.31838 51.28086,-33.73076 81.429591,-33.73076 30.14892,0 60.11161,12.41238 81.43012,33.73076 1.34984,1.34984 2.66333,2.73468 3.94086,4.15168"
       id="path994" />
    <g
       aria-label="Point-o-meter"
       transform="translate(2.7011002,-16.004193)"
       style="font-style:normal;font-variant:normal;font-weight:normal;font-stretch:normal;font-size:31.04444504px;line-height:1.25;font-family:'Niagara Engraved';-inkscape-font-specification:'Niagara Engraved';font-variant-ligatures:normal;font-variant-caps:normal;font-variant-numeric:normal;font-feature-settings:normal;text-align:start;letter-spacing:0px;word-spacing:0px;writing-mode:lr-tb;text-anchor:start;fill:#000000;fill-opacity:1;stroke:none;stroke-width:0.51851791"
       id="text2358">
      <path
         d="m 54.542634,230.95752 q 0.893223,0.94953 0.742226,2.38188 -0.161383,1.42131 -1.287559,2.48071 l -0.783907,0.73743 5.992899,6.37062 0.563088,-0.5297 0.384294,0.40852 -2.93689,2.76275 -0.384294,-0.40851 0.563088,-0.5297 -14.125377,-15.01568 -0.563088,0.5297 -0.384293,-0.40851 3.157709,-2.97049 q 1.126176,-1.0594 2.565074,-1.12268 1.428513,-0.0743 2.321735,0.87521 z m -0.572995,1.20499 -4.840019,-5.14508 q -0.862063,-0.91639 -2.145822,-0.66608 0.737603,0.0762 1.391941,0.77174 l 5.442424,5.78545 q 0.654338,0.69558 0.685321,1.43645 0.328218,-1.26608 -0.533845,-2.18248 z m -0.302951,1.49205 -6.044831,-6.42582 q -0.353134,-0.3754 -0.867388,-0.39111 -0.514254,-0.0157 -0.889646,0.33743 l -0.783906,0.73742 7.748184,8.23655 0.783907,-0.73743 q 0.375392,-0.35314 0.391103,-0.86739 0.01571,-0.51425 -0.337423,-0.88965 z m 4.634248,10.12528 -14.125377,-15.01568 -0.452678,0.42584 14.125377,15.01568 z"
         style="font-style:normal;font-variant:normal;font-weight:normal;font-stretch:normal;font-size:31.04444504px;font-family:'Niagara Engraved';-inkscape-font-specification:'Niagara Engraved';font-variant-ligatures:normal;font-variant-caps:normal;font-variant-numeric:normal;font-feature-settings:normal;text-align:start;writing-mode:lr-tb;text-anchor:start;stroke-width:0.51851791"
         id="path2374"
         inkscape:connector-curvature="0" />
      <path
         d="m 68.285749,232.7269 q 0.755014,1.09971 0.453595,2.42827 -0.297501,1.30748 -1.547167,2.16545 -1.249667,0.85797 -2.589228,0.67443 -1.348141,-0.19604 -2.103154,-1.29575 l -5.722656,-8.33527 q -0.755013,-1.09971 -0.445015,-2.41577 0.301419,-1.32855 1.551085,-2.18652 1.249666,-0.85797 2.58531,-0.65336 1.339562,0.18354 2.094575,1.28325 z m -0.716603,1.09877 -6.288915,-9.16005 q -0.720694,-1.04972 -2.048693,-1.00217 0.712679,0.15425 1.287519,0.99153 l 6.786537,9.88486 q 0.57484,0.83728 0.462739,1.55779 0.521508,-1.22224 -0.199187,-2.27196 z m -0.51069,1.39869 -7.267001,-10.58468 q -0.703535,-1.02472 -1.590798,-0.41557 -0.899759,0.61774 -0.196224,1.64247 l 7.267,10.58467 q 0.703535,1.02473 1.603295,0.40699 0.887263,-0.60916 0.183728,-1.63388 z m -2.003202,2.33144 q -0.672018,-0.25572 -1.221118,-1.0555 l -6.391872,-9.31002 q -0.5491,-0.79978 -0.546299,-1.5188 -0.446527,1.17076 0.239849,2.17049 l 5.980046,8.71017 q 0.686376,0.99974 1.939394,1.00366 z"
         style="font-style:normal;font-variant:normal;font-weight:normal;font-stretch:normal;font-size:31.04444504px;font-family:'Niagara Engraved';-inkscape-font-specification:'Niagara Engraved';font-variant-ligatures:normal;font-variant-caps:normal;font-variant-numeric:normal;font-feature-settings:normal;text-align:start;writing-mode:lr-tb;text-anchor:start;stroke-width:0.51851791"
         id="path2376"
         inkscape:connector-curvature="0" />
      <path
         d="m 65.460428,217.26696 -2.144554,1.13279 -1.741656,-3.29725 2.144554,-1.13279 z m 9.094499,15.56224 -3.511706,1.85493 -0.261956,-0.49593 0.683576,-0.36107 -7.016182,-13.28283 -0.683577,0.36108 -0.261956,-0.49593 2.82813,-1.49386 7.278139,13.77876 0.683576,-0.36108 z m -10.428732,-15.49177 -1.217743,-2.3054 -0.549542,0.29028 1.217743,2.30539 z m 8.410923,15.92331 -7.016183,-13.28283 -0.549542,0.29028 7.016183,13.28282 z"
         style="font-style:normal;font-variant:normal;font-weight:normal;font-stretch:normal;font-size:31.04444504px;font-family:'Niagara Engraved';-inkscape-font-specification:'Niagara Engraved';font-variant-ligatures:normal;font-variant-caps:normal;font-variant-numeric:normal;font-feature-settings:normal;text-align:start;writing-mode:lr-tb;text-anchor:start;stroke-width:0.51851791"
         id="path2378"
         inkscape:connector-curvature="0" />
      <path
         d="m 82.954017,229.42043 -2.970918,1.14317 -5.204148,-13.52476 q -0.424606,-1.10348 -1.27344,-0.77686 -0.551742,0.2123 -0.856367,0.89798 l 5.23681,13.60964 0.735656,-0.28307 0.201416,0.52345 -3.720723,1.43168 -0.201415,-0.52344 0.735656,-0.28307 -5.394676,-14.01991 -0.735656,0.28307 -0.201416,-0.52345 2.985066,-1.14861 0.157867,0.41027 q 0.424322,-0.79671 1.471217,-1.19954 2.461618,-0.9472 3.485028,1.71248 l 4.627119,12.02515 0.721509,-0.27763 z m -2.054703,0.18967 -4.817647,-12.5203 q -0.468155,-1.21666 -1.596737,-1.23717 0.548545,0.2437 0.918715,1.20571 l 4.915633,12.77495 z m -4.130992,1.58955 -5.394675,-14.01991 -0.580037,0.2232 5.394676,14.0199 z"
         style="font-style:normal;font-variant:normal;font-weight:normal;font-stretch:normal;font-size:31.04444504px;font-family:'Niagara Engraved';-inkscape-font-specification:'Niagara Engraved';font-variant-ligatures:normal;font-variant-caps:normal;font-variant-numeric:normal;font-feature-settings:normal;text-align:start;writing-mode:lr-tb;text-anchor:start;stroke-width:0.51851791"
         id="path2380"
         inkscape:connector-curvature="0" />
      <path
         d="m 88.329876,228.1777 -0.750675,0.18477 q -1.471912,0.36229 -2.66437,-0.29647 -1.177739,-0.66238 -1.49293,-1.94294 l -2.967143,-12.05496 -0.765394,0.18839 -0.134046,-0.54461 0.765394,-0.18839 -1.075997,-4.37157 2.079492,-1.63582 1.336844,5.43135 1.692699,-0.41663 0.134047,0.54461 -1.692699,0.41663 3.293203,13.37968 q 0.297076,1.20697 1.356853,0.94612 l 0.750675,-0.18477 z m -2.836921,-0.36327 q -0.535086,-0.46151 -0.766951,-1.40353 l -4.296742,-17.45688 -0.534649,0.4282 4.137335,16.80924 q 0.293454,1.19224 1.461007,1.62297 z"
         style="font-style:normal;font-variant:normal;font-weight:normal;font-stretch:normal;font-size:31.04444504px;font-family:'Niagara Engraved';-inkscape-font-specification:'Niagara Engraved';font-variant-ligatures:normal;font-variant-caps:normal;font-variant-numeric:normal;font-feature-settings:normal;text-align:start;writing-mode:lr-tb;text-anchor:start;stroke-width:0.51851791"
         id="path2382"
         inkscape:connector-curvature="0" />
      <path
         d="m 91.04869,216.51014 -3.550854,0.54573 -0.11283,-0.73415 3.550855,-0.54572 z"
         style="font-style:normal;font-variant:normal;font-weight:normal;font-stretch:normal;font-size:31.04444504px;font-family:'Niagara Engraved';-inkscape-font-specification:'Niagara Engraved';font-variant-ligatures:normal;font-variant-caps:normal;font-variant-numeric:normal;font-feature-settings:normal;text-align:start;writing-mode:lr-tb;text-anchor:start;stroke-width:0.51851791"
         id="path2384"
         inkscape:connector-curvature="0" />
      <path
         d="m 100.94091,223.98236 q 0.0518,1.33294 -0.912,2.29575 -0.949243,0.94707 -2.463942,1.00593 -1.514699,0.0589 -2.549715,-0.81112 -1.035603,-0.88512 -1.087397,-2.21805 l -0.392572,-10.10305 q -0.05179,-1.33293 0.912593,-2.2806 0.963799,-0.96281 2.478498,-1.02166 1.514699,-0.0589 2.535156,0.82685 1.035019,0.86997 1.086809,2.20291 z m -1.192334,0.54694 -0.431418,-11.10275 q -0.04944,-1.27234 -1.197979,-1.9407 0.52045,0.51072 0.559884,1.52557 l 0.465555,11.98127 q 0.03943,1.01485 -0.439818,1.56442 1.093215,-0.75547 1.043776,-2.02781 z m -1.178211,0.91046 -0.498514,-12.8295 q -0.04826,-1.24205 -1.123699,-1.20027 -1.090583,0.0424 -1.042321,1.28443 l 0.498514,12.8295 q 0.04826,1.24206 1.138846,1.19968 1.075436,-0.0418 1.027174,-1.28384 z m -2.938205,0.903 q -0.431923,-0.57484 -0.469591,-1.54425 l -0.43848,-11.2845 q -0.03767,-0.96941 0.348346,-1.57604 -1.002332,0.75194 -0.955247,1.96369 l 0.410229,10.55746 q 0.04708,1.21176 1.104743,1.88364 z"
         style="font-style:normal;font-variant:normal;font-weight:normal;font-stretch:normal;font-size:31.04444504px;font-family:'Niagara Engraved';-inkscape-font-specification:'Niagara Engraved';font-variant-ligatures:normal;font-variant-caps:normal;font-variant-numeric:normal;font-feature-settings:normal;text-align:start;writing-mode:lr-tb;text-anchor:start;stroke-width:0.51851791"
         id="path2386"
         inkscape:connector-curvature="0" />
      <path
         d="m 106.76294,216.30567 -3.58249,-0.26864 0.0555,-0.74068 3.58249,0.26864 z"
         style="font-style:normal;font-variant:normal;font-weight:normal;font-stretch:normal;font-size:31.04444504px;font-family:'Niagara Engraved';-inkscape-font-specification:'Niagara Engraved';font-variant-ligatures:normal;font-variant-caps:normal;font-variant-numeric:normal;font-feature-settings:normal;text-align:start;writing-mode:lr-tb;text-anchor:start;stroke-width:0.51851791"
         id="path2388"
         inkscape:connector-curvature="0" />
      <path
         d="m 119.35537,230.10033 -3.11388,-0.73055 3.30996,-14.10838 q 0.27006,-1.1511 -0.60064,-1.35537 -0.67886,-0.15927 -1.52737,0.40459 0.12715,0.65263 -0.0737,1.50858 l -2.94296,12.54406 0.75264,0.17658 -0.1281,0.54603 -3.09912,-0.72708 3.30996,-14.10838 q 0.27006,-1.1511 -0.61541,-1.35884 -0.57555,-0.13503 -1.21325,0.26031 l -3.33073,14.19692 0.7674,0.18004 -0.12811,0.54604 -3.88128,-0.91059 0.12811,-0.54603 0.7674,0.18004 3.43114,-14.6249 -0.7674,-0.18004 0.12811,-0.54603 3.11388,0.73054 -0.10041,0.42798 q 0.79913,-0.41975 1.8912,-0.16354 1.46101,0.34277 1.88439,1.39187 1.11142,-0.68902 2.43962,-0.37742 2.56784,0.60245 1.91693,3.3769 l -2.94296,12.54405 0.75264,0.17658 z m -1.80516,-0.9996 3.06414,-13.06058 q 0.29776,-1.26916 -0.62358,-1.92128 0.31627,0.51016 0.0808,1.51369 l -3.12646,13.32621 z m -4.32401,-1.01446 3.06414,-13.06057 q 0.29776,-1.26917 -0.62358,-1.92128 0.31627,0.51016 0.0808,1.51368 l -3.12646,13.32622 z m -4.30925,-1.01099 3.43114,-14.62489 -0.60507,-0.14196 -3.43114,14.6249 z"
         style="font-style:normal;font-variant:normal;font-weight:normal;font-stretch:normal;font-size:31.04444504px;font-family:'Niagara Engraved';-inkscape-font-specification:'Niagara Engraved';font-variant-ligatures:normal;font-variant-caps:normal;font-variant-numeric:normal;font-feature-settings:normal;text-align:start;writing-mode:lr-tb;text-anchor:start;stroke-width:0.51851791"
         id="path2390"
         inkscape:connector-curvature="0" />
      <path
         d="m 127.83547,230.79482 q -0.54477,1.21763 -1.83562,1.65309 -1.27081,0.42782 -2.65449,-0.19124 -1.38367,-0.61905 -1.92546,-1.85783 -0.5356,-1.25262 0.009,-2.47025 l 4.1291,-9.22909 q 0.54477,-1.21763 1.82943,-1.63926 1.29084,-0.43546 2.67452,0.18359 1.38367,0.61906 1.90543,1.86549 0.54179,1.23878 -0.003,2.45641 l -2.16669,4.84285 -4.19253,-1.87574 -2.51955,5.63154 q -0.50763,1.13461 0.48861,1.58033 0.98241,0.43953 1.49004,-0.69508 l 1.34335,-3.00256 2.21387,0.99048 z m 1.08452,-5.39344 2.14193,-4.78751 q 0.52001,-1.16228 -0.21295,-2.27071 0.23994,0.68857 -0.17483,1.61563 l -2.32146,5.18877 z m -1.10694,-0.49525 2.4948,-5.5762 q 0.50762,-1.13461 -0.47479,-1.57414 -0.99624,-0.44572 -1.50386,0.68889 l -2.4948,5.5762 z m -5.78251,5.64966 q -0.13216,-0.70677 0.26404,-1.59232 l 4.61196,-10.30836 q 0.3962,-0.88555 1.01122,-1.25803 -1.23185,0.22936 -1.7271,1.3363 l -4.31482,9.64419 q -0.49524,1.10694 0.1547,2.17822 z m 4.49371,0.20039 0.76143,-1.70191 -0.5673,-0.25381 -0.94097,2.10318 q -0.41476,0.92706 -1.08804,1.20705 1.31487,-0.19222 1.83488,-1.35451 z"
         style="font-style:normal;font-variant:normal;font-weight:normal;font-stretch:normal;font-size:31.04444504px;font-family:'Niagara Engraved';-inkscape-font-specification:'Niagara Engraved';font-variant-ligatures:normal;font-variant-caps:normal;font-variant-numeric:normal;font-feature-settings:normal;text-align:start;writing-mode:lr-tb;text-anchor:start;stroke-width:0.51851791"
         id="path2392"
         inkscape:connector-curvature="0" />
      <path
         d="m 131.80047,236.68885 -0.66139,-0.40028 q -1.29683,-0.78486 -1.67398,-2.09393 -0.36418,-1.30123 0.31865,-2.42947 l 6.42798,-10.62107 -0.67436,-0.40812 0.2904,-0.47983 0.67435,0.40813 2.33103,-3.8516 2.62706,0.3142 -2.89612,4.78532 1.49136,0.90258 -0.2904,0.47983 -1.49136,-0.90258 -7.13435,11.78821 q -0.64358,1.06341 0.29014,1.6285 l 0.66138,0.40028 z m -1.74873,-2.2632 q -0.0519,-0.70471 0.45041,-1.53468 l 9.3084,-15.38044 -0.68082,-0.0754 -8.96306,14.80984 q -0.63574,1.05044 -0.11493,2.18068 z"
         style="font-style:normal;font-variant:normal;font-weight:normal;font-stretch:normal;font-size:31.04444504px;font-family:'Niagara Engraved';-inkscape-font-specification:'Niagara Engraved';font-variant-ligatures:normal;font-variant-caps:normal;font-variant-numeric:normal;font-feature-settings:normal;text-align:start;writing-mode:lr-tb;text-anchor:start;stroke-width:0.51851791"
         id="path2394"
         inkscape:connector-curvature="0" />
      <path
         d="m 140.13115,239.24263 q -0.82497,1.04825 -2.18301,1.15615 -1.33675,0.10537 -2.52795,-0.8321 -1.19119,-0.93746 -1.4149,-2.2709 -0.21433,-1.34536 0.61064,-2.3936 l 6.25288,-7.94525 q 0.82497,-1.04825 2.17364,-1.14424 1.35804,-0.1079 2.54923,0.82956 1.19119,0.93746 1.39361,2.27344 0.22371,1.33344 -0.60126,2.38169 l -3.28112,4.16918 -3.60931,-2.84052 -3.81548,4.84815 q -0.76872,0.97678 0.0889,1.65175 0.84574,0.6656 1.61446,-0.31118 l 2.0343,-2.58488 1.90591,1.49994 z m 2.36567,-4.96679 3.24362,-4.12152 q 0.78747,-1.0006 0.3466,-2.25419 0.065,0.72628 -0.56312,1.52438 l -3.51549,4.46697 z m -0.95296,-0.74997 3.77798,-4.8005 q 0.76872,-0.97678 -0.077,-1.64238 -0.85766,-0.67497 -1.62638,0.3018 l -3.77798,4.80051 z m -6.98455,4.07088 q 0.044,-0.71768 0.64396,-1.48004 l 6.98411,-8.87438 q 0.59998,-0.76236 1.28721,-0.97381 -1.25062,-0.0776 -2.00059,0.87534 l -6.53413,8.3026 q -0.74997,0.95296 -0.38056,2.15029 z m 4.30952,1.28901 1.15308,-1.46517 -0.48839,-0.38436 -1.42494,1.81061 q -0.6281,0.7981 -1.34931,0.90565 1.32209,0.13387 2.10956,-0.86673 z"
         style="font-style:normal;font-variant:normal;font-weight:normal;font-stretch:normal;font-size:31.04444504px;font-family:'Niagara Engraved';-inkscape-font-specification:'Niagara Engraved';font-variant-ligatures:normal;font-variant-caps:normal;font-variant-numeric:normal;font-feature-settings:normal;text-align:start;writing-mode:lr-tb;text-anchor:start;stroke-width:0.51851791"
         id="path2396"
         inkscape:connector-curvature="0" />
      <path
         d="m 152.2412,239.9014 -1.67373,-1.75525 2.38057,-2.27 q 0.85569,-0.81595 0.34311,-1.35349 -0.33475,-0.35106 -1.05346,-0.33598 l -10.55349,10.06331 0.54396,0.57046 -0.4059,0.38705 -2.7512,-2.8852 0.40591,-0.38705 0.54396,0.57046 10.87163,-10.36668 -0.54396,-0.57046 0.4059,-0.38705 2.20723,2.31475 -0.31814,0.30336 q 0.89858,0.0857 1.60992,0.83168 1.67373,1.75526 -0.3887,3.72189 z m -0.43096,-1.26468 1.60167,-1.52728 q 0.94345,-0.89963 0.53827,-1.89565 -0.002,0.52532 -0.7697,1.25757 l -1.79914,1.71558 z m -10.95244,4.74661 10.87163,-10.36667 -0.4289,-0.44979 -10.87163,10.36668 z"
         style="font-style:normal;font-variant:normal;font-weight:normal;font-stretch:normal;font-size:31.04444504px;font-family:'Niagara Engraved';-inkscape-font-specification:'Niagara Engraved';font-variant-ligatures:normal;font-variant-caps:normal;font-variant-numeric:normal;font-feature-settings:normal;text-align:start;writing-mode:lr-tb;text-anchor:start;stroke-width:0.51851791"
         id="path2398"
         inkscape:connector-curvature="0" />
    </g>
    <path
       style="opacity:1;vector-effect:none;fill:none;fill-opacity:1;fill-rule:nonzero;stroke:#000000;stroke-width:0.40000001;stroke-linecap:butt;stroke-linejoin:miter;stroke-miterlimit:4;stroke-dasharray:none;stroke-dashoffset:0;stroke-opacity:1"
       d="M 198.26439,197.76101 166.12005,229.90535 101.83138,294.19402 36.346742,228.70937 4.9240785,197.32008"
       id="rect2365"
       inkscape:connector-curvature="0"
       sodipodi:nodetypes="ccccc" />
    <path
       style="opacity:1;vector-effect:none;fill:none;fill-opacity:1;fill-rule:nonzero;stroke:#000000;stroke-width:0.40000001;stroke-linecap:butt;stroke-linejoin:miter;stroke-miterlimit:4;stroke-dasharray:none;stroke-dashoffset:0;stroke-opacity:1"
       d="m 198.24591,192.05772 c 0.72903,0.72904 1.17995,1.73619 1.17995,2.84866 0,1.11247 -0.45092,2.11962 -1.17995,2.84866"
       id="path2368"
       inkscape:connector-curvature="0"
       sodipodi:nodetypes="csc" />
    <path
       style="opacity:1;vector-effect:none;fill:none;fill-opacity:1;fill-rule:nonzero;stroke:#000000;stroke-width:0.40000001;stroke-linecap:butt;stroke-linejoin:miter;stroke-miterlimit:4;stroke-dasharray:none;stroke-dashoffset:0;stroke-opacity:1"
       d="m 5.2139495,197.6332 c -0.7290354,-0.72904 -1.1799537,-1.73619 -1.1799554,-2.84866 -1.8e-6,-1.11247 0.4509155,-2.11963 1.1799514,-2.84866"
       id="circle2370"
       inkscape:connector-curvature="0"
       sodipodi:nodetypes="csc" />
    <circle
       style="opacity:1;vector-effect:none;fill:none;fill-opacity:1;fill-rule:nonzero;stroke:none;stroke-width:0.21157934;stroke-linecap:butt;stroke-linejoin:miter;stroke-miterlimit:4;stroke-dasharray:none;stroke-dashoffset:0;stroke-opacity:1"
       id="path908"
       cx="10.193048"
       cy="-271.57782"
       r="18.993338"
       transform="rotate(155.9244)" />
    <g
       aria-label="D"
       transform="matrix(0.48361828,0,0,0.48361828,558.27556,261.62156)"
       style="font-style:normal;font-variant:normal;font-weight:normal;font-stretch:normal;font-size:14.58910084px;line-height:1.25;font-family:'Copperplate Gothic Bold';-inkscape-font-specification:'Copperplate Gothic Bold, Normal';font-variant-ligatures:normal;font-variant-caps:normal;font-variant-numeric:normal;font-feature-settings:normal;text-align:start;letter-spacing:0px;word-spacing:0px;writing-mode:lr-tb;text-anchor:start;fill:#000000;fill-opacity:1;stroke:none"
       id="flowRoot938">
      <path
         d="m -950.09562,-20.552822 v -8.22774 q 0,-0.220831 -0.0997,-0.334808 -0.0997,-0.113978 -0.35618,-0.185214 v -0.227954 h 5.42104 q 1.7809,0 2.73546,0.406044 1.36773,0.591257 2.0231,1.951862 0.52002,1.068538 0.52002,2.500378 0,2.514626 -1.54582,3.832489 -0.64824,0.555639 -1.51732,0.797841 -0.86908,0.235078 -2.21544,0.235078 h -5.42104 V -20.0328 q 0.25645,-0.07124 0.35618,-0.185214 0.0997,-0.113977 0.0997,-0.334808 z m 2.12282,-0.85483 h 2.66422 q 1.27513,0 1.91625,-0.349056 1.37485,-0.747976 1.37485,-2.913546 0,-1.567188 -0.74085,-2.400648 -0.41317,-0.463033 -0.9973,-0.655369 -0.58414,-0.199461 -1.55295,-0.199461 h -2.66422 z"
         id="path1018"
         inkscape:connector-curvature="0" />
    </g>
    <g
       aria-label="Bradley &amp; Boulton"
       style="font-style:normal;font-variant:normal;font-weight:normal;font-stretch:normal;font-size:7.05555534px;line-height:1.25;font-family:'Copperplate Gothic Bold';-inkscape-font-specification:'Copperplate Gothic Bold, Normal';font-variant-ligatures:normal;font-variant-caps:normal;font-variant-numeric:normal;font-feature-settings:normal;text-align:start;letter-spacing:0px;word-spacing:0px;writing-mode:lr-tb;text-anchor:start;fill:#000000;fill-opacity:1;stroke:none;stroke-width:0.26458332"
       id="text946"
       transform="translate(1.1136002,-4.3625198)">
      <path
         d="m 79.215381,257.32931 q 0.07644,-0.84371 0.856433,-1.06065 0.620674,-0.17263 1.0962,0.17428 0.238686,0.17678 0.401427,0.45334 0.158498,0.27417 0.280352,0.71229 l 0.861285,3.09674 -0.106212,0.0295 q -0.06642,-0.11026 -0.132454,-0.14196 -0.06603,-0.0317 -0.168922,-0.003 l -3.833574,1.06622 q -0.102893,0.0286 -0.143075,0.0899 -0.04018,0.0612 -0.04014,0.18995 l -0.106211,0.0295 -0.852977,-3.06686 q -0.122777,-0.44144 -0.131168,-0.72875 -0.0084,-0.28731 0.09461,-0.53409 0.203616,-0.48931 0.797737,-0.65455 0.663823,-0.18462 1.126685,0.34818 z m 0.433212,2.93329 -0.4828,-1.73589 q -0.109853,-0.39498 -0.269409,-0.51867 -0.181691,-0.13898 -0.460496,-0.0614 -0.285444,0.0794 -0.358775,0.27858 -0.07665,0.20011 0.0332,0.59508 l 0.482799,1.7359 z m 1.98151,-0.55111 -0.467107,-1.67947 q -0.130162,-0.46799 -0.316841,-0.63778 -0.214903,-0.19411 -0.553452,-0.1 -0.335231,0.0932 -0.422367,0.37136 -0.07313,0.23846 0.05795,0.70978 l 0.467106,1.67947 z"
         id="path986"
         inkscape:connector-curvature="0" />
      <path
         d="m 79.776515,254.09216 1.233285,0.0121 q 0.106793,10e-4 0.165828,-0.0466 0.05559,-0.0477 0.0947,-0.17134 l 0.09301,9.1e-4 -0.01333,1.36419 -0.09646,-9.4e-4 q -0.02983,-0.12088 -0.08792,-0.16968 -0.05806,-0.0522 -0.164852,-0.0533 l -3.155557,-0.0308 q -0.106792,-0.001 -0.162383,0.0466 -0.05559,0.0477 -0.0947,0.17134 l -0.09646,-9.5e-4 0.02472,-2.52857 q 0.0048,-0.49263 0.05902,-0.75049 0.05076,-0.2579 0.183649,-0.45987 0.276224,-0.41418 0.892867,-0.40815 0.46851,0.005 0.731244,0.26554 0.259323,0.25748 0.370861,0.83049 l 1.026838,-0.72036 q 0.284438,-0.19704 0.388931,-0.31316 0.101081,-0.1196 0.130123,-0.27091 l 0.09301,9.1e-4 -0.01583,1.61912 -0.09301,-9.1e-4 q -0.04648,-0.17961 -0.153271,-0.18065 -0.07579,-7.4e-4 -0.231888,0.10798 l -1.113366,0.76086 z m -0.699321,-0.007 0.0136,-1.39175 q 0.0031,-0.31694 -0.06432,-0.46919 -0.09093,-0.21449 -0.36652,-0.21719 -0.24459,-0.002 -0.34253,0.14825 -0.09791,0.14718 -0.101644,0.52957 l -0.0136,1.39175 z"
         id="path988"
         inkscape:connector-curvature="0" />
      <path
         d="m 81.363635,247.14158 -0.474188,1.70968 0.351609,0.30488 q 0.126734,0.11023 0.209729,0.13325 0.159349,0.0442 0.261434,-0.1563 l 0.09295,0.0258 -0.37935,1.36774 -0.09295,-0.0258 q 0.01507,-0.13167 -0.02479,-0.20708 -0.03894,-0.0787 -0.181911,-0.20776 l -2.372185,-2.12017 q -0.134852,-0.11963 -0.251045,-0.15186 -0.13611,-0.0378 -0.264027,0.12698 l -0.09295,-0.0258 0.400527,-1.4441 0.09295,0.0258 q 0.02239,0.20284 0.175103,0.2452 0.109553,0.0304 0.291921,-0.008 l 3.056177,-0.66822 q 0.251331,-0.0554 0.336142,-0.1034 0.08149,-0.0489 0.1458,-0.17764 l 0.08963,0.0249 -0.420784,1.51713 -0.08963,-0.0249 q 0.02333,-0.22591 -0.142657,-0.27195 -0.102913,-0.0285 -0.278642,0.0121 z m -0.595786,0.12434 -1.360296,0.27697 1.031588,0.90819 z"
         id="path990"
         inkscape:connector-curvature="0" />
      <path
         d="m 82.718315,245.14924 -2.721383,-1.59767 q -0.0921,-0.0541 -0.164053,-0.0404 -0.07195,0.0137 -0.167425,0.10146 l -0.08319,-0.0488 1.145931,-1.95191 q 0.357558,-0.60904 0.71489,-0.87066 0.503443,-0.36759 1.123945,-0.29494 0.433583,0.0508 0.894079,0.32116 0.85266,0.50058 0.994103,1.26675 0.06178,0.34388 -0.03223,0.70815 -0.09524,0.35956 -0.367332,0.82303 l -1.14593,1.95191 -0.08319,-0.0488 q 0.03431,-0.11968 0.0082,-0.19092 -0.02434,-0.0742 -0.116442,-0.12829 z m 0.167377,-0.97237 0.498837,-0.84969 q 0.343605,-0.58528 0.231453,-1.00667 -0.117059,-0.44025 -0.631032,-0.74199 -0.513973,-0.30175 -0.955451,-0.1894 -0.219867,0.0547 -0.400861,0.22008 -0.183966,0.16365 -0.365361,0.47263 l -0.498838,0.84969 z"
         id="path992"
         inkscape:connector-curvature="0" />
      <path
         d="m 85.832126,239.99414 1.501464,-1.55291 q 0.07663,-0.0793 0.08027,-0.15241 0.0036,-0.0731 -0.06166,-0.189 l 0.06466,-0.0669 0.822274,0.79504 -0.06466,0.0669 q -0.113109,-0.0614 -0.188493,-0.0529 -0.07299,0.006 -0.149619,0.0853 l -2.296496,2.37519 -0.06935,-0.067 q 0.06152,-0.10824 0.05294,-0.18362 -0.0062,-0.0779 -0.08296,-0.1521 l -2.268685,-2.19353 q -0.07678,-0.0742 -0.149932,-0.0779 -0.07315,-0.004 -0.186606,0.0592 l -0.06935,-0.067 0.948292,-0.98079 0.06935,0.067 q -0.06144,0.11311 -0.05286,0.1885 0.0061,0.073 0.08288,0.14722 z"
         id="path995"
         inkscape:connector-curvature="0" />
      <path
         d="m 88.471469,236.41621 0.510338,0.79001 2.057499,-1.32913 q 0.08971,-0.058 0.109838,-0.12837 0.02302,-0.0723 -0.01721,-0.19806 l 0.08103,-0.0523 0.620631,0.96074 -0.08103,0.0524 q -0.09147,-0.0845 -0.168708,-0.0961 -0.07537,-0.009 -0.165074,0.0492 l -3.018244,1.94975 -0.05234,-0.081 q 0.08446,-0.0915 0.09319,-0.16683 0.01163,-0.0772 -0.04632,-0.16695 l -1.712343,-2.65073 q -0.05795,-0.0897 -0.128374,-0.10984 -0.07042,-0.0201 -0.195163,0.0153 l -0.05234,-0.081 2.928535,-1.8918 q 0.0926,-0.0598 0.112732,-0.13024 0.02302,-0.0723 -0.01534,-0.19517 l 0.07813,-0.0505 0.620631,0.96075 -0.07813,0.0505 q -0.0981,-0.0884 -0.17347,-0.0971 -0.07247,-0.0106 -0.165074,0.0492 l -1.967791,1.27118 0.459865,0.71187 1.221188,-0.78887 q 0.08971,-0.058 0.109838,-0.12838 0.02302,-0.0723 -0.01244,-0.19703 l 0.07813,-0.0505 0.605676,0.93759 -0.07813,0.0505 q -0.09624,-0.0855 -0.171602,-0.0942 -0.07434,-0.0135 -0.166943,0.0463 z"
         id="path997"
         inkscape:connector-curvature="0" />
      <path
         d="m 93.906056,233.64135 0.449096,1.26265 q 0.03579,0.10063 0.100858,0.13964 0.06391,0.0358 0.193466,0.0299 l 0.03117,0.0876 -1.285375,0.45718 -0.03117,-0.0876 q 0.105307,-0.074 0.132278,-0.14212 0.02582,-0.0713 -0.01113,-0.17521 l -0.449096,-1.26266 -1.605238,-1.10008 q -0.270666,-0.18528 -0.413352,-0.23692 -0.140595,-0.056 -0.301451,-0.0354 l -0.03233,-0.0909 1.635932,-0.58186 0.03233,0.0909 q -0.191356,0.13022 -0.140559,0.27304 0.0254,0.0714 0.254152,0.23138 l 0.789995,0.54539 0.255184,-0.91714 q 0.07521,-0.27173 0.04981,-0.34314 -0.04849,-0.13633 -0.277006,-0.12087 l -0.03557,-0.0897 1.55803,-0.55416 0.03233,0.0909 q -0.137767,0.0856 -0.214647,0.21895 -0.07479,0.12898 -0.167663,0.44357 z"
         id="path999"
         inkscape:connector-curvature="0" />
      <path
         d="m 103.09751,231.08525 -0.0115,1.30564 -0.11024,-9.8e-4 q -0.0191,-0.17243 -0.10182,-0.17316 -0.0758,-6.7e-4 -0.22825,0.0979 -0.15246,0.0986 -0.26727,0.22502 -0.20524,0.22213 -0.28678,0.48324 0.21167,0.21892 0.36587,0.31331 0.15767,0.091 0.32303,0.0924 0.15158,0.001 0.18749,-0.16372 l 0.11024,9.8e-4 -0.01,1.08516 q -0.0963,-0.0215 -0.60586,-0.057 -0.19624,-0.0155 -0.48757,-0.18691 -0.28788,-0.17136 -0.49605,-0.39714 -0.70535,0.67592 -1.666495,0.66743 -0.751002,-0.007 -1.24391,-0.3693 -0.557967,-0.40802 -0.552122,-1.06945 0.0078,-0.88536 1.059628,-1.3894 -0.461477,-0.41062 -0.457215,-0.89291 0.005,-0.56153 0.545299,-0.8875 0.439854,-0.26139 1.004825,-0.2564 0.63388,0.006 1.10648,0.32674 0.46233,0.31416 0.45746,0.86535 -0.003,0.3066 -0.1424,0.51897 -0.13624,0.2124 -0.48982,0.45733 0.35624,0.23398 0.54886,0.65945 0.33577,-0.56894 0.65517,-0.84518 0.31943,-0.27969 0.79258,-0.40987 z m -2.91042,-0.8698 q -0.26182,-0.002 -0.459309,0.12341 -0.252913,0.15969 -0.255592,0.46285 -0.0023,0.25492 0.196063,0.42549 0.201791,0.16716 0.508388,0.16987 0.26527,0.002 0.46276,-0.12339 0.25294,-0.16313 0.2555,-0.45251 0.002,-0.26526 -0.19256,-0.43235 -0.1949,-0.1671 -0.51525,-0.17337 z m -0.260213,1.7651 q -0.385835,-0.003 -0.670301,0.21802 -0.281021,0.22145 -0.284004,0.55906 -0.0031,0.35483 0.267007,0.5846 0.273588,0.2298 0.700763,0.23358 0.440958,0.004 0.752948,-0.21384 0.31197,-0.21429 0.31461,-0.51401 10e-4,-0.14124 -0.0937,-0.31089 -0.0915,-0.17307 -0.23518,-0.28804 -0.31465,-0.26117 -0.752133,-0.26848 z"
         id="path1001"
         inkscape:connector-curvature="0" />
      <path
         d="m 110.24922,234.1703 q 0.61631,0.58125 0.30514,1.32866 -0.24762,0.59474 -0.81416,0.75444 -0.28645,0.0785 -0.60447,0.0357 -0.31352,-0.0447 -0.73334,-0.21948 l -2.96737,-1.23542 0.0424,-0.10178 q 0.12774,0.0159 0.19345,-0.0165 0.0657,-0.0324 0.10676,-0.13094 l 1.52938,-3.67344 q 0.041,-0.0986 0.0177,-0.16802 -0.0233,-0.0694 -0.1246,-0.1489 l 0.0424,-0.10177 2.93874,1.2235 q 0.42301,0.17611 0.65414,0.34697 0.23114,0.17087 0.36158,0.4043 0.25905,0.46237 0.022,1.03167 -0.26483,0.63609 -0.96974,0.67101 z m -2.57443,-1.47112 1.66338,0.69252 q 0.37848,0.15757 0.5743,0.10849 0.22153,-0.057 0.33276,-0.3242 0.11387,-0.27352 0.003,-0.45422 -0.11003,-0.18389 -0.4885,-0.34146 l -1.66339,-0.69252 z m -0.79051,1.89873 1.60931,0.67002 q 0.44845,0.1867 0.69728,0.14476 0.2854,-0.0491 0.42046,-0.37352 0.13374,-0.32122 -0.0312,-0.56154 -0.14236,-0.20481 -0.59399,-0.39284 l -1.60931,-0.67001 z"
         id="path1003"
         inkscape:connector-curvature="0" />
      <path
         d="m 114.72829,235.41101 q 0.71745,0.57565 0.90253,1.32486 0.21875,0.89991 -0.41296,1.68722 -0.5929,0.73894 -1.51883,0.72039 -0.76614,-0.014 -1.48358,-0.58967 -0.71745,-0.57565 -0.89716,-1.32055 -0.22144,-0.90207 0.39086,-1.66519 0.61878,-0.77119 1.54093,-0.74242 0.76236,0.0242 1.47821,0.58536 z m -0.45439,0.57181 q -0.46486,-0.37299 -0.99707,-0.30973 -0.49561,0.0617 -0.83411,0.48357 -0.33634,0.41918 -0.28917,0.91639 0.0514,0.53596 0.51897,0.9111 0.46486,0.37299 0.99922,0.30705 0.49347,-0.059 0.82118,-0.46745 0.35574,-0.44336 0.3021,-0.93251 -0.0606,-0.53005 -0.52112,-0.90842 z"
         id="path1005"
         inkscape:connector-curvature="0" />
      <path
         d="m 119.66234,241.55523 -1.64796,1.2074 q -0.56415,0.41333 -0.99104,0.38443 -0.68229,-0.051 -1.40918,-1.04316 -0.48662,-0.66419 -0.58306,-1.22134 -0.0685,-0.40249 0.12441,-0.71041 0.17681,-0.28329 0.55198,-0.55817 l 1.64797,-1.20739 q 0.0862,-0.0631 0.10211,-0.13461 0.016,-0.0715 -0.0268,-0.19392 l 0.0778,-0.057 0.80833,1.10327 -0.0778,0.057 q -0.10312,-0.0825 -0.17887,-0.0867 -0.073,-0.006 -0.15912,0.0568 l -1.4979,1.09745 q -0.26123,0.19139 -0.3676,0.33766 -0.10434,0.14905 -0.10979,0.32814 -0.0137,0.36023 0.30191,0.79098 0.3156,0.43075 0.66319,0.52628 0.17037,0.046 0.3419,-0.0113 0.17153,-0.0573 0.43276,-0.24873 l 1.4979,-1.09745 q 0.0862,-0.0631 0.10211,-0.1346 0.018,-0.0687 -0.0268,-0.19393 l 0.0778,-0.057 0.75946,1.03658 -0.0778,0.057 q -0.10109,-0.0797 -0.17684,-0.084 -0.073,-0.006 -0.15912,0.0568 z"
         id="path1007"
         inkscape:connector-curvature="0" />
      <path
         d="m 118.30973,245.16268 0.83787,1.99095 q 0.0428,0.10161 0.1086,0.13371 0.0658,0.0321 0.19802,0.0176 l 0.0361,0.0857 -1.05422,0.44366 -0.0361,-0.0857 q 0.10095,-0.0799 0.12269,-0.15255 0.0231,-0.0695 -0.0197,-0.17113 l -1.28153,-3.04517 0.0889,-0.0374 q 0.0754,0.0991 0.14804,0.12085 0.074,0.0249 0.17247,-0.0165 l 2.90863,-1.22407 q 0.0984,-0.0414 0.13053,-0.10726 0.0321,-0.0658 0.0189,-0.19485 l 0.0889,-0.0374 0.52918,1.25744 -0.0889,0.0374 q -0.0799,-0.10095 -0.15255,-0.12269 -0.0695,-0.0231 -0.16795,0.0183 z"
         id="path1009"
         inkscape:connector-curvature="0" />
      <path
         d="m 122.22833,249.65488 -2.75899,0.52102 q -0.10494,0.0198 -0.15354,0.0781 -0.0452,0.0576 -0.0594,0.18652 l -0.0914,0.0173 -0.25316,-1.34056 0.0948,-0.0179 q 0.0528,0.11273 0.11934,0.14926 0.0671,0.0399 0.17208,0.0201 l 2.75899,-0.52102 -0.21097,-1.11714 q -0.0204,-0.10833 -0.0821,-0.15629 -0.0576,-0.0452 -0.18589,-0.056 l -0.0173,-0.0914 1.12391,-0.21225 0.0179,0.0948 q -0.11273,0.0528 -0.15328,0.1166 -0.0365,0.0665 -0.0161,0.17483 l 0.59326,3.14152 q 0.0205,0.10833 0.0781,0.15354 0.0583,0.0486 0.18653,0.0594 l 0.0173,0.0914 -1.12391,0.21224 -0.0173,-0.0914 q 0.11548,-0.0569 0.152,-0.12336 0.0405,-0.0638 0.0201,-0.17209 z"
         id="path1011"
         inkscape:connector-curvature="0" />
      <path
         d="m 123.27594,254.48223 q -0.0485,0.91856 -0.54869,1.50624 -0.60289,0.703 -1.6109,0.64979 -0.94608,-0.0499 -1.47161,-0.8125 -0.43593,-0.63019 -0.38744,-1.54875 0.0485,-0.91856 0.54832,-1.49936 0.60308,-0.70645 1.58012,-0.65487 0.98737,0.0521 1.5024,0.81758 0.42542,0.63308 0.3878,1.54187 z m -0.72953,-0.0351 q 0.0314,-0.59517 -0.33066,-0.99032 -0.33945,-0.36636 -0.87958,-0.39487 -0.53669,-0.0283 -0.91282,0.30026 -0.40511,0.35465 -0.43671,0.95327 -0.0314,0.59517 0.33411,0.9905 0.33601,0.36618 0.85894,0.39378 0.56765,0.03 0.93346,-0.29917 0.39497,-0.35864 0.43326,-0.95345 z"
         id="path1013"
         inkscape:connector-curvature="0" />
      <path
         d="m 121.18157,258.96439 -2.07786,-0.69522 q -0.10128,-0.0339 -0.17213,-0.007 -0.0719,0.0304 -0.14286,0.13384 l -0.0882,-0.0295 0.40664,-1.21535 0.0915,0.0306 q -0.009,0.12418 0.0314,0.18851 0.0391,0.0676 0.14042,0.10147 l 2.99264,1.0013 q 0.10128,0.0339 0.16885,0.006 0.0676,-0.0283 0.14287,-0.13384 l 0.0915,0.0306 -0.47004,1.40484 -0.0915,-0.0306 q 0.0122,-0.15578 -0.0793,-0.18639 -0.0784,-0.0262 -0.21793,0.0433 l -2.60305,1.30874 2.01578,0.67446 q 0.10128,0.0339 0.16886,0.006 0.0708,-0.0271 0.14287,-0.13384 l 0.0915,0.0306 -0.40664,1.21535 -0.0915,-0.0306 q 0.007,-0.12855 -0.0336,-0.19287 -0.037,-0.0632 -0.13825,-0.0971 l -2.99264,-1.00129 q -0.10128,-0.0339 -0.17212,-0.007 -0.0676,0.0283 -0.14287,0.13384 l -0.0882,-0.0295 0.43834,-1.31009 0.0882,0.0295 q -0.0187,0.15359 0.0728,0.1842 0.0457,0.0153 0.10786,-0.008 0.0621,-0.0228 0.25288,-0.11519 z"
         id="path1015"
         inkscape:connector-curvature="0" />
    </g>
    <g
       aria-label="Model"
       style="font-style:normal;font-variant:normal;font-weight:normal;font-stretch:normal;font-size:3.52777767px;line-height:1.25;font-family:'Copperplate Gothic Bold';-inkscape-font-specification:'Copperplate Gothic Bold, Normal';font-variant-ligatures:normal;font-variant-caps:normal;font-variant-numeric:normal;font-feature-settings:normal;text-align:start;letter-spacing:0px;word-spacing:0px;writing-mode:lr-tb;text-anchor:start;fill:#000000;fill-opacity:1;stroke:none;stroke-width:0.26458332"
       id="text956"
       transform="translate(1.1136002,-2.2458532)">
      <path
         d="m 95.752518,247.37488 -0.866442,-1.59163 v 1.44349 q 0,0.0534 0.02412,0.081 0.02412,0.0276 0.08613,0.0448 v 0.0551 h -0.690741 v -0.0551 q 0.06201,-0.0172 0.08613,-0.0448 0.02412,-0.0276 0.02412,-0.081 v -1.99126 q 0,-0.0517 -0.02412,-0.0792 -0.02412,-0.0276 -0.08613,-0.0448 v -0.0551 h 0.90606 v 0.0551 q -0.08096,0.0207 -0.08096,0.0947 0,0.0345 0.02412,0.0792 l 0.640787,1.18167 0.649401,-1.161 q 0.04306,-0.0792 0.04306,-0.11541 0,-0.0706 -0.08613,-0.0792 v -0.0551 h 0.888835 v 0.0551 q -0.06201,0.0172 -0.08613,0.0448 -0.02411,0.0276 -0.02411,0.0792 v 1.99126 q 0,0.0534 0.02411,0.081 0.02412,0.0276 0.08613,0.0448 v 0.0551 h -0.733806 v -0.0551 q 0.06029,-0.0155 0.08441,-0.0431 0.02584,-0.0293 0.02584,-0.0827 v -1.44349 z"
         style="font-style:normal;font-variant:normal;font-weight:normal;font-stretch:normal;font-size:3.52777767px;font-family:'Copperplate Gothic Bold';-inkscape-font-specification:'Copperplate Gothic Bold, Normal';font-variant-ligatures:normal;font-variant-caps:normal;font-variant-numeric:normal;font-feature-settings:normal;text-align:start;writing-mode:lr-tb;text-anchor:start;stroke-width:0.26458332"
         id="path1021"
         inkscape:connector-curvature="0" />
      <path
         d="m 98.758363,245.43701 q 0.459921,0 0.766534,0.23427 0.366903,0.2825 0.366903,0.7872 0,0.4737 -0.366903,0.7562 -0.303168,0.23427 -0.763088,0.23427 -0.459921,0 -0.763089,-0.23427 -0.368625,-0.2825 -0.368625,-0.7717 0,-0.49437 0.368625,-0.7717 0.304891,-0.2291 0.759643,-0.23427 z m 0.0017,0.36518 q -0.298001,0 -0.485758,0.19121 -0.173978,0.17914 -0.173978,0.44958 0,0.26872 0.173978,0.44786 0.187757,0.19293 0.487481,0.19293 0.298,0 0.485758,-0.19293 0.173977,-0.17742 0.173977,-0.43925 0,-0.28422 -0.173977,-0.45819 -0.18948,-0.18776 -0.487481,-0.19121 z"
         style="font-style:normal;font-variant:normal;font-weight:normal;font-stretch:normal;font-size:3.52777767px;font-family:'Copperplate Gothic Bold';-inkscape-font-specification:'Copperplate Gothic Bold, Normal';font-variant-ligatures:normal;font-variant-caps:normal;font-variant-numeric:normal;font-feature-settings:normal;text-align:start;writing-mode:lr-tb;text-anchor:start;stroke-width:0.26458332"
         id="path1023"
         inkscape:connector-curvature="0" />
      <path
         d="m 100.29832,247.23191 v -1.57786 q 0,-0.0534 -0.0241,-0.081 -0.0241,-0.0276 -0.0861,-0.0465 v -0.0482 h 1.13171 q 0.35312,0 0.55638,0.0879 0.28595,0.12403 0.41169,0.40997 0.0879,0.19982 0.0879,0.46681 0,0.49437 -0.29455,0.74931 -0.13264,0.11369 -0.31351,0.16536 -0.17914,0.05 -0.44786,0.05 h -1.13171 v -0.0482 q 0.0603,-0.0155 0.0844,-0.0448 0.0258,-0.0293 0.0258,-0.0827 z m 0.46164,-0.17398 h 0.49265 q 0.33934,0 0.49265,-0.15503 0.1602,-0.16192 0.1602,-0.45992 0,-0.298 -0.1602,-0.45992 -0.0792,-0.081 -0.19637,-0.11713 -0.11713,-0.0379 -0.29628,-0.0379 h -0.49265 z"
         style="font-style:normal;font-variant:normal;font-weight:normal;font-stretch:normal;font-size:3.52777767px;font-family:'Copperplate Gothic Bold';-inkscape-font-specification:'Copperplate Gothic Bold, Normal';font-variant-ligatures:normal;font-variant-caps:normal;font-variant-numeric:normal;font-feature-settings:normal;text-align:start;writing-mode:lr-tb;text-anchor:start;stroke-width:0.26458332"
         id="path1025"
         inkscape:connector-curvature="0" />
      <path
         d="m 103.24043,246.58768 v 0.47025 h 1.22473 q 0.0534,0 0.081,-0.0241 0.0293,-0.0241 0.0465,-0.0879 h 0.0482 v 0.57188 h -0.0482 q -0.0155,-0.0603 -0.0448,-0.0861 -0.0293,-0.0241 -0.0827,-0.0241 h -1.79661 v -0.0482 q 0.0603,-0.0155 0.0844,-0.0448 0.0258,-0.0293 0.0258,-0.0827 v -1.57786 q 0,-0.0534 -0.0241,-0.081 -0.0241,-0.0276 -0.0861,-0.0465 v -0.0482 h 1.74321 q 0.0551,0 0.0827,-0.0241 0.0293,-0.0241 0.0465,-0.0861 h 0.0465 V 245.94 h -0.0465 q -0.0172,-0.0637 -0.0465,-0.0879 -0.0276,-0.0241 -0.0827,-0.0241 h -1.17133 v 0.42375 h 0.72692 q 0.0534,0 0.081,-0.0241 0.0293,-0.0241 0.0482,-0.0861 h 0.0465 v 0.5581 h -0.0465 q -0.0172,-0.062 -0.0465,-0.0861 -0.0276,-0.0258 -0.0827,-0.0258 z"
         style="font-style:normal;font-variant:normal;font-weight:normal;font-stretch:normal;font-size:3.52777767px;font-family:'Copperplate Gothic Bold';-inkscape-font-specification:'Copperplate Gothic Bold, Normal';font-variant-ligatures:normal;font-variant-caps:normal;font-variant-numeric:normal;font-feature-settings:normal;text-align:start;writing-mode:lr-tb;text-anchor:start;stroke-width:0.26458332"
         id="path1027"
         inkscape:connector-curvature="0" />
      <path
         d="m 105.5073,247.05793 h 1.08004 q 0.0551,0 0.0827,-0.0241 0.0276,-0.0241 0.0465,-0.0879 h 0.0465 v 0.57188 h -0.0465 q -0.0172,-0.062 -0.0465,-0.0861 -0.0276,-0.0241 -0.0827,-0.0241 h -1.65192 v -0.0482 q 0.0603,-0.0155 0.0844,-0.0448 0.0258,-0.0293 0.0258,-0.0827 v -1.57786 q 0,-0.0534 -0.0241,-0.081 -0.0241,-0.0276 -0.0861,-0.0465 v -0.0482 h 0.68213 v 0.0482 q -0.062,0.0172 -0.0861,0.0465 -0.0241,0.0276 -0.0241,0.081 z"
         style="font-style:normal;font-variant:normal;font-weight:normal;font-stretch:normal;font-size:3.52777767px;font-family:'Copperplate Gothic Bold';-inkscape-font-specification:'Copperplate Gothic Bold, Normal';font-variant-ligatures:normal;font-variant-caps:normal;font-variant-numeric:normal;font-feature-settings:normal;text-align:start;writing-mode:lr-tb;text-anchor:start;stroke-width:0.26458332"
         id="path1029"
         inkscape:connector-curvature="0" />
    </g>
    <g
       id="imagebot_2"
       label="Warstwa 1"
       transform="matrix(0.03184406,0,0,0.03184406,86.471562,239.18774)">
      <g
         id="imagebot_3"
         label="Warstwa 1"
         transform="translate(88.345,-234.07843)"
         style="fill:#000000">
        <g
           id="imagebot_23"
           transform="matrix(-1,0,0,1,755.44,-0.88158)"
           style="fill:#000000">
          <path
             id="imagebot_40"
             d="m 347.09,896.45 c -50.262,-34.611 -91.991,-4.2205 -130.2,30.147 49.331,13.402 101.57,19.481 130.2,-30.147 z"
             inkscape:connector-curvature="0"
             style="fill:#c59b00;fill-rule:evenodd;stroke:#b28b00;stroke-width:1px" />
          <path
             id="imagebot_39"
             d="m 335.01,866.66 c -2.2303,-60.986 -51.521,-76.327 -101.9,-86.474 18.691,47.579 44.995,93.123 101.9,86.474 z"
             inkscape:connector-curvature="0"
             style="fill:#c59b00;fill-rule:evenodd;stroke:#b28b00;stroke-width:1px" />
          <path
             id="imagebot_38"
             d="m 257.46,868.97 c -47.158,-38.735 -91.305,-11.979 -132.29,19.036 48.022,17.523 99.562,27.995 132.29,-19.036 z"
             inkscape:connector-curvature="0"
             style="fill:#c59b00;fill-rule:evenodd;stroke:#b28b00;stroke-width:1px" />
          <path
             id="imagebot_37"
             d="m 213.73,840.05 c 29.386,-53.485 -5.0433,-91.95 -43.076,-126.52 -8.3777,50.428 -9.1776,103.02 43.076,126.52 z"
             inkscape:connector-curvature="0"
             style="fill:#c59b00;fill-rule:evenodd;stroke:#b28b00;stroke-width:1px" />
          <path
             id="imagebot_36"
             d="m 175.56,838.86 c -34.69,-50.2 -84.493,-36.61 -132.42,-18.05 41.356,30.047 88.034,54.282 132.42,18.056 z"
             inkscape:connector-curvature="0"
             style="fill:#c59b00;fill-rule:evenodd;stroke:#b28b00;stroke-width:1px" />
          <path
             id="imagebot_35"
             d="m 126.56,794.08 c 44.894,-41.337 24.512,-88.766 -0.52771,-133.65 -24.006,45.131 -41.517,94.725 0.52771,133.65 z"
             inkscape:connector-curvature="0"
             style="fill:#c59b00;fill-rule:evenodd;stroke:#b28b00;stroke-width:1px" />
          <path
             id="imagebot_34"
             d="M 102.71,789.03 C 78.197,733.143 26.72,737.014 -23.86,746.117 c 34.886,37.364 76.102,70.035 126.57,42.913 z"
             inkscape:connector-curvature="0"
             style="fill:#c59b00;fill-rule:evenodd;stroke:#b28b00;stroke-width:1px" />
          <path
             id="imagebot_33"
             d="M 61.808,735 C 113.59,702.7 102.36,652.32 86.078,603.57 54.118,643.47 27.712,688.95 61.808,735 Z"
             inkscape:connector-curvature="0"
             style="fill:#c59b00;fill-rule:evenodd;stroke:#b28b00;stroke-width:1px" />
          <path
             id="imagebot_32"
             d="M 43.732,727.44 C 30.23,667.926 -21.05,661.992 -72.438,661.365 c 27.191,43.287 61.485,83.163 116.17,66.075 z"
             inkscape:connector-curvature="0"
             style="fill:#c59b00;fill-rule:evenodd;stroke:#b28b00;stroke-width:1px" />
          <path
             id="imagebot_31"
             d="M 28.354,639.98 C 83.493,613.83 78.104,562.49 67.512,512.2 31.194,548.17 -0.246,590.33 28.354,639.98 Z"
             inkscape:connector-curvature="0"
             style="fill:#c59b00;fill-rule:evenodd;stroke:#b28b00;stroke-width:1px" />
          <path
             id="imagebot_30"
             d="m 19.165,657 c -6.3392,-60.697 -56.553,-72.677 -107.51,-79.403 21.859,46.21 51.175,89.875 107.51,79.403 z"
             inkscape:connector-curvature="0"
             style="fill:#c59b00;fill-rule:evenodd;stroke:#b28b00;stroke-width:1px" />
          <path
             id="imagebot_29"
             d="m 5.1751,540.49 c 59.589,-13.17 65.808,-64.42 66.721,-115.81 -43.438,26.95 -83.504,61.02 -66.721,115.81 z"
             inkscape:connector-curvature="0"
             style="fill:#c59b00;fill-rule:evenodd;stroke:#b28b00;stroke-width:1px" />
          <path
             id="imagebot_28"
             d="m -6.4859,585.25 c 17.245,-58.54 -24.626,-88.73 -69.183,-114.35 2.621,51.052 13.107,102.59 69.183,114.35 z"
             inkscape:connector-curvature="0"
             style="fill:#c59b00;fill-rule:evenodd;stroke:#b28b00;stroke-width:1px" />
          <path
             id="imagebot_27"
             d="m 28.616,425.5 c 60.951,3.0522 80.497,-44.727 94.963,-94.044 -49.017,14.507 -96.665,36.773 -94.963,94.044 z"
             inkscape:connector-curvature="0"
             style="fill:#c59b00;fill-rule:evenodd;stroke:#b28b00;stroke-width:1px" />
          <path
             id="imagebot_26"
             d="m -10.627,491.19 c 36.629,-48.812 7.9621,-91.743 -24.821,-131.32 -15.399,48.744 -23.6,100.69 24.821,131.32 z"
             inkscape:connector-curvature="0"
             style="fill:#c59b00;fill-rule:evenodd;stroke:#b28b00;stroke-width:1px" />
          <path
             id="imagebot_25"
             d="M 55.278,338.67 C 116.2,335.15 130.5,285.55 139.59,234.96 92.411,254.65 47.431,281.91 55.278,338.67 Z"
             inkscape:connector-curvature="0"
             style="fill:#c59b00;fill-rule:evenodd;stroke:#b28b00;stroke-width:1px" />
          <path
             id="imagebot_24"
             d="M 16.39,391.33 C 62.167,350.98 42.814,303.12 18.751,257.7 -6.225,302.31 -24.804,351.51 16.39,391.33 Z"
             inkscape:connector-curvature="0"
             style="fill:#c59b00;fill-rule:evenodd;stroke:#b28b00;stroke-width:1px" />
        </g>
        <g
           id="imagebot_5"
           style="fill:#000000">
          <path
             id="imagebot_22"
             d="m 347.09,896.45 c -50.262,-34.611 -91.991,-4.2205 -130.2,30.147 49.331,13.402 101.57,19.481 130.2,-30.147 z"
             inkscape:connector-curvature="0"
             style="fill:#c59b00;fill-rule:evenodd;stroke:#b28b00;stroke-width:1px" />
          <path
             id="imagebot_21"
             d="m 335.01,866.66 c -2.2303,-60.986 -51.521,-76.327 -101.9,-86.474 18.691,47.579 44.995,93.123 101.9,86.474 z"
             inkscape:connector-curvature="0"
             style="fill:#c59b00;fill-rule:evenodd;stroke:#b28b00;stroke-width:1px" />
          <path
             id="imagebot_20"
             d="m 257.46,868.97 c -47.158,-38.735 -91.305,-11.979 -132.29,19.036 48.022,17.523 99.562,27.995 132.29,-19.036 z"
             inkscape:connector-curvature="0"
             style="fill:#c59b00;fill-rule:evenodd;stroke:#b28b00;stroke-width:1px" />
          <path
             id="imagebot_19"
             d="m 213.73,840.05 c 29.386,-53.485 -5.0433,-91.95 -43.076,-126.52 -8.3777,50.428 -9.1776,103.02 43.076,126.52 z"
             inkscape:connector-curvature="0"
             style="fill:#c59b00;fill-rule:evenodd;stroke:#b28b00;stroke-width:1px" />
          <path
             id="imagebot_18"
             d="m 175.56,838.86 c -34.69,-50.2 -84.493,-36.61 -132.42,-18.05 41.356,30.047 88.034,54.282 132.42,18.056 z"
             inkscape:connector-curvature="0"
             style="fill:#c59b00;fill-rule:evenodd;stroke:#b28b00;stroke-width:1px" />
          <path
             id="imagebot_17"
             d="m 126.56,794.08 c 44.894,-41.337 24.512,-88.766 -0.52771,-133.65 -24.006,45.131 -41.517,94.725 0.52771,133.65 z"
             inkscape:connector-curvature="0"
             style="fill:#c59b00;fill-rule:evenodd;stroke:#b28b00;stroke-width:1px" />
          <path
             id="imagebot_16"
             d="M 102.71,789.03 C 78.197,733.143 26.72,737.014 -23.86,746.117 c 34.886,37.364 76.102,70.035 126.57,42.913 z"
             inkscape:connector-curvature="0"
             style="fill:#c59b00;fill-rule:evenodd;stroke:#b28b00;stroke-width:1px" />
          <path
             id="imagebot_15"
             d="M 61.808,735 C 113.59,702.7 102.36,652.32 86.078,603.57 54.118,643.47 27.712,688.95 61.808,735 Z"
             inkscape:connector-curvature="0"
             style="fill:#c59b00;fill-rule:evenodd;stroke:#b28b00;stroke-width:1px" />
          <path
             id="imagebot_14"
             d="M 43.732,727.44 C 30.23,667.926 -21.05,661.992 -72.438,661.365 c 27.191,43.287 61.485,83.163 116.17,66.075 z"
             inkscape:connector-curvature="0"
             style="fill:#c59b00;fill-rule:evenodd;stroke:#b28b00;stroke-width:1px" />
          <path
             id="imagebot_13"
             d="M 28.354,639.98 C 83.493,613.83 78.104,562.49 67.512,512.2 31.194,548.17 -0.246,590.33 28.354,639.98 Z"
             inkscape:connector-curvature="0"
             style="fill:#c59b00;fill-rule:evenodd;stroke:#b28b00;stroke-width:1px" />
          <path
             id="imagebot_12"
             d="m 19.165,657 c -6.3392,-60.697 -56.553,-72.677 -107.51,-79.403 21.859,46.21 51.175,89.875 107.51,79.403 z"
             inkscape:connector-curvature="0"
             style="fill:#c59b00;fill-rule:evenodd;stroke:#b28b00;stroke-width:1px" />
          <path
             id="imagebot_11"
             d="m 5.1751,540.49 c 59.589,-13.17 65.808,-64.42 66.721,-115.81 -43.438,26.95 -83.504,61.02 -66.721,115.81 z"
             inkscape:connector-curvature="0"
             style="fill:#c59b00;fill-rule:evenodd;stroke:#b28b00;stroke-width:1px" />
          <path
             id="imagebot_10"
             d="m -6.4859,585.25 c 17.245,-58.54 -24.626,-88.73 -69.183,-114.35 2.621,51.052 13.107,102.59 69.183,114.35 z"
             inkscape:connector-curvature="0"
             style="fill:#c59b00;fill-rule:evenodd;stroke:#b28b00;stroke-width:1px" />
          <path
             id="imagebot_9"
             d="m 28.616,425.5 c 60.951,3.0522 80.497,-44.727 94.963,-94.044 -49.017,14.507 -96.665,36.773 -94.963,94.044 z"
             inkscape:connector-curvature="0"
             style="fill:#c59b00;fill-rule:evenodd;stroke:#b28b00;stroke-width:1px" />
          <path
             id="imagebot_8"
             d="m -10.627,491.19 c 36.629,-48.812 7.9621,-91.743 -24.821,-131.32 -15.399,48.744 -23.6,100.69 24.821,131.32 z"
             inkscape:connector-curvature="0"
             style="fill:#c59b00;fill-rule:evenodd;stroke:#b28b00;stroke-width:1px" />
          <path
             id="imagebot_7"
             d="M 55.278,338.67 C 116.2,335.15 130.5,285.55 139.59,234.96 92.411,254.65 47.431,281.91 55.278,338.67 Z"
             inkscape:connector-curvature="0"
             style="fill:#c59b00;fill-rule:evenodd;stroke:#b28b00;stroke-width:1px" />
          <path
             id="imagebot_6"
             d="M 16.39,391.33 C 62.167,350.98 42.814,303.12 18.751,257.7 -6.225,302.31 -24.804,351.51 16.39,391.33 Z"
             inkscape:connector-curvature="0"
             style="fill:#c59b00;fill-rule:evenodd;stroke:#b28b00;stroke-width:1px" />
        </g>
        <path
           id="imagebot_4"
           d="m 365.68,905.89 a 13.132,17.173 0 1 1 -26.264,0 13.132,17.173 0 1 1 26.264,0 z"
           transform="matrix(1.3462,0,0,1.0294,-97.05,-48.372)"
           inkscape:connector-curvature="0"
           style="fill:#c59b00;stroke:#b28b00;stroke-width:0.84947002;stroke-linecap:round" />
      </g>
      <title
         id="title1812">Warstwa 1</title>
    </g>
  </g>
</svg>
