<?xml version="1.0" encoding="UTF-8" standalone="no"?>
<!-- Created with Inkscape (http://www.inkscape.org/) -->

<svg
   xmlns:dc="http://purl.org/dc/elements/1.1/"
   xmlns:cc="http://creativecommons.org/ns#"
   xmlns:rdf="http://www.w3.org/1999/02/22-rdf-syntax-ns#"
   xmlns:svg="http://www.w3.org/2000/svg"
   xmlns="http://www.w3.org/2000/svg"
   xmlns:sodipodi="http://sodipodi.sourceforge.net/DTD/sodipodi-0.dtd"
   xmlns:inkscape="http://www.inkscape.org/namespaces/inkscape"
   width="152mm"
   height="102mm"
   viewBox="0 0 152 102"
   version="1.1"
   id="svg8"
   inkscape:version="0.92.4 (5da689c313, 2019-01-14)"
   sodipodi:docname="ScanDont.svg">
  <defs
     id="defs2" />
  <sodipodi:namedview
     id="base"
     pagecolor="#ffffff"
     bordercolor="#666666"
     borderopacity="1.0"
     inkscape:pageopacity="0.0"
     inkscape:pageshadow="2"
     inkscape:zoom="0.98994949"
     inkscape:cx="89.271088"
     inkscape:cy="171.5654"
     inkscape:document-units="mm"
     inkscape:current-layer="layer1"
     showgrid="false"
     inkscape:window-width="1920"
     inkscape:window-height="1018"
     inkscape:window-x="-8"
     inkscape:window-y="-8"
     inkscape:window-maximized="1" />
  <metadata
     id="metadata5">
    <rdf:RDF>
      <cc:Work
         rdf:about="">
        <dc:format>image/svg+xml</dc:format>
        <dc:type
           rdf:resource="http://purl.org/dc/dcmitype/StillImage" />
        <dc:title />
      </cc:Work>
    </rdf:RDF>
  </metadata>
  <g
     inkscape:label="Layer 1"
     inkscape:groupmode="layer"
     id="layer1"
     transform="translate(0,-195)">
    <rect
       style="opacity:1;vector-effect:none;fill:#ffffff;fill-opacity:1;fill-rule:nonzero;stroke:none;stroke-width:0.31654868;stroke-linecap:butt;stroke-linejoin:miter;stroke-miterlimit:4;stroke-dasharray:none;stroke-dashoffset:0;stroke-opacity:1"
       id="rect1460"
       width="130.96207"
       height="87.153519"
       x="10.594076"
       y="204.96783" />
    <g
       aria-label="DON'T"
       transform="matrix(0,-0.54269848,1.2265562,0,-23.14856,-210.48922)"
       style="font-style:normal;font-variant:normal;font-weight:normal;font-stretch:normal;font-size:41.98447418px;line-height:1.25;font-family:'Copperplate Gothic Bold';-inkscape-font-specification:'Copperplate Gothic Bold, Normal';font-variant-ligatures:normal;font-variant-caps:normal;font-variant-numeric:normal;font-feature-settings:normal;text-align:start;letter-spacing:0px;word-spacing:0px;writing-mode:lr-tb;text-anchor:start;fill:#000000;fill-opacity:1;stroke:none"
       id="flowRoot1379">
      <path
         d="M -914.73872,128.32986 V 104.6521 q 0,-0.63551 -0.28701,-0.96351 -0.287,-0.32801 -1.02501,-0.53301 v -0.65601 h 15.60068 q 5.12506,0 7.87209,1.16852 3.93604,1.70152 5.82206,5.61706 1.49652,3.07503 1.49652,7.19558 0,7.23658 -4.44855,11.02913 -1.86552,1.59901 -4.36655,2.29602 -2.50103,0.67651 -6.37557,0.67651 h -15.60068 v -0.65601 q 0.73801,-0.205 1.02501,-0.533 0.28701,-0.32801 0.28701,-0.96352 z m 6.10907,-2.46002 h 7.66708 q 3.66954,0 5.51457,-1.00451 3.95654,-2.15253 3.95654,-8.3846 0,-4.51005 -2.13202,-6.90858 -1.18902,-1.33251 -2.87004,-1.88602 -1.68102,-0.574 -4.46905,-0.574 h -7.66708 z"
         id="path1480"
         inkscape:connector-curvature="0" />
      <path
         d="m -865.49717,102.00757 q 7.31859,0 11.60314,3.95654 4.53055,4.14105 4.53055,10.70112 0,4.01805 -2.17303,7.50309 -4.24355,6.80607 -13.91965,6.80607 -7.25709,0 -11.54164,-3.95654 -2.29602,-2.11152 -3.48503,-5.06356 -1.04552,-2.60353 -1.04552,-5.47356 0,-4.20255 2.15253,-7.68759 4.12054,-6.66257 13.87865,-6.78557 z m 0.0205,4.73555 q -3.99754,0 -6.66257,2.37803 -3.15704,2.80853 -3.15704,7.35958 0,4.55105 3.15704,7.35958 2.66503,2.37803 6.70358,2.37803 4.03854,0 6.68307,-2.37803 1.57852,-1.41451 2.41903,-3.46453 0.73801,-1.82453 0.73801,-3.77205 0,-4.75605 -3.15704,-7.48258 -2.68553,-2.33703 -6.72408,-2.37803 z"
         id="path1482"
         inkscape:connector-curvature="0" />
      <path
         d="m -838.04736,111.31467 v 17.01519 q 0,0.63551 0.28701,0.96352 0.287,0.328 1.02501,0.533 v 0.65601 h -8.22059 v -0.65601 q 0.738,-0.205 1.02501,-0.533 0.287,-0.32801 0.287,-0.96352 V 104.6316 q 0,-0.61501 -0.287,-0.94301 -0.28701,-0.32801 -1.02501,-0.53301 v -0.65601 h 9.5121 v 0.65601 q -0.88151,0.2255 -0.88151,0.94301 0,0.49201 0.57401,1.08651 l 15.43667,16.05168 V 104.6316 q 0,-0.61501 -0.287,-0.94301 -0.287,-0.32801 -1.02501,-0.53301 v -0.65601 h 8.22059 v 0.65601 q -0.73801,0.205 -1.02501,0.53301 -0.287,0.328 -0.287,0.94301 v 23.69826 q 0,0.63551 0.287,0.96352 0.287,0.328 1.02501,0.533 v 0.65601 h -8.8151 v -0.65601 q 0.86101,-0.1845 0.86101,-0.88151 0,-0.41 -1.00451,-1.43501 z"
         id="path1484"
         inkscape:connector-curvature="0" />
      <path
         d="m -802.64345,114.0207 v 0.59451 h -4.83806 v -0.59451 q 0.77901,-0.205 0.96351,-0.451 0.20501,-0.2665 0.20501,-1.06601 0,-0.32801 -0.0615,-0.65601 l -1.35302,-7.13408 q -0.1435,-1.02501 -0.328,-1.25052 -0.164,-0.2255 -0.88151,-0.369 v -0.59451 h 7.74909 v 0.59451 q -0.73801,0.1435 -0.90201,0.369 -0.16401,0.22551 -0.30751,1.25052 l -1.35301,7.13408 q -0.0615,0.3075 -0.0615,0.69701 0,0.75851 0.1845,1.02501 0.205,0.246 0.98401,0.451 z"
         id="path1486"
         inkscape:connector-curvature="0" />
      <path
         d="m -782.04072,107.11213 v 21.21773 q 0,0.63551 0.287,0.96352 0.287,0.328 1.02501,0.533 v 0.65601 h -8.7331 v -0.65601 q 0.73801,-0.205 1.02501,-0.533 0.28701,-0.32801 0.28701,-0.96352 v -21.21773 h -8.6921 q -0.61501,0 -0.94301,0.287 -0.328,0.2665 -0.53301,1.00451 h -0.656 v -7.23658 h 0.656 q 0.22551,0.75851 0.53301,1.04551 0.328,0.287 0.94301,0.287 h 23.47276 q 0.63551,0 0.96352,-0.287 0.328,-0.287 0.533,-1.04551 h 0.65601 v 7.23658 h -0.65601 q -0.205,-0.73801 -0.533,-1.00451 -0.32801,-0.287 -0.96352,-0.287 z"
         id="path1488"
         inkscape:connector-curvature="0" />
    </g>
    <rect
       style="opacity:1;vector-effect:none;fill:#fff1d1;fill-opacity:1;fill-rule:nonzero;stroke:#000000;stroke-width:1.16499996;stroke-linecap:butt;stroke-linejoin:miter;stroke-miterlimit:4;stroke-dasharray:none;stroke-dashoffset:0;stroke-opacity:1"
       id="rect1401"
       width="5.8586307"
       height="40.065475"
       x="-284.61606"
       y="222.5387" />
    <g
       aria-label="CODE"
       transform="matrix(0,-0.54269848,1.2265562,0,-66.852386,-212.42461)"
       style="font-style:normal;font-variant:normal;font-weight:normal;font-stretch:normal;font-size:41.98447418px;line-height:1.25;font-family:'Copperplate Gothic Bold';-inkscape-font-specification:'Copperplate Gothic Bold, Normal';font-variant-ligatures:normal;font-variant-caps:normal;font-variant-numeric:normal;font-feature-settings:normal;text-align:start;letter-spacing:0px;word-spacing:0px;writing-mode:lr-tb;text-anchor:start;fill:#000000;fill-opacity:1;stroke:none"
       id="flowRoot1440">
      <path
         d="m -888.92893,120.86778 3.89504,5.84257 -0.533,0.369 q -0.57401,-0.53301 -0.94301,-0.53301 -0.36901,0 -2.07053,0.98402 -3.52604,2.02952 -5.94506,2.74703 -2.39853,0.697 -5.71957,0.697 -6.62157,0 -10.86512,-3.13653 -2.50103,-1.82452 -3.93605,-4.53055 -1.66051,-3.09554 -1.66051,-6.82658 0,-5.08406 2.97253,-8.8356 4.46905,-5.63756 13.50965,-5.63756 3.32104,0 5.69907,0.69701 2.37802,0.697 5.94506,2.74703 1.70152,0.96351 2.07053,0.96351 0.369,0 0.94301,-0.53301 l 0.533,0.36901 -3.89504,5.84256 -0.55351,-0.369 q 0.041,-0.32801 0.041,-0.55351 0,-0.59451 -0.5125,-1.10701 -0.51251,-0.53301 -1.82452,-1.27102 -3.62854,-2.05002 -7.68759,-2.05002 -4.79705,0 -7.64659,2.39853 -3.36203,2.80853 -3.36203,7.33908 0,4.53055 3.36203,7.33908 2.84954,2.39853 7.64659,2.39853 4.05905,0 7.68759,-2.05002 1.31201,-0.73801 1.82452,-1.25052 0.5125,-0.533 0.5125,-1.12751 0,-0.2255 -0.041,-0.533 z"
         id="path1471"
         inkscape:connector-curvature="0" />
      <path
         d="m -866.22492,102.00757 q 7.31858,0 11.60313,3.95654 4.53055,4.14105 4.53055,10.70112 0,4.01805 -2.17302,7.50309 -4.24355,6.80607 -13.91966,6.80607 -7.25708,0 -11.54163,-3.95654 -2.29603,-2.11152 -3.48504,-5.06356 -1.04551,-2.60353 -1.04551,-5.47356 0,-4.20255 2.15252,-7.68759 4.12055,-6.66257 13.87866,-6.78557 z m 0.0205,4.73555 q -3.99755,0 -6.66258,2.37803 -3.15703,2.80853 -3.15703,7.35958 0,4.55105 3.15703,7.35958 2.66503,2.37803 6.70358,2.37803 4.03854,0 6.68307,-2.37803 1.57852,-1.41451 2.41903,-3.46453 0.73801,-1.82453 0.73801,-3.77205 0,-4.75605 -3.15704,-7.48258 -2.68553,-2.33703 -6.72407,-2.37803 z"
         id="path1473"
         inkscape:connector-curvature="0" />
      <path
         d="M -844.38193,128.32986 V 104.6521 q 0,-0.63551 -0.287,-0.96351 -0.287,-0.32801 -1.02501,-0.53301 v -0.65601 h 15.60068 q 5.12505,0 7.87208,1.16852 3.93605,1.70152 5.82207,5.61706 1.49652,3.07503 1.49652,7.19558 0,7.23658 -4.44855,11.02913 -1.86552,1.59901 -4.36655,2.29602 -2.50103,0.67651 -6.37557,0.67651 h -15.60068 v -0.65601 q 0.73801,-0.205 1.02501,-0.533 0.287,-0.32801 0.287,-0.96352 z m 6.10907,-2.46002 h 7.66709 q 3.66954,0 5.51456,-1.00451 3.95655,-2.15253 3.95655,-8.3846 0,-4.51005 -2.13203,-6.90858 -1.18901,-1.33251 -2.87003,-1.88602 -1.68102,-0.574 -4.46905,-0.574 h -7.66709 z"
         id="path1475"
         inkscape:connector-curvature="0" />
      <path
         d="m -803.09446,118.20275 v 7.66709 h 17.9992 q 0.61501,0 0.94302,-0.28701 0.328,-0.287 0.533,-1.02501 h 0.65601 v 7.23658 h -0.65601 q -0.205,-0.738 -0.533,-1.02501 -0.32801,-0.287 -0.94302,-0.287 h -25.42028 v -0.65601 q 0.73801,-0.205 1.02501,-0.533 0.287,-0.32801 0.287,-0.96352 V 104.6521 q 0,-0.63551 -0.287,-0.96351 -0.287,-0.32801 -1.02501,-0.53301 v -0.65601 h 24.92828 q 0.61501,0 0.94301,-0.287 0.328,-0.3075 0.53301,-1.04551 h 0.656 v 7.23658 h -0.656 q -0.20501,-0.71751 -0.53301,-1.00451 -0.328,-0.287 -0.94301,-0.287 h -17.5072 v 6.64207 h 11.35713 q 0.61501,0 0.94301,-0.287 0.328,-0.28701 0.53301,-1.02501 h 0.656 v 7.07258 h -0.656 q -0.20501,-0.71751 -0.53301,-1.00452 -0.328,-0.3075 -0.94301,-0.3075 z"
         id="path1477"
         inkscape:connector-curvature="0" />
    </g>
    <g
       aria-label="SCAN"
       transform="matrix(0,-0.54269848,1.2265562,0,-110.22576,-213.0907)"
       style="font-style:normal;font-variant:normal;font-weight:normal;font-stretch:normal;font-size:41.98447418px;line-height:1.25;font-family:'Copperplate Gothic Bold';-inkscape-font-specification:'Copperplate Gothic Bold, Normal';font-variant-ligatures:normal;font-variant-caps:normal;font-variant-numeric:normal;font-feature-settings:normal;text-align:start;letter-spacing:0px;word-spacing:0px;writing-mode:lr-tb;text-anchor:start;fill:#000000;fill-opacity:1;stroke:none"
       id="flowRoot1452">
      <path
         d="m -890.01544,104.8571 -3.34154,6.58057 -0.57401,-0.328 q 0.0205,-0.205 0.0205,-0.328 0,-0.69701 -1.18901,-1.49652 -3.64904,-2.54203 -8.5691,-2.54203 -2.17302,0 -3.83354,0.53301 -1.20951,0.41 -1.96802,1.23001 -0.73801,0.82001 -0.73801,1.78352 0,1.57852 1.90652,2.15253 0.98401,0.287 4.22305,0.615 l 3.21853,0.32801 q 2.87004,0.3075 4.63306,0.84051 1.78352,0.533 3.15703,1.49651 1.39402,1.00451 2.19353,2.64453 0.82001,1.64002 0.82001,3.50554 0,2.95204 -1.90653,5.24806 -1.72201,2.09102 -5.35056,3.09554 -2.70603,0.7585 -5.80156,0.7585 -5.55556,0 -10.96762,-2.66503 -1.14802,-0.533 -1.37352,-0.533 -0.2665,0 -0.84051,0.451 l -0.59451,-0.3075 3.03404,-6.86758 0.5945,0.28701 q 0,0.1845 0,0.2665 0,0.92251 0.88151,1.70152 1.33252,1.18901 4.12055,2.05002 2.78803,0.86101 5.28906,0.86101 2.72653,0 4.65355,-0.92251 1.06602,-0.51251 1.70152,-1.35301 0.63551,-0.86101 0.63551,-1.78352 0,-1.39402 -1.49652,-1.98853 -1.04551,-0.41 -4.22305,-0.75851 l -3.15703,-0.328 q -3.17754,-0.328 -4.48955,-0.61501 -1.31202,-0.3075 -2.62403,-0.96351 -1.86552,-0.92251 -2.93153,-2.76753 -0.96352,-1.66052 -0.96352,-3.81304 0,-3.54654 2.43953,-5.86307 3.19804,-3.05453 9.59411,-3.05453 2.68553,0 5.00206,0.5535 2.31652,0.53301 5.78106,1.98853 1.18902,0.4715 1.45552,0.4715 0.4305,0 1.00451,-0.4715 z"
         id="path1462"
         inkscape:connector-curvature="0" />
      <path
         d="m -858.67059,120.86778 3.89504,5.84257 -0.533,0.369 q -0.57401,-0.53301 -0.94301,-0.53301 -0.36901,0 -2.07053,0.98402 -3.52604,2.02952 -5.94506,2.74703 -2.39853,0.697 -5.71957,0.697 -6.62157,0 -10.86512,-3.13653 -2.50103,-1.82452 -3.93604,-4.53055 -1.66052,-3.09554 -1.66052,-6.82658 0,-5.08406 2.97253,-8.8356 4.46905,-5.63756 13.50965,-5.63756 3.32104,0 5.69907,0.69701 2.37802,0.697 5.94506,2.74703 1.70152,0.96351 2.07053,0.96351 0.369,0 0.94301,-0.53301 l 0.533,0.36901 -3.89504,5.84256 -0.55351,-0.369 q 0.041,-0.32801 0.041,-0.55351 0,-0.59451 -0.5125,-1.10701 -0.51251,-0.53301 -1.82452,-1.27102 -3.62854,-2.05002 -7.68759,-2.05002 -4.79705,0 -7.64659,2.39853 -3.36203,2.80853 -3.36203,7.33908 0,4.53055 3.36203,7.33908 2.84954,2.39853 7.64659,2.39853 4.05905,0 7.68759,-2.05002 1.31201,-0.73801 1.82452,-1.25052 0.5125,-0.533 0.5125,-1.12751 0,-0.2255 -0.041,-0.533 z"
         id="path1464"
         inkscape:connector-curvature="0" />
      <path
         d="m -830.55452,123.34831 h -12.71014 l -1.88602,3.93604 q -0.38951,0.82001 -0.38951,1.29152 0,0.90201 1.37352,1.25051 v 0.65601 h -9.26611 v -0.65601 q 0.82001,-0.164 1.25052,-0.574 0.4305,-0.41001 0.98401,-1.59902 l 10.29111,-21.50475 q 0.49201,-1.02501 0.49201,-1.64001 0,-0.94301 -1.18901,-1.35302 v -0.65601 h 9.92211 v 0.65601 q -1.20952,0.3485 -1.20952,1.20951 0,0.59451 0.38951,1.35302 l 10.66012,21.56624 q 0.67651,1.37352 1.18901,1.88602 0.51251,0.49201 1.37352,0.65601 v 0.65601 h -10.29112 v -0.65601 q 1.35302,-0.2255 1.35302,-1.27101 0,-0.43051 -0.41001,-1.27102 z m -1.76302,-3.83354 -4.53055,-9.96312 -4.59205,9.96312 z"
         id="path1466"
         inkscape:connector-curvature="0" />
      <path
         d="m -809.92104,111.31467 v 17.01519 q 0,0.63551 0.28701,0.96352 0.287,0.328 1.02501,0.533 v 0.65601 h -8.22059 v -0.65601 q 0.738,-0.205 1.02501,-0.533 0.287,-0.32801 0.287,-0.96352 V 104.6316 q 0,-0.61501 -0.287,-0.94301 -0.28701,-0.32801 -1.02501,-0.53301 v -0.65601 h 9.5121 v 0.65601 q -0.88151,0.2255 -0.88151,0.94301 0,0.49201 0.57401,1.08651 l 15.43667,16.05168 V 104.6316 q 0,-0.61501 -0.287,-0.94301 -0.287,-0.32801 -1.02501,-0.53301 v -0.65601 h 8.22059 v 0.65601 q -0.73801,0.205 -1.02501,0.53301 -0.287,0.328 -0.287,0.94301 v 23.69826 q 0,0.63551 0.287,0.96352 0.287,0.328 1.02501,0.533 v 0.65601 h -8.8151 v -0.65601 q 0.86101,-0.1845 0.86101,-0.88151 0,-0.41 -1.00451,-1.43501 z"
         id="path1468"
         inkscape:connector-curvature="0" />
    </g>
  </g>
</svg>
