<svg version="1.0" viewBox="0 0 100 100" xmlns="http://www.w3.org/2000/svg">
 <path d="m68.861 2.2968c0.48015 1.5963 2.4935 8.6512 3.8876 17.836 3.8691 25.464 2.6142 41.343-2.7116 51.794-2.5515 5.0059-4.6392 13.367-4.6392 18.582v9.4755l-17.977-0.67798-15.1 0.19504-0.54742-12.429c-0.15541-5.1081-2.5863-14.333-4.6554-21.245-2.8809-9.6241-2.5144-15.612-0.73531-22.227 0.71675-2.6632 7.0747-10.36 11.612-7.9407 2.6884-6.5244 6.8196-3.6128 8.325-3.8148 5.5971-3.3667 4.8062-3.5176 5.5995-2.4078l1.3245-3.5339 3.1106-2.0551 6.5853 9.4687-1.6028-18.935c0.01624-9.8323-0.79098-14.398 3.7716-14.398 1.06 4.6e-5 3.2752 0.71648 3.7531 2.3127zm-29.526 90.315c-2.2941 5.6305-1.0392 3.7382 11.301 4.3813 11.946 0.62458 12.073 0.29255 12.073-5.3658 0-5.2985 1.1157-5.2451-6.9866-5.2451-6.794 0-13.799 2.2754-16.388 6.2295z" fill="#d0d0d0" stroke-width="2.3207"/>
 <path d="m69.699 2.5651c0.48108 1.6039 4.3344 17.617 4.7688 26.943 1.163 25.088-1.2191 36.237-4.4208 43.567-2.2606 5.1767-3.7926 12.115-3.7926 17.354l-0.26156 9.3456-16.784 0.10731-18.099-0.68121-0.28725-9.3316c-0.1588-5.1324-1.9921-15.015-4.0729-21.96-2.9005-9.6699-1.1326-17.847 0.6609-24.493 0.71929-2.6758 3.3629-6.2475 5.3129-8.3285 1.9524-2.0786 1.9687 0.86784 4.1406-0.30328 1.0859-0.58322 2.7464-2.8765 4.6987-3.2287s3.0873 1.5887 4.0425 0.63455c4.2153-4.2062 3.475-3.6743 6.7889-1.4114-0.66791-4.7335 1.1-7.1261 3.7459-6.5914 2.0458 3.414 6.497 8.4274 6.497 8.4274l-1.1116-17.193c0.01635-9.8791-1.4432-15.54 3.1504-15.54 1.0673 4.7e-5 4.5423 1.0794 5.0234 2.6833zm-6.7725 3.627c-0.2639 7.7627-1.156 8.29 3.1971 7.9676 3.113-0.10871 5.6446 2.8856 6.2868 2.8856 1.2844 0-2.4381-10.694-2.4381-13.336 0-2.6418-0.65156-0.85802-1.9617-1.6071-1.3218-0.75497-4.4185-0.46583-5.0841 4.0896zm1.0813 13.119c0 3.7424 0.27791 8.1227 2.0481 8.181 3.447 0.11198 7.8795 2.7248 0.4227 1.2038-2.4078-0.48991-1.7725 2.4659 0.95049 7.7266 1.9407 3.749 5.1121 8.4824 5.8664 8.4824 1.3358 0 0.94815-15.523-0.39935-26.306-0.37132-2.9702-5.8407-3.5957-7.1252-3.5563-1.2821 0.03943-1.7632 0.25055-1.7632 4.2683zm-16.13 21.591c0 6.2312 6.4479 19.02 9.7595 16.916 0.90378-0.57623 0.39-6.9194-0.94115-9.4016-1.3288-2.4822-4.5469-12.446-4.5469-15.812 0-3.49-2.3587-2.3586-4.4348 1.0031-0.79402 1.2854 0.16348 3.777 0.16348 7.295zm8.3255 0.27295c8.0243 11.137 1.1163 9.5556 8.9771 17.919-6.0509-0.24962-8.7296 3.1611-13.113 6.7631-3.3816 2.4659-1.8379 6.5088-1.88 7.4723-3.4143-4.0849-2.8608-10.234 1.3498-11.651-1.4619-0.67421-6.1677 3.1727-16.639-1.913-6.6021 3.0631-0.93648 11.417 1.3919 15.763 1.7118 7.2157 3.8907 8.5081 14.29 8.5081 10.465 0 11.193-0.44558 17.331-10.591 6.5133-10.773 9.4372-23.168 5.5581-23.168-1.184 0-2.1602 0.81885-3.0056-3.0304-0.84774-3.8493-5.9808-4.9597-6.504-6.2545-0.9575-2.3656-3.2041 1.3531-3.3419 0.16797-0.20785-1.808 4.8832-1.5187 0.42036-9.2873-2.2326-3.8843-3.6338-6.0422-4.6147-6.4738-0.98085-0.43159-1.483 1.4184-2.1065 3.8773-0.5021 4.1992 1.915 12.738 1.887 11.898zm-16.116-4.1129c0 3.0561 1.3919 12.581 1.7655 14.042 2.27 8.8814 7.3891 7.4629 6.9453 2.4495-0.21952-2.4729-2.8655-10.79-3.2929-14.506s-0.17282-6.5181-0.95049-6.7677c-3.6548-1.1804-4.4675 1.7263-4.4675 4.7824zm-5.4204 14.681c2.1205 3.581 4.3835-0.44325 3.9888-5.5033-1.2261-15.738-4.2036-10.321-4.8762-7.6309-0.40869 1.6284-0.47174 10.841 0.88744 13.134zm1.4362 40.254c-2.2396 7.2273 1.6791 6.0375 14.872 6.0375 13.447 0 13.998-0.23329 13.998-5.9489 0-5.7553-0.42504-5.9256-13.204-5.249-11.646 0.61822-14.967 0.5319-15.666 5.1604z" fill="#8c8c8c" stroke-width="2.3341"/>
 <path d="m70.299 4.6911c0.72015 2.1439 1.788 7.1239 2.7226 15.794 2.7339 25.369 3.138 40.969-2.0453 51.325-2.3433 6.1111-4.5151 12.091-4.5151 17.256v10.934h-35.269v-10.934c-0.15351-5.0619-1.9257-14.808-3.9394-21.658-2.8016-9.537-2.7903-14.201-1.0588-20.756 1.3952-5.2805 4.0929-9.8338 6.9983-12.27 1.4516-1.2172 5.9328-2.7081 5.7319-0.14035-0.13771 1.7579-1.113-0.66955 0.29799-2.0938 2.7813-2.807 5.2352-1.8913 6.4136-0.49928 0.32057-0.67185 0.68403-1.5071 2.1221-2.8024s4.2171-0.43256 4.3886 0.95255c0.1806 1.4679-1.7067 1.2954-0.20092-3.8493 0.66146-2.2604 4.8988-3.3517 5.2104-1.5459 2.4494 4.3116 3.5488 6.1684 3.5488 6.1684l-0.63662-13.823c0.01354-9.7432-1.6209-17.243 5.3684-16.723 2.9754 0.22383 4.3977 3.0829 4.8627 4.6647zm-8.3213 10.472c-0.12642 12.036 0.1061 17.952 4.3209 24.223 6.2398 9.2793 9.757 19.279 5.0591-19.104-1.262-10.333-2.4517-18.066-5.8131-18.289-4.2284-0.27955-4.2329 2.5758-3.5669 13.169zm-14.435 16.496c-0.89398 0.83291-1.1401 3.8562-2.1469 1.3046-4.5828-2.9543-7.3844 2.2272-5.9621 9.07 0 0 1.1107 11 1.876 12.452 1.1875 3.7159-0.31605 0.45787-1.1965 1.675-0.24607 2.9612-2.0498-6.9739-2.1921-9.5531-0.80142-4.7651-0.95042-8.4004-0.63436-9.9696 0.31605-1.5715-2.8016-1.0193-3.1176 0.69026-1.657 4.2727-1.8038 10.964-0.14222 16.845 0.8398 2.9796 6.0344 1.6244 7.2873 0.37044 0.61405 2.1076 1.9595 4.7927 3.9281 5.5128 10.109 3.3155 1.3161-10.641 0.35895-16.778-0.96396-6.1824-0.80594-9.0884-0.3138-10.614 0.24607-0.76158 1.7676-1.0262 1.6457-0.12194-0.12191 0.90424-0.62082 3.7642-0.17834 5.7843 0.78336 3.5755 0.65243 6.0558 1.8399 9.4312 2.1898 6.6288 0.20769 1.0331 2.7294 7.0912 2.2079 4.1208 1.6254 2.8254 3.1696 4.7236 7.8697 2.4527 1.9121-9.2241-0.45376-15.565-1.0723-4.4429-2.6052-8.7593-2.5646-13.331-1.9121-0.83751-3.296-0.24619-3.9326 0.98246zm8.4906 11.681c1.6954 3.5157 2.3004 7.2201 3.5421 10.046 0.95945 4.9491 0.80594 5.8212-0.0587 7.227-1.8692 2.1697-5.7319 1.8108-8.7163-2.7219 0-0.91114 1.8218 3.8286-3.1199 3.7205-1.6277-0.24389-1.6412 0.33592-4.4993-1.4541-1.5893-1.4771-2.6842-2.5655-2.7993-3.1775-1.271 0-1.5825 0.35663-2.9303 0.29221-4.2035 0.0046-5.1517-3.7757-5.7251-5.6693-0.57341-1.8936-1.0565-9.613 0.76304-13.764 1.7993-4.107-3.5804 4.6339-4.558 8.9894-0.97525 4.3555-0.64565 12.206 1.2304 16.985 1.5893 4.0472 2.3253 10.273 3.3321 12.804 1.0091 2.5309 0.149 6.5252 1.3952 6.5252 3.5511 0 8.9646 0.77309 16.457 0.50849l14.304-0.50849 2.9732-9.8154c1.858-2.7978 6.5536-15.402 2.9009-23.434-1.9731-3.4467-4.6641-6.6564-6.3549-10.239-1.3613-2.294-2.6503-3.6929-3.6324-5.9914-1.2371-2.8945-1.946-4.4706-4.2329-8.2532-4.6844-1.0342-2.7045 14.364-0.2709 17.931zm6.1969 52.823v-9.2609h-27.761v9.2609c8.6418 0.04142 19.101-0.11274 27.761 0z" stroke-width="2.2791"/>
</svg>
