<?xml version="1.0" encoding="UTF-8" standalone="no"?>
<!-- Created with Inkscape (http://www.inkscape.org/) -->

<svg
   xmlns:dc="http://purl.org/dc/elements/1.1/"
   xmlns:cc="http://creativecommons.org/ns#"
   xmlns:rdf="http://www.w3.org/1999/02/22-rdf-syntax-ns#"
   xmlns:svg="http://www.w3.org/2000/svg"
   xmlns="http://www.w3.org/2000/svg"
   xmlns:sodipodi="http://sodipodi.sourceforge.net/DTD/sodipodi-0.dtd"
   xmlns:inkscape="http://www.inkscape.org/namespaces/inkscape"
   width="210mm"
   height="297mm"
   viewBox="0 0 210 297"
   version="1.1"
   id="svg927"
   inkscape:version="0.92.4 (5da689c313, 2019-01-14)"
   sodipodi:docname="tau12cm.svg">
  <defs
     id="defs921" />
  <sodipodi:namedview
     id="base"
     pagecolor="#ffffff"
     bordercolor="#666666"
     borderopacity="1.0"
     inkscape:pageopacity="0.0"
     inkscape:pageshadow="2"
     inkscape:zoom="0.49497475"
     inkscape:cx="408.46779"
     inkscape:cy="851.62679"
     inkscape:document-units="mm"
     inkscape:current-layer="layer1"
     showgrid="false"
     inkscape:window-width="1920"
     inkscape:window-height="1018"
     inkscape:window-x="-8"
     inkscape:window-y="-8"
     inkscape:window-maximized="1" />
  <metadata
     id="metadata924">
    <rdf:RDF>
      <cc:Work
         rdf:about="">
        <dc:format>image/svg+xml</dc:format>
        <dc:type
           rdf:resource="http://purl.org/dc/dcmitype/StillImage" />
        <dc:title></dc:title>
      </cc:Work>
    </rdf:RDF>
  </metadata>
  <g
     inkscape:label="Layer 1"
     inkscape:groupmode="layer"
     id="layer1">
    <g
       id="g16671"
       transform="matrix(0.1711239,0,0,-0.15030048,1133.6593,496.39285)">
      <path
         inkscape:connector-curvature="0"
         id="path16673"
         style="fill:currentColor"
         d="m -6135.6,3147.1 -29,-287 c -4.6,-50 -7,-100 -7,-150 0,-95.3 11,-153 33,-173 22,-20 47.7,-30.3 77,-31 64,0 102,40.4 114,121 h 37 c -22,-185.3 -95.6,-278 -221,-278 -131.3,0 -197,75.4 -197,226 0,76 7.4,170.7 22,284 l 37,288 h -99 c -54.6,0 -97,-9 -127,-27 -30,-18 -58.3,-55 -85,-111 h -36 c 21.4,73.4 46.7,131.4 76,174 29.4,42.7 57.4,71.7 84,87 26.7,15.4 66.4,23 119,23 h 492 v -146 z" />
    </g>
  </g>
</svg>
